ISO-10303-21;
HEADER;
FILE_DESCRIPTION(('zoo.dev export'), '2;1');
FILE_NAME('output.step', '2026-07-13T16:13:45.057673072+00:00', (''), (''), 'zoo.dev beta', 'zoo.dev', '');
FILE_SCHEMA(('AP242_MANAGED_MODEL_BASED_3D_ENGINEERING_MIM_LF'));
ENDSEC;
DATA;
#1 = (
  LENGTH_UNIT()
  NAMED_UNIT(*)
  SI_UNIT(.MILLI., .METRE.)
);
#2 = (
  NAMED_UNIT(*)
  PLANE_ANGLE_UNIT()
  SI_UNIT($, .RADIAN.)
);
#3 = UNCERTAINTY_MEASURE_WITH_UNIT(LENGTH_MEASURE(0.01), #1, 'DISTANCE_ACCURACY_VALUE', $);
#4 = (
  GEOMETRIC_REPRESENTATION_CONTEXT(3)
  GLOBAL_UNCERTAINTY_ASSIGNED_CONTEXT((#3))
  GLOBAL_UNIT_ASSIGNED_CONTEXT((#1, #2))
  REPRESENTATION_CONTEXT('3D', '3D context')
);
#5 = CARTESIAN_POINT('', (27.75098545, 164.30408836, 180.));
#6 = VERTEX_POINT('', #5);
#7 = CARTESIAN_POINT('', (164.838, 24.38, -180.));
#8 = VERTEX_POINT('', #7);
#9 = CARTESIAN_POINT('', (31.4468391, 165.38806012, 180.));
#10 = VERTEX_POINT('', #9);
#11 = CARTESIAN_POINT('', (167.011, 21.2, -180.));
#12 = VERTEX_POINT('', #11);
#13 = CARTESIAN_POINT('', (40.21970306, 166.66141868, 180.));
#14 = VERTEX_POINT('', #13);
#15 = CARTESIAN_POINT('', (170.933, 13.25, -180.));
#16 = VERTEX_POINT('', #15);
#17 = CARTESIAN_POINT('', (53.45994003, 164.53277732, 180.));
#18 = VERTEX_POINT('', #17);
#19 = CARTESIAN_POINT('', (173., 0., -180.));
#20 = VERTEX_POINT('', #19);
#21 = CARTESIAN_POINT('', (60.95532773, 161.87446823, 180.));
#22 = VERTEX_POINT('', #21);
#23 = CARTESIAN_POINT('', (172.788, -7.95, -180.));
#24 = VERTEX_POINT('', #23);
#25 = CARTESIAN_POINT('', (68.13953532, 158.25844523, 180.));
#26 = VERTEX_POINT('', #25);
#27 = CARTESIAN_POINT('', (171.569, -15.9, -180.));
#28 = VERTEX_POINT('', #27);
#29 = CARTESIAN_POINT('', (72.78706524, 155.41091127, 180.));
#30 = VERTEX_POINT('', #29);
#31 = CARTESIAN_POINT('', (170.297, -21.2, -180.));
#32 = VERTEX_POINT('', #31);
#33 = CARTESIAN_POINT('', (77.36908355, 152.36175333, 180.));
#34 = VERTEX_POINT('', #33);
#35 = CARTESIAN_POINT('', (168.813, -26.5, -180.));
#36 = VERTEX_POINT('', #35);
#37 = CARTESIAN_POINT('', (73.45124923, 154.02482736, 180.));
#38 = VERTEX_POINT('', #37);
#39 = CARTESIAN_POINT('', (169.184, -22.26, -180.));
#40 = VERTEX_POINT('', #39);
#41 = CARTESIAN_POINT('', (66.42716568, 156.41854545, 180.));
#42 = VERTEX_POINT('', #41);
#43 = CARTESIAN_POINT('', (169.29, -14.84, -180.));
#44 = VERTEX_POINT('', #43);
#45 = CARTESIAN_POINT('', (58.28031692, 158.78697958, 180.));
#46 = VERTEX_POINT('', #45);
#47 = CARTESIAN_POINT('', (169.025, -6.36, -180.));
#48 = VERTEX_POINT('', #47);
#49 = CARTESIAN_POINT('', (50.58473944, 159.11405186, 180.));
#50 = VERTEX_POINT('', #49);
#51 = CARTESIAN_POINT('', (166.958, 1.06, -180.));
#52 = VERTEX_POINT('', #51);
#53 = CARTESIAN_POINT('', (42.89822993, 156.03880041, 180.));
#54 = VERTEX_POINT('', #53);
#55 = CARTESIAN_POINT('', (161.658, 7.42, -180.));
#56 = VERTEX_POINT('', #55);
#57 = CARTESIAN_POINT('', (33.2773701, 153.87069496, 180.));
#58 = VERTEX_POINT('', #57);
#59 = CARTESIAN_POINT('', (156.623, 15.9, -180.));
#60 = VERTEX_POINT('', #59);
#61 = CARTESIAN_POINT('', (28.12212526, 155.15564306, 180.));
#62 = VERTEX_POINT('', #61);
#63 = CARTESIAN_POINT('', (156.252, 21.2, -180.));
#64 = VERTEX_POINT('', #63);
#65 = CARTESIAN_POINT('', (25.86752687, 158.50739889, 180.));
#66 = VERTEX_POINT('', #65);
#67 = CARTESIAN_POINT('', (158.743, 24.38, -180.));
#68 = VERTEX_POINT('', #67);
#69 = CARTESIAN_POINT('', (24.97770724, 160.91416373, 180.));
#70 = VERTEX_POINT('', #69);
#71 = CARTESIAN_POINT('', (160.757, 25.97, -180.));
#72 = VERTEX_POINT('', #71);
#73 = CARTESIAN_POINT('', (24.8339611, 162.18687464, 180.));
#74 = VERTEX_POINT('', #73);
#75 = CARTESIAN_POINT('', (161.923, 26.5, -180.));
#76 = VERTEX_POINT('', #75);
#77 = DIRECTION('', (0.80929772, 0.58739867, 0.));
#78 = VECTOR('', #77, 1.);
#79 = CARTESIAN_POINT('', (24.8339611, 162.18687464, 180.));
#80 = LINE('', #79, #78);
#81 = CARTESIAN_POINT('', (27.75098545, 164.30408836, 180.));
#82 = CARTESIAN_POINT('', (141.75858501, 138.8843153, 0.));
#83 = CARTESIAN_POINT('', (164.838, 24.38, -180.));
#84 = B_SPLINE_CURVE_WITH_KNOTS('', 2, (#81, #82, #83), .UNSPECIFIED., .F., .F., (3, 3), (-1., -0.), .UNSPECIFIED.);
#85 = DIRECTION('', (-0.80873608, 0.5881717, 0.));
#86 = VECTOR('', #85, 1.);
#87 = CARTESIAN_POINT('', (164.838, 24.38, -180.));
#88 = LINE('', #87, #86);
#89 = DIRECTION('', (0.95957917, 0.28143883, 0.));
#90 = VECTOR('', #89, 1.);
#91 = CARTESIAN_POINT('', (27.75098545, 164.30408836, 180.));
#92 = LINE('', #91, #90);
#93 = CARTESIAN_POINT('', (31.4468391, 165.38806012, 180.));
#94 = CARTESIAN_POINT('', (146.07846025, 137.34149604, 0.));
#95 = CARTESIAN_POINT('', (167.011, 21.2, -180.));
#96 = B_SPLINE_CURVE_WITH_KNOTS('', 2, (#93, #94, #95), .UNSPECIFIED., .F., .F., (3, 3), (-1., -0.), .UNSPECIFIED.);
#97 = DIRECTION('', (-0.56419051, 0.82564464, 0.));
#98 = VECTOR('', #97, 1.);
#99 = CARTESIAN_POINT('', (167.011, 21.2, -180.));
#100 = LINE('', #99, #98);
#101 = DIRECTION('', (0.98962969, 0.14364219, 0.));
#102 = VECTOR('', #101, 1.);
#103 = CARTESIAN_POINT('', (31.4468391, 165.38806012, 180.));
#104 = LINE('', #103, #102);
#105 = CARTESIAN_POINT('', (40.21970306, 166.66141868, 180.));
#106 = CARTESIAN_POINT('', (155.42274308, 132.42703407, 0.));
#107 = CARTESIAN_POINT('', (170.933, 13.25, -180.));
#108 = B_SPLINE_CURVE_WITH_KNOTS('', 2, (#105, #106, #107), .UNSPECIFIED., .F., .F., (3, 3), (-1., -0.), .UNSPECIFIED.);
#109 = DIRECTION('', (-0.44242424, 0.89680588, 0.));
#110 = VECTOR('', #109, 1.);
#111 = CARTESIAN_POINT('', (170.933, 13.25, -180.));
#112 = LINE('', #111, #110);
#113 = DIRECTION('', (0.98732165, -0.15873233, 0.));
#114 = VECTOR('', #113, 1.);
#115 = CARTESIAN_POINT('', (40.21970306, 166.66141868, 180.));
#116 = LINE('', #115, #114);
#117 = CARTESIAN_POINT('', (53.45994003, 164.53277732, 180.));
#118 = CARTESIAN_POINT('', (166.68991004, 121.10730863, 0.));
#119 = CARTESIAN_POINT('', (173., -0., -180.));
#120 = B_SPLINE_CURVE_WITH_KNOTS('', 2, (#117, #118, #119), .UNSPECIFIED., .F., .F., (3, 3), (-1., -0.), .UNSPECIFIED.);
#121 = DIRECTION('', (-0.15413575, 0.98804968, 0.));
#122 = VECTOR('', #121, 1.);
#123 = CARTESIAN_POINT('', (173., -0., -180.));
#124 = LINE('', #123, #122);
#125 = DIRECTION('', (0.94248102, -0.33425967, 0.));
#126 = VECTOR('', #125, 1.);
#127 = CARTESIAN_POINT('', (53.45994003, 164.53277732, 180.));
#128 = LINE('', #127, #126);
#129 = CARTESIAN_POINT('', (60.95532773, 161.87446823, 180.));
#130 = CARTESIAN_POINT('', (172.0509785, 113.29887202, 0.));
#131 = CARTESIAN_POINT('', (172.788, -7.95, -180.));
#132 = B_SPLINE_CURVE_WITH_KNOTS('', 2, (#129, #130, #131), .UNSPECIFIED., .F., .F., (3, 3), (-1., -0.), .UNSPECIFIED.);
#133 = DIRECTION('', (0.02665719, 0.99964463, 0.));
#134 = VECTOR('', #133, 1.);
#135 = CARTESIAN_POINT('', (172.788, -7.95, -180.));
#136 = LINE('', #135, #134);
#137 = DIRECTION('', (0.89323445, -0.44959117, 0.));
#138 = VECTOR('', #137, 1.);
#139 = CARTESIAN_POINT('', (60.95532773, 161.87446823, 180.));
#140 = LINE('', #139, #138);
#141 = CARTESIAN_POINT('', (68.13953532, 158.25844523, 180.));
#142 = CARTESIAN_POINT('', (176.44177678, 104.78549286, 0.));
#143 = CARTESIAN_POINT('', (171.569, -15.9, -180.));
#144 = B_SPLINE_CURVE_WITH_KNOTS('', 2, (#141, #142, #143), .UNSPECIFIED., .F., .F., (3, 3), (-1., -0.), .UNSPECIFIED.);
#145 = DIRECTION('', (0.15156199, 0.98844775, 0.));
#146 = VECTOR('', #145, 1.);
#147 = CARTESIAN_POINT('', (171.569, -15.9, -180.));
#148 = LINE('', #147, #146);
#149 = DIRECTION('', (0.85267907, -0.52243507, 0.));
#150 = VECTOR('', #149, 1.);
#151 = CARTESIAN_POINT('', (68.13953532, 158.25844523, 180.));
#152 = LINE('', #151, #150);
#153 = CARTESIAN_POINT('', (72.78706524, 155.41091127, 180.));
#154 = CARTESIAN_POINT('', (178.92639626, 98.78835402, 0.));
#155 = CARTESIAN_POINT('', (170.297, -21.2, -180.));
#156 = B_SPLINE_CURVE_WITH_KNOTS('', 2, (#153, #154, #155), .UNSPECIFIED., .F., .F., (3, 3), (-1., -0.), .UNSPECIFIED.);
#157 = DIRECTION('', (0.23337295, 0.9723873, 0.));
#158 = VECTOR('', #157, 1.);
#159 = CARTESIAN_POINT('', (170.297, -21.2, -180.));
#160 = LINE('', #159, #158);
#161 = DIRECTION('', (0.83251298, -0.55400554, 0.));
#162 = VECTOR('', #161, 1.);
#163 = CARTESIAN_POINT('', (72.78706524, 155.41091127, 180.));
#164 = LINE('', #163, #162);
#165 = CARTESIAN_POINT('', (77.36908355, 152.36175333, 180.));
#166 = CARTESIAN_POINT('', (181.20674834, 92.64280622, 0.));
#167 = CARTESIAN_POINT('', (168.813, -26.5, -180.));
#168 = B_SPLINE_CURVE_WITH_KNOTS('', 2, (#165, #166, #167), .UNSPECIFIED., .F., .F., (3, 3), (-1., -0.), .UNSPECIFIED.);
#169 = DIRECTION('', (0.26962993, 0.96296402, 0.));
#170 = VECTOR('', #169, 1.);
#171 = CARTESIAN_POINT('', (168.813, -26.5, -180.));
#172 = LINE('', #171, #170);
#173 = DIRECTION('', (-0.92050046, 0.39074148, 0.));
#174 = VECTOR('', #173, 1.);
#175 = CARTESIAN_POINT('', (77.36908355, 152.36175333, 180.));
#176 = LINE('', #175, #174);
#177 = CARTESIAN_POINT('', (73.45124923, 154.02482736, 180.));
#178 = CARTESIAN_POINT('', (178.59603717, 96.98786998, 0.));
#179 = CARTESIAN_POINT('', (169.184, -22.26, -180.));
#180 = B_SPLINE_CURVE_WITH_KNOTS('', 2, (#177, #178, #179), .UNSPECIFIED., .F., .F., (3, 3), (-1., -0.), .UNSPECIFIED.);
#181 = DIRECTION('', (-0.08716695, -0.99619372, 0.));
#182 = VECTOR('', #181, 1.);
#183 = CARTESIAN_POINT('', (169.184, -22.26, -180.));
#184 = LINE('', #183, #182);
#185 = DIRECTION('', (-0.94654541, 0.3225706, 0.));
#186 = VECTOR('', #185, 1.);
#187 = CARTESIAN_POINT('', (73.45124923, 154.02482736, 180.));
#188 = LINE('', #187, #186);
#189 = CARTESIAN_POINT('', (66.42716568, 156.41854545, 180.));
#190 = CARTESIAN_POINT('', (173.5038574, 104.2114336, 0.));
#191 = CARTESIAN_POINT('', (169.29, -14.84, -180.));
#192 = B_SPLINE_CURVE_WITH_KNOTS('', 2, (#189, #190, #191), .UNSPECIFIED., .F., .F., (3, 3), (-1., -0.), .UNSPECIFIED.);
#193 = DIRECTION('', (-0.01428426, -0.99989797, 0.));
#194 = VECTOR('', #193, 1.);
#195 = CARTESIAN_POINT('', (169.29, -14.84, -180.));
#196 = LINE('', #195, #194);
#197 = DIRECTION('', (-0.96024454, 0.2791602, 0.));
#198 = VECTOR('', #197, 1.);
#199 = CARTESIAN_POINT('', (66.42716568, 156.41854545, 180.));
#200 = LINE('', #199, #198);
#201 = CARTESIAN_POINT('', (58.28031692, 158.78697958, 180.));
#202 = CARTESIAN_POINT('', (167.3121649, 112.19661858, 0.));
#203 = CARTESIAN_POINT('', (169.025, -6.36, -180.));
#204 = B_SPLINE_CURVE_WITH_KNOTS('', 2, (#201, #202, #203), .UNSPECIFIED., .F., .F., (3, 3), (-1., -0.), .UNSPECIFIED.);
#205 = DIRECTION('', (0.03123475, -0.99951208, 0.));
#206 = VECTOR('', #205, 1.);
#207 = CARTESIAN_POINT('', (169.025, -6.36, -180.));
#208 = LINE('', #207, #206);
#209 = DIRECTION('', (-0.99909804, 0.042463, 0.));
#210 = VECTOR('', #209, 1.);
#211 = CARTESIAN_POINT('', (58.28031692, 158.78697958, 180.));
#212 = LINE('', #211, #210);
#213 = CARTESIAN_POINT('', (50.58473944, 159.11405186, 180.));
#214 = CARTESIAN_POINT('', (160.12624424, 117.8989904, 0.));
#215 = CARTESIAN_POINT('', (166.958, 1.06, -180.));
#216 = B_SPLINE_CURVE_WITH_KNOTS('', 2, (#213, #214, #215), .UNSPECIFIED., .F., .F., (3, 3), (-1., -0.), .UNSPECIFIED.);
#217 = DIRECTION('', (0.26835356, -0.96332049, 0.));
#218 = VECTOR('', #217, 1.);
#219 = CARTESIAN_POINT('', (166.958, 1.06, -180.));
#220 = LINE('', #219, #218);
#221 = DIRECTION('', (-0.92844971, -0.37145811, 0.));
#222 = VECTOR('', #221, 1.);
#223 = CARTESIAN_POINT('', (50.58473944, 159.11405186, 180.));
#224 = LINE('', #223, #222);
#225 = CARTESIAN_POINT('', (42.89822993, 156.03880041, 180.));
#226 = CARTESIAN_POINT('', (150.56729045, 120.31678862, 0.));
#227 = CARTESIAN_POINT('', (161.658, 7.42, -180.));
#228 = B_SPLINE_CURVE_WITH_KNOTS('', 2, (#225, #226, #227), .UNSPECIFIED., .F., .F., (3, 3), (-1., -0.), .UNSPECIFIED.);
#229 = DIRECTION('', (0.6401844, -0.76822128, 0.));
#230 = VECTOR('', #229, 1.);
#231 = CARTESIAN_POINT('', (161.658, 7.42, -180.));
#232 = LINE('', #231, #230);
#233 = DIRECTION('', (-0.97553561, -0.21984148, 0.));
#234 = VECTOR('', #233, 1.);
#235 = CARTESIAN_POINT('', (42.89822993, 156.03880041, 180.));
#236 = LINE('', #235, #234);
#237 = CARTESIAN_POINT('', (33.2773701, 153.87069496, 180.));
#238 = CARTESIAN_POINT('', (139.77958135, 124.96277208, 0.));
#239 = CARTESIAN_POINT('', (156.623, 15.9, -180.));
#240 = B_SPLINE_CURVE_WITH_KNOTS('', 2, (#237, #238, #239), .UNSPECIFIED., .F., .F., (3, 3), (-1., -0.), .UNSPECIFIED.);
#241 = DIRECTION('', (0.51053875, -0.85985474, 0.));
#242 = VECTOR('', #241, 1.);
#243 = CARTESIAN_POINT('', (156.623, 15.9, -180.));
#244 = LINE('', #243, #242);
#245 = DIRECTION('', (-0.97031334, 0.24185123, 0.));
#246 = VECTOR('', #245, 1.);
#247 = CARTESIAN_POINT('', (33.2773701, 153.87069496, 180.));
#248 = LINE('', #247, #246);
#249 = CARTESIAN_POINT('', (28.12212526, 155.15564306, 180.));
#250 = CARTESIAN_POINT('', (135.71188948, 129.80974151, 0.));
#251 = CARTESIAN_POINT('', (156.252, 21.2, -180.));
#252 = B_SPLINE_CURVE_WITH_KNOTS('', 2, (#249, #250, #251), .UNSPECIFIED., .F., .F., (3, 3), (-1., -0.), .UNSPECIFIED.);
#253 = DIRECTION('', (0.06982913, -0.99755897, 0.));
#254 = VECTOR('', #253, 1.);
#255 = CARTESIAN_POINT('', (156.252, 21.2, -180.));
#256 = LINE('', #255, #254);
#257 = DIRECTION('', (-0.55813934, 0.82974724, 0.));
#258 = VECTOR('', #257, 1.);
#259 = CARTESIAN_POINT('', (28.12212526, 155.15564306, 180.));
#260 = LINE('', #259, #258);
#261 = CARTESIAN_POINT('', (25.86752687, 158.50739889, 180.));
#262 = CARTESIAN_POINT('', (135.88589714, 134.61755781, 0.));
#263 = CARTESIAN_POINT('', (158.743, 24.38, -180.));
#264 = B_SPLINE_CURVE_WITH_KNOTS('', 2, (#261, #262, #263), .UNSPECIFIED., .F., .F., (3, 3), (-1., -0.), .UNSPECIFIED.);
#265 = DIRECTION('', (-0.61666198, -0.78722805, 0.));
#266 = VECTOR('', #265, 1.);
#267 = CARTESIAN_POINT('', (158.743, 24.38, -180.));
#268 = LINE('', #267, #266);
#269 = DIRECTION('', (-0.34677463, 0.93794848, 0.));
#270 = VECTOR('', #269, 1.);
#271 = CARTESIAN_POINT('', (25.86752687, 158.50739889, 180.));
#272 = LINE('', #271, #270);
#273 = CARTESIAN_POINT('', (24.97770724, 160.91416373, 180.));
#274 = CARTESIAN_POINT('', (136.71337031, 137.55944843, 0.));
#275 = CARTESIAN_POINT('', (160.757, 25.97, -180.));
#276 = B_SPLINE_CURVE_WITH_KNOTS('', 2, (#273, #274, #275), .UNSPECIFIED., .F., .F., (3, 3), (-1., -0.), .UNSPECIFIED.);
#277 = DIRECTION('', (-0.78488277, -0.61964429, 0.));
#278 = VECTOR('', #277, 1.);
#279 = CARTESIAN_POINT('', (160.757, 25.97, -180.));
#280 = LINE('', #279, #278);
#281 = DIRECTION('', (-0.11223127, 0.99368211, 0.));
#282 = VECTOR('', #281, 1.);
#283 = CARTESIAN_POINT('', (24.97770724, 160.91416373, 180.));
#284 = LINE('', #283, #282);
#285 = CARTESIAN_POINT('', (24.8339611, 162.18687464, 180.));
#286 = CARTESIAN_POINT('', (137.46581864, 138.8863662, 0.));
#287 = CARTESIAN_POINT('', (161.923, 26.5, -180.));
#288 = B_SPLINE_CURVE_WITH_KNOTS('', 2, (#285, #286, #287), .UNSPECIFIED., .F., .F., (3, 3), (-1., -0.), .UNSPECIFIED.);
#289 = DIRECTION('', (-0.91036648, -0.41380294, 0.));
#290 = VECTOR('', #289, 1.);
#291 = CARTESIAN_POINT('', (161.923, 26.5, -180.));
#292 = LINE('', #291, #290);
#293 = EDGE_CURVE('', #74, #6, #80, .T.);
#294 = EDGE_CURVE('', #6, #8, #84, .T.);
#295 = EDGE_CURVE('', #8, #76, #88, .T.);
#296 = EDGE_CURVE('', #6, #10, #92, .T.);
#297 = EDGE_CURVE('', #10, #12, #96, .T.);
#298 = EDGE_CURVE('', #12, #8, #100, .T.);
#299 = EDGE_CURVE('', #10, #14, #104, .T.);
#300 = EDGE_CURVE('', #14, #16, #108, .T.);
#301 = EDGE_CURVE('', #16, #12, #112, .T.);
#302 = EDGE_CURVE('', #14, #18, #116, .T.);
#303 = EDGE_CURVE('', #18, #20, #120, .T.);
#304 = EDGE_CURVE('', #20, #16, #124, .T.);
#305 = EDGE_CURVE('', #18, #22, #128, .T.);
#306 = EDGE_CURVE('', #22, #24, #132, .T.);
#307 = EDGE_CURVE('', #24, #20, #136, .T.);
#308 = EDGE_CURVE('', #22, #26, #140, .T.);
#309 = EDGE_CURVE('', #26, #28, #144, .T.);
#310 = EDGE_CURVE('', #28, #24, #148, .T.);
#311 = EDGE_CURVE('', #26, #30, #152, .T.);
#312 = EDGE_CURVE('', #30, #32, #156, .T.);
#313 = EDGE_CURVE('', #32, #28, #160, .T.);
#314 = EDGE_CURVE('', #30, #34, #164, .T.);
#315 = EDGE_CURVE('', #34, #36, #168, .T.);
#316 = EDGE_CURVE('', #36, #32, #172, .T.);
#317 = EDGE_CURVE('', #34, #38, #176, .T.);
#318 = EDGE_CURVE('', #38, #40, #180, .T.);
#319 = EDGE_CURVE('', #40, #36, #184, .T.);
#320 = EDGE_CURVE('', #38, #42, #188, .T.);
#321 = EDGE_CURVE('', #42, #44, #192, .T.);
#322 = EDGE_CURVE('', #44, #40, #196, .T.);
#323 = EDGE_CURVE('', #42, #46, #200, .T.);
#324 = EDGE_CURVE('', #46, #48, #204, .T.);
#325 = EDGE_CURVE('', #48, #44, #208, .T.);
#326 = EDGE_CURVE('', #46, #50, #212, .T.);
#327 = EDGE_CURVE('', #50, #52, #216, .T.);
#328 = EDGE_CURVE('', #52, #48, #220, .T.);
#329 = EDGE_CURVE('', #50, #54, #224, .T.);
#330 = EDGE_CURVE('', #54, #56, #228, .T.);
#331 = EDGE_CURVE('', #56, #52, #232, .T.);
#332 = EDGE_CURVE('', #54, #58, #236, .T.);
#333 = EDGE_CURVE('', #58, #60, #240, .T.);
#334 = EDGE_CURVE('', #60, #56, #244, .T.);
#335 = EDGE_CURVE('', #58, #62, #248, .T.);
#336 = EDGE_CURVE('', #62, #64, #252, .T.);
#337 = EDGE_CURVE('', #64, #60, #256, .T.);
#338 = EDGE_CURVE('', #62, #66, #260, .T.);
#339 = EDGE_CURVE('', #66, #68, #264, .T.);
#340 = EDGE_CURVE('', #68, #64, #268, .T.);
#341 = EDGE_CURVE('', #66, #70, #272, .T.);
#342 = EDGE_CURVE('', #70, #72, #276, .T.);
#343 = EDGE_CURVE('', #72, #68, #280, .T.);
#344 = EDGE_CURVE('', #70, #74, #284, .T.);
#345 = EDGE_CURVE('', #74, #76, #288, .T.);
#346 = EDGE_CURVE('', #76, #72, #292, .T.);
#347 = CARTESIAN_POINT('', (161.923, 26.5, -180.));
#348 = CARTESIAN_POINT('', (164.838, 24.38, -180.));
#349 = CARTESIAN_POINT('', (137.46581864, 138.8863662, 0.));
#350 = CARTESIAN_POINT('', (141.75858501, 138.8843153, 0.));
#351 = CARTESIAN_POINT('', (24.8339611, 162.18687464, 180.));
#352 = CARTESIAN_POINT('', (27.75098545, 164.30408836, 180.));
#353 = B_SPLINE_SURFACE_WITH_KNOTS('', 2, 1, ((#347, #348), (#349, #350), (#351, #352)), .UNSPECIFIED., .F., .F., .F., (3, 3), (2, 2), (0., 1.), (0., 1.), .UNSPECIFIED.);
#354 = CARTESIAN_POINT('', (164.838, 24.38, -180.));
#355 = CARTESIAN_POINT('', (167.011, 21.2, -180.));
#356 = CARTESIAN_POINT('', (141.75858501, 138.8843153, 0.));
#357 = CARTESIAN_POINT('', (146.07846025, 137.34149604, 0.));
#358 = CARTESIAN_POINT('', (27.75098545, 164.30408836, 180.));
#359 = CARTESIAN_POINT('', (31.4468391, 165.38806012, 180.));
#360 = B_SPLINE_SURFACE_WITH_KNOTS('', 2, 1, ((#354, #355), (#356, #357), (#358, #359)), .UNSPECIFIED., .F., .F., .F., (3, 3), (2, 2), (0., 1.), (0., 1.), .UNSPECIFIED.);
#361 = CARTESIAN_POINT('', (167.011, 21.2, -180.));
#362 = CARTESIAN_POINT('', (170.933, 13.25, -180.));
#363 = CARTESIAN_POINT('', (146.07846025, 137.34149604, 0.));
#364 = CARTESIAN_POINT('', (155.42274308, 132.42703407, 0.));
#365 = CARTESIAN_POINT('', (31.4468391, 165.38806012, 180.));
#366 = CARTESIAN_POINT('', (40.21970306, 166.66141868, 180.));
#367 = B_SPLINE_SURFACE_WITH_KNOTS('', 2, 1, ((#361, #362), (#363, #364), (#365, #366)), .UNSPECIFIED., .F., .F., .F., (3, 3), (2, 2), (0., 1.), (0., 1.), .UNSPECIFIED.);
#368 = CARTESIAN_POINT('', (170.933, 13.25, -180.));
#369 = CARTESIAN_POINT('', (173., -0., -180.));
#370 = CARTESIAN_POINT('', (155.42274308, 132.42703407, 0.));
#371 = CARTESIAN_POINT('', (166.68991004, 121.10730863, 0.));
#372 = CARTESIAN_POINT('', (40.21970306, 166.66141868, 180.));
#373 = CARTESIAN_POINT('', (53.45994003, 164.53277732, 180.));
#374 = B_SPLINE_SURFACE_WITH_KNOTS('', 2, 1, ((#368, #369), (#370, #371), (#372, #373)), .UNSPECIFIED., .F., .F., .F., (3, 3), (2, 2), (0., 1.), (0., 1.), .UNSPECIFIED.);
#375 = CARTESIAN_POINT('', (173., -0., -180.));
#376 = CARTESIAN_POINT('', (172.788, -7.95, -180.));
#377 = CARTESIAN_POINT('', (166.68991004, 121.10730863, 0.));
#378 = CARTESIAN_POINT('', (172.0509785, 113.29887202, 0.));
#379 = CARTESIAN_POINT('', (53.45994003, 164.53277732, 180.));
#380 = CARTESIAN_POINT('', (60.95532773, 161.87446823, 180.));
#381 = B_SPLINE_SURFACE_WITH_KNOTS('', 2, 1, ((#375, #376), (#377, #378), (#379, #380)), .UNSPECIFIED., .F., .F., .F., (3, 3), (2, 2), (0., 1.), (0., 1.), .UNSPECIFIED.);
#382 = CARTESIAN_POINT('', (172.788, -7.95, -180.));
#383 = CARTESIAN_POINT('', (171.569, -15.9, -180.));
#384 = CARTESIAN_POINT('', (172.0509785, 113.29887202, 0.));
#385 = CARTESIAN_POINT('', (176.44177678, 104.78549286, 0.));
#386 = CARTESIAN_POINT('', (60.95532773, 161.87446823, 180.));
#387 = CARTESIAN_POINT('', (68.13953532, 158.25844523, 180.));
#388 = B_SPLINE_SURFACE_WITH_KNOTS('', 2, 1, ((#382, #383), (#384, #385), (#386, #387)), .UNSPECIFIED., .F., .F., .F., (3, 3), (2, 2), (0., 1.), (0., 1.), .UNSPECIFIED.);
#389 = CARTESIAN_POINT('', (171.569, -15.9, -180.));
#390 = CARTESIAN_POINT('', (170.297, -21.2, -180.));
#391 = CARTESIAN_POINT('', (176.44177678, 104.78549286, 0.));
#392 = CARTESIAN_POINT('', (178.92639626, 98.78835402, 0.));
#393 = CARTESIAN_POINT('', (68.13953532, 158.25844523, 180.));
#394 = CARTESIAN_POINT('', (72.78706524, 155.41091127, 180.));
#395 = B_SPLINE_SURFACE_WITH_KNOTS('', 2, 1, ((#389, #390), (#391, #392), (#393, #394)), .UNSPECIFIED., .F., .F., .F., (3, 3), (2, 2), (0., 1.), (0., 1.), .UNSPECIFIED.);
#396 = CARTESIAN_POINT('', (170.297, -21.2, -180.));
#397 = CARTESIAN_POINT('', (168.813, -26.5, -180.));
#398 = CARTESIAN_POINT('', (178.92639626, 98.78835402, 0.));
#399 = CARTESIAN_POINT('', (181.20674834, 92.64280622, 0.));
#400 = CARTESIAN_POINT('', (72.78706524, 155.41091127, 180.));
#401 = CARTESIAN_POINT('', (77.36908355, 152.36175333, 180.));
#402 = B_SPLINE_SURFACE_WITH_KNOTS('', 2, 1, ((#396, #397), (#398, #399), (#400, #401)), .UNSPECIFIED., .F., .F., .F., (3, 3), (2, 2), (0., 1.), (0., 1.), .UNSPECIFIED.);
#403 = CARTESIAN_POINT('', (168.813, -26.5, -180.));
#404 = CARTESIAN_POINT('', (169.184, -22.26, -180.));
#405 = CARTESIAN_POINT('', (181.20674834, 92.64280622, 0.));
#406 = CARTESIAN_POINT('', (178.59603717, 96.98786998, 0.));
#407 = CARTESIAN_POINT('', (77.36908355, 152.36175333, 180.));
#408 = CARTESIAN_POINT('', (73.45124923, 154.02482736, 180.));
#409 = B_SPLINE_SURFACE_WITH_KNOTS('', 2, 1, ((#403, #404), (#405, #406), (#407, #408)), .UNSPECIFIED., .F., .F., .F., (3, 3), (2, 2), (0., 1.), (0., 1.), .UNSPECIFIED.);
#410 = CARTESIAN_POINT('', (169.184, -22.26, -180.));
#411 = CARTESIAN_POINT('', (169.29, -14.84, -180.));
#412 = CARTESIAN_POINT('', (178.59603717, 96.98786998, 0.));
#413 = CARTESIAN_POINT('', (173.5038574, 104.2114336, 0.));
#414 = CARTESIAN_POINT('', (73.45124923, 154.02482736, 180.));
#415 = CARTESIAN_POINT('', (66.42716568, 156.41854545, 180.));
#416 = B_SPLINE_SURFACE_WITH_KNOTS('', 2, 1, ((#410, #411), (#412, #413), (#414, #415)), .UNSPECIFIED., .F., .F., .F., (3, 3), (2, 2), (0., 1.), (0., 1.), .UNSPECIFIED.);
#417 = CARTESIAN_POINT('', (169.29, -14.84, -180.));
#418 = CARTESIAN_POINT('', (169.025, -6.36, -180.));
#419 = CARTESIAN_POINT('', (173.5038574, 104.2114336, 0.));
#420 = CARTESIAN_POINT('', (167.3121649, 112.19661858, 0.));
#421 = CARTESIAN_POINT('', (66.42716568, 156.41854545, 180.));
#422 = CARTESIAN_POINT('', (58.28031692, 158.78697958, 180.));
#423 = B_SPLINE_SURFACE_WITH_KNOTS('', 2, 1, ((#417, #418), (#419, #420), (#421, #422)), .UNSPECIFIED., .F., .F., .F., (3, 3), (2, 2), (0., 1.), (0., 1.), .UNSPECIFIED.);
#424 = CARTESIAN_POINT('', (169.025, -6.36, -180.));
#425 = CARTESIAN_POINT('', (166.958, 1.06, -180.));
#426 = CARTESIAN_POINT('', (167.3121649, 112.19661858, 0.));
#427 = CARTESIAN_POINT('', (160.12624424, 117.8989904, 0.));
#428 = CARTESIAN_POINT('', (58.28031692, 158.78697958, 180.));
#429 = CARTESIAN_POINT('', (50.58473944, 159.11405186, 180.));
#430 = B_SPLINE_SURFACE_WITH_KNOTS('', 2, 1, ((#424, #425), (#426, #427), (#428, #429)), .UNSPECIFIED., .F., .F., .F., (3, 3), (2, 2), (0., 1.), (0., 1.), .UNSPECIFIED.);
#431 = CARTESIAN_POINT('', (166.958, 1.06, -180.));
#432 = CARTESIAN_POINT('', (161.658, 7.42, -180.));
#433 = CARTESIAN_POINT('', (160.12624424, 117.8989904, 0.));
#434 = CARTESIAN_POINT('', (150.56729045, 120.31678862, 0.));
#435 = CARTESIAN_POINT('', (50.58473944, 159.11405186, 180.));
#436 = CARTESIAN_POINT('', (42.89822993, 156.03880041, 180.));
#437 = B_SPLINE_SURFACE_WITH_KNOTS('', 2, 1, ((#431, #432), (#433, #434), (#435, #436)), .UNSPECIFIED., .F., .F., .F., (3, 3), (2, 2), (0., 1.), (0., 1.), .UNSPECIFIED.);
#438 = CARTESIAN_POINT('', (161.658, 7.42, -180.));
#439 = CARTESIAN_POINT('', (156.623, 15.9, -180.));
#440 = CARTESIAN_POINT('', (150.56729045, 120.31678862, 0.));
#441 = CARTESIAN_POINT('', (139.77958135, 124.96277208, 0.));
#442 = CARTESIAN_POINT('', (42.89822993, 156.03880041, 180.));
#443 = CARTESIAN_POINT('', (33.2773701, 153.87069496, 180.));
#444 = B_SPLINE_SURFACE_WITH_KNOTS('', 2, 1, ((#438, #439), (#440, #441), (#442, #443)), .UNSPECIFIED., .F., .F., .F., (3, 3), (2, 2), (0., 1.), (0., 1.), .UNSPECIFIED.);
#445 = CARTESIAN_POINT('', (156.623, 15.9, -180.));
#446 = CARTESIAN_POINT('', (156.252, 21.2, -180.));
#447 = CARTESIAN_POINT('', (139.77958135, 124.96277208, 0.));
#448 = CARTESIAN_POINT('', (135.71188948, 129.80974151, 0.));
#449 = CARTESIAN_POINT('', (33.2773701, 153.87069496, 180.));
#450 = CARTESIAN_POINT('', (28.12212526, 155.15564306, 180.));
#451 = B_SPLINE_SURFACE_WITH_KNOTS('', 2, 1, ((#445, #446), (#447, #448), (#449, #450)), .UNSPECIFIED., .F., .F., .F., (3, 3), (2, 2), (0., 1.), (0., 1.), .UNSPECIFIED.);
#452 = CARTESIAN_POINT('', (156.252, 21.2, -180.));
#453 = CARTESIAN_POINT('', (158.743, 24.38, -180.));
#454 = CARTESIAN_POINT('', (135.71188948, 129.80974151, 0.));
#455 = CARTESIAN_POINT('', (135.88589714, 134.61755781, 0.));
#456 = CARTESIAN_POINT('', (28.12212526, 155.15564306, 180.));
#457 = CARTESIAN_POINT('', (25.86752687, 158.50739889, 180.));
#458 = B_SPLINE_SURFACE_WITH_KNOTS('', 2, 1, ((#452, #453), (#454, #455), (#456, #457)), .UNSPECIFIED., .F., .F., .F., (3, 3), (2, 2), (0., 1.), (0., 1.), .UNSPECIFIED.);
#459 = CARTESIAN_POINT('', (158.743, 24.38, -180.));
#460 = CARTESIAN_POINT('', (160.757, 25.97, -180.));
#461 = CARTESIAN_POINT('', (135.88589714, 134.61755781, 0.));
#462 = CARTESIAN_POINT('', (136.71337031, 137.55944843, 0.));
#463 = CARTESIAN_POINT('', (25.86752687, 158.50739889, 180.));
#464 = CARTESIAN_POINT('', (24.97770724, 160.91416373, 180.));
#465 = B_SPLINE_SURFACE_WITH_KNOTS('', 2, 1, ((#459, #460), (#461, #462), (#463, #464)), .UNSPECIFIED., .F., .F., .F., (3, 3), (2, 2), (0., 1.), (0., 1.), .UNSPECIFIED.);
#466 = CARTESIAN_POINT('', (160.757, 25.97, -180.));
#467 = CARTESIAN_POINT('', (161.923, 26.5, -180.));
#468 = CARTESIAN_POINT('', (136.71337031, 137.55944843, 0.));
#469 = CARTESIAN_POINT('', (137.46581864, 138.8863662, 0.));
#470 = CARTESIAN_POINT('', (24.97770724, 160.91416373, 180.));
#471 = CARTESIAN_POINT('', (24.8339611, 162.18687464, 180.));
#472 = B_SPLINE_SURFACE_WITH_KNOTS('', 2, 1, ((#466, #467), (#468, #469), (#470, #471)), .UNSPECIFIED., .F., .F., .F., (3, 3), (2, 2), (0., 1.), (0., 1.), .UNSPECIFIED.);
#473 = CARTESIAN_POINT('', (0., 0., -180.));
#474 = DIRECTION('', (0., -0., 1.));
#475 = AXIS2_PLACEMENT_3D('', #473, #474, $);
#476 = PLANE('', #475);
#477 = CARTESIAN_POINT('', (0., 0., 180.));
#478 = DIRECTION('', (0., -0., 1.));
#479 = AXIS2_PLACEMENT_3D('', #477, #478, $);
#480 = PLANE('', #479);
#481 = ORIENTED_EDGE('', *, *, #345, .F.);
#482 = ORIENTED_EDGE('', *, *, #293, .T.);
#483 = ORIENTED_EDGE('', *, *, #294, .T.);
#484 = ORIENTED_EDGE('', *, *, #295, .T.);
#485 = EDGE_LOOP('', (#481, #482, #483, #484));
#486 = FACE_BOUND('', #485, .T.);
#487 = ADVANCED_FACE('', (#486), #353, .T.);
#488 = ORIENTED_EDGE('', *, *, #294, .F.);
#489 = ORIENTED_EDGE('', *, *, #296, .T.);
#490 = ORIENTED_EDGE('', *, *, #297, .T.);
#491 = ORIENTED_EDGE('', *, *, #298, .T.);
#492 = EDGE_LOOP('', (#488, #489, #490, #491));
#493 = FACE_BOUND('', #492, .T.);
#494 = ADVANCED_FACE('', (#493), #360, .T.);
#495 = ORIENTED_EDGE('', *, *, #297, .F.);
#496 = ORIENTED_EDGE('', *, *, #299, .T.);
#497 = ORIENTED_EDGE('', *, *, #300, .T.);
#498 = ORIENTED_EDGE('', *, *, #301, .T.);
#499 = EDGE_LOOP('', (#495, #496, #497, #498));
#500 = FACE_BOUND('', #499, .T.);
#501 = ADVANCED_FACE('', (#500), #367, .T.);
#502 = ORIENTED_EDGE('', *, *, #300, .F.);
#503 = ORIENTED_EDGE('', *, *, #302, .T.);
#504 = ORIENTED_EDGE('', *, *, #303, .T.);
#505 = ORIENTED_EDGE('', *, *, #304, .T.);
#506 = EDGE_LOOP('', (#502, #503, #504, #505));
#507 = FACE_BOUND('', #506, .T.);
#508 = ADVANCED_FACE('', (#507), #374, .T.);
#509 = ORIENTED_EDGE('', *, *, #303, .F.);
#510 = ORIENTED_EDGE('', *, *, #305, .T.);
#511 = ORIENTED_EDGE('', *, *, #306, .T.);
#512 = ORIENTED_EDGE('', *, *, #307, .T.);
#513 = EDGE_LOOP('', (#509, #510, #511, #512));
#514 = FACE_BOUND('', #513, .T.);
#515 = ADVANCED_FACE('', (#514), #381, .T.);
#516 = ORIENTED_EDGE('', *, *, #306, .F.);
#517 = ORIENTED_EDGE('', *, *, #308, .T.);
#518 = ORIENTED_EDGE('', *, *, #309, .T.);
#519 = ORIENTED_EDGE('', *, *, #310, .T.);
#520 = EDGE_LOOP('', (#516, #517, #518, #519));
#521 = FACE_BOUND('', #520, .T.);
#522 = ADVANCED_FACE('', (#521), #388, .T.);
#523 = ORIENTED_EDGE('', *, *, #309, .F.);
#524 = ORIENTED_EDGE('', *, *, #311, .T.);
#525 = ORIENTED_EDGE('', *, *, #312, .T.);
#526 = ORIENTED_EDGE('', *, *, #313, .T.);
#527 = EDGE_LOOP('', (#523, #524, #525, #526));
#528 = FACE_BOUND('', #527, .T.);
#529 = ADVANCED_FACE('', (#528), #395, .T.);
#530 = ORIENTED_EDGE('', *, *, #312, .F.);
#531 = ORIENTED_EDGE('', *, *, #314, .T.);
#532 = ORIENTED_EDGE('', *, *, #315, .T.);
#533 = ORIENTED_EDGE('', *, *, #316, .T.);
#534 = EDGE_LOOP('', (#530, #531, #532, #533));
#535 = FACE_BOUND('', #534, .T.);
#536 = ADVANCED_FACE('', (#535), #402, .T.);
#537 = ORIENTED_EDGE('', *, *, #315, .F.);
#538 = ORIENTED_EDGE('', *, *, #317, .T.);
#539 = ORIENTED_EDGE('', *, *, #318, .T.);
#540 = ORIENTED_EDGE('', *, *, #319, .T.);
#541 = EDGE_LOOP('', (#537, #538, #539, #540));
#542 = FACE_BOUND('', #541, .T.);
#543 = ADVANCED_FACE('', (#542), #409, .T.);
#544 = ORIENTED_EDGE('', *, *, #318, .F.);
#545 = ORIENTED_EDGE('', *, *, #320, .T.);
#546 = ORIENTED_EDGE('', *, *, #321, .T.);
#547 = ORIENTED_EDGE('', *, *, #322, .T.);
#548 = EDGE_LOOP('', (#544, #545, #546, #547));
#549 = FACE_BOUND('', #548, .T.);
#550 = ADVANCED_FACE('', (#549), #416, .T.);
#551 = ORIENTED_EDGE('', *, *, #321, .F.);
#552 = ORIENTED_EDGE('', *, *, #323, .T.);
#553 = ORIENTED_EDGE('', *, *, #324, .T.);
#554 = ORIENTED_EDGE('', *, *, #325, .T.);
#555 = EDGE_LOOP('', (#551, #552, #553, #554));
#556 = FACE_BOUND('', #555, .T.);
#557 = ADVANCED_FACE('', (#556), #423, .T.);
#558 = ORIENTED_EDGE('', *, *, #324, .F.);
#559 = ORIENTED_EDGE('', *, *, #326, .T.);
#560 = ORIENTED_EDGE('', *, *, #327, .T.);
#561 = ORIENTED_EDGE('', *, *, #328, .T.);
#562 = EDGE_LOOP('', (#558, #559, #560, #561));
#563 = FACE_BOUND('', #562, .T.);
#564 = ADVANCED_FACE('', (#563), #430, .T.);
#565 = ORIENTED_EDGE('', *, *, #327, .F.);
#566 = ORIENTED_EDGE('', *, *, #329, .T.);
#567 = ORIENTED_EDGE('', *, *, #330, .T.);
#568 = ORIENTED_EDGE('', *, *, #331, .T.);
#569 = EDGE_LOOP('', (#565, #566, #567, #568));
#570 = FACE_BOUND('', #569, .T.);
#571 = ADVANCED_FACE('', (#570), #437, .T.);
#572 = ORIENTED_EDGE('', *, *, #330, .F.);
#573 = ORIENTED_EDGE('', *, *, #332, .T.);
#574 = ORIENTED_EDGE('', *, *, #333, .T.);
#575 = ORIENTED_EDGE('', *, *, #334, .T.);
#576 = EDGE_LOOP('', (#572, #573, #574, #575));
#577 = FACE_BOUND('', #576, .T.);
#578 = ADVANCED_FACE('', (#577), #444, .T.);
#579 = ORIENTED_EDGE('', *, *, #333, .F.);
#580 = ORIENTED_EDGE('', *, *, #335, .T.);
#581 = ORIENTED_EDGE('', *, *, #336, .T.);
#582 = ORIENTED_EDGE('', *, *, #337, .T.);
#583 = EDGE_LOOP('', (#579, #580, #581, #582));
#584 = FACE_BOUND('', #583, .T.);
#585 = ADVANCED_FACE('', (#584), #451, .T.);
#586 = ORIENTED_EDGE('', *, *, #336, .F.);
#587 = ORIENTED_EDGE('', *, *, #338, .T.);
#588 = ORIENTED_EDGE('', *, *, #339, .T.);
#589 = ORIENTED_EDGE('', *, *, #340, .T.);
#590 = EDGE_LOOP('', (#586, #587, #588, #589));
#591 = FACE_BOUND('', #590, .T.);
#592 = ADVANCED_FACE('', (#591), #458, .T.);
#593 = ORIENTED_EDGE('', *, *, #339, .F.);
#594 = ORIENTED_EDGE('', *, *, #341, .T.);
#595 = ORIENTED_EDGE('', *, *, #342, .T.);
#596 = ORIENTED_EDGE('', *, *, #343, .T.);
#597 = EDGE_LOOP('', (#593, #594, #595, #596));
#598 = FACE_BOUND('', #597, .T.);
#599 = ADVANCED_FACE('', (#598), #465, .T.);
#600 = ORIENTED_EDGE('', *, *, #342, .F.);
#601 = ORIENTED_EDGE('', *, *, #344, .T.);
#602 = ORIENTED_EDGE('', *, *, #345, .T.);
#603 = ORIENTED_EDGE('', *, *, #346, .T.);
#604 = EDGE_LOOP('', (#600, #601, #602, #603));
#605 = FACE_BOUND('', #604, .T.);
#606 = ADVANCED_FACE('', (#605), #472, .T.);
#607 = ORIENTED_EDGE('', *, *, #295, .F.);
#608 = ORIENTED_EDGE('', *, *, #298, .F.);
#609 = ORIENTED_EDGE('', *, *, #301, .F.);
#610 = ORIENTED_EDGE('', *, *, #304, .F.);
#611 = ORIENTED_EDGE('', *, *, #307, .F.);
#612 = ORIENTED_EDGE('', *, *, #310, .F.);
#613 = ORIENTED_EDGE('', *, *, #313, .F.);
#614 = ORIENTED_EDGE('', *, *, #316, .F.);
#615 = ORIENTED_EDGE('', *, *, #319, .F.);
#616 = ORIENTED_EDGE('', *, *, #322, .F.);
#617 = ORIENTED_EDGE('', *, *, #325, .F.);
#618 = ORIENTED_EDGE('', *, *, #328, .F.);
#619 = ORIENTED_EDGE('', *, *, #331, .F.);
#620 = ORIENTED_EDGE('', *, *, #334, .F.);
#621 = ORIENTED_EDGE('', *, *, #337, .F.);
#622 = ORIENTED_EDGE('', *, *, #340, .F.);
#623 = ORIENTED_EDGE('', *, *, #343, .F.);
#624 = ORIENTED_EDGE('', *, *, #346, .F.);
#625 = EDGE_LOOP('', (#607, #608, #609, #610, #611, #612, #613, #614, #615, #616, #617, #618, #619, #620, #621, #622, #623, #624));
#626 = FACE_BOUND('', #625, .T.);
#627 = ADVANCED_FACE('', (#626), #476, .F.);
#628 = ORIENTED_EDGE('', *, *, #344, .F.);
#629 = ORIENTED_EDGE('', *, *, #341, .F.);
#630 = ORIENTED_EDGE('', *, *, #338, .F.);
#631 = ORIENTED_EDGE('', *, *, #335, .F.);
#632 = ORIENTED_EDGE('', *, *, #332, .F.);
#633 = ORIENTED_EDGE('', *, *, #329, .F.);
#634 = ORIENTED_EDGE('', *, *, #326, .F.);
#635 = ORIENTED_EDGE('', *, *, #323, .F.);
#636 = ORIENTED_EDGE('', *, *, #320, .F.);
#637 = ORIENTED_EDGE('', *, *, #317, .F.);
#638 = ORIENTED_EDGE('', *, *, #314, .F.);
#639 = ORIENTED_EDGE('', *, *, #311, .F.);
#640 = ORIENTED_EDGE('', *, *, #308, .F.);
#641 = ORIENTED_EDGE('', *, *, #305, .F.);
#642 = ORIENTED_EDGE('', *, *, #302, .F.);
#643 = ORIENTED_EDGE('', *, *, #299, .F.);
#644 = ORIENTED_EDGE('', *, *, #296, .F.);
#645 = ORIENTED_EDGE('', *, *, #293, .F.);
#646 = EDGE_LOOP('', (#628, #629, #630, #631, #632, #633, #634, #635, #636, #637, #638, #639, #640, #641, #642, #643, #644, #645));
#647 = FACE_BOUND('', #646, .T.);
#648 = ADVANCED_FACE('', (#647), #480, .T.);
#649 = CLOSED_SHELL('', (#487, #494, #501, #508, #515, #522, #529, #536, #543, #550, #557, #564, #571, #578, #585, #592, #599, #606, #627, #648));
#650 = MANIFOLD_SOLID_BREP('', #649);
#651 = APPLICATION_CONTEXT('configuration controlled 3D design of mechanical parts and assemblies');
#652 = PRODUCT_DEFINITION_CONTEXT('part definition', #651, 'design');
#653 = PRODUCT_CONTEXT('', #651, 'mechanical');
#654 = PRODUCT('UNIDENTIFIED_PRODUCT', '', $, (#653));
#655 = PRODUCT_DEFINITION_FORMATION('', $, #654);
#656 = PRODUCT_DEFINITION('design', $, #655, #652);
#657 = PRODUCT_DEFINITION_SHAPE('', '', #656);
#658 = ADVANCED_BREP_SHAPE_REPRESENTATION('', (#650), #4);
#659 = SHAPE_DEFINITION_REPRESENTATION(#657, #658);
#660 = COLOUR_RGB('', 0.04313726, 0.45882353, 0.74117649);
#661 = FILL_AREA_STYLE_COLOUR('', #660);
#662 = FILL_AREA_STYLE('', (#661));
#663 = SURFACE_STYLE_FILL_AREA(#662);
#664 = SURFACE_SIDE_STYLE('', (#663));
#665 = SURFACE_STYLE_USAGE(.BOTH., #664);
#666 = PRESENTATION_STYLE_ASSIGNMENT((#665));
#667 = STYLED_ITEM('', (#666), #650);
#668 = MECHANICAL_DESIGN_GEOMETRIC_PRESENTATION_REPRESENTATION('', (#667), #4);
ENDSEC;
END-ISO-10303-21;
