ISO-10303-21;
HEADER;
FILE_DESCRIPTION(('zoo.dev export'), '2;1');
FILE_NAME('output.step', '2026-07-13T14:45:07.464498185+00:00', (''), (''), 'zoo.dev beta', 'zoo.dev', '');
FILE_SCHEMA(('AP242_MANAGED_MODEL_BASED_3D_ENGINEERING_MIM_LF'));
ENDSEC;
DATA;
#1 = (
  LENGTH_UNIT()
  NAMED_UNIT(*)
  SI_UNIT(.MILLI., .METRE.)
);
#2 = (
  NAMED_UNIT(*)
  PLANE_ANGLE_UNIT()
  SI_UNIT($, .RADIAN.)
);
#3 = UNCERTAINTY_MEASURE_WITH_UNIT(LENGTH_MEASURE(0.01), #1, 'DISTANCE_ACCURACY_VALUE', $);
#4 = (
  GEOMETRIC_REPRESENTATION_CONTEXT(3)
  GLOBAL_UNCERTAINTY_ASSIGNED_CONTEXT((#3))
  GLOBAL_UNIT_ASSIGNED_CONTEXT((#1, #2))
  REPRESENTATION_CONTEXT('3D', '3D context')
);
#5 = CARTESIAN_POINT('', (600., 0., -100.));
#6 = VERTEX_POINT('', #5);
#7 = CARTESIAN_POINT('', (600., 0., 1100.));
#8 = VERTEX_POINT('', #7);
#9 = CARTESIAN_POINT('', (35., 0., 0.));
#10 = VERTEX_POINT('', #9);
#11 = CARTESIAN_POINT('', (35., 0., 1000.));
#12 = VERTEX_POINT('', #11);
#13 = CARTESIAN_POINT('', (-35., 0., 0.));
#14 = VERTEX_POINT('', #13);
#15 = CARTESIAN_POINT('', (-35., 0., 1000.));
#16 = VERTEX_POINT('', #15);
#17 = CARTESIAN_POINT('', (100., 0., 90.));
#18 = VERTEX_POINT('', #17);
#19 = CARTESIAN_POINT('', (100., 0., 150.));
#20 = VERTEX_POINT('', #19);
#21 = CARTESIAN_POINT('', (-100., 0., 90.));
#22 = VERTEX_POINT('', #21);
#23 = CARTESIAN_POINT('', (-100., 0., 150.));
#24 = VERTEX_POINT('', #23);
#25 = CARTESIAN_POINT('', (35., -0., 90.));
#26 = VERTEX_POINT('', #25);
#27 = CARTESIAN_POINT('', (-35., 0., 90.));
#28 = VERTEX_POINT('', #27);
#29 = CARTESIAN_POINT('', (35., -0., 150.));
#30 = VERTEX_POINT('', #29);
#31 = CARTESIAN_POINT('', (-35., 0., 150.));
#32 = VERTEX_POINT('', #31);
#33 = CARTESIAN_POINT('', (-0.00000001, -35., 90.));
#34 = VERTEX_POINT('', #33);
#35 = CARTESIAN_POINT('', (0.00000001, 35., 90.));
#36 = VERTEX_POINT('', #35);
#37 = CARTESIAN_POINT('', (-0.00000001, -35., 150.));
#38 = VERTEX_POINT('', #37);
#39 = CARTESIAN_POINT('', (0.00000001, 35., 150.));
#40 = VERTEX_POINT('', #39);
#41 = CARTESIAN_POINT('', (100., 0., 850.));
#42 = VERTEX_POINT('', #41);
#43 = CARTESIAN_POINT('', (100., 0., 910.));
#44 = VERTEX_POINT('', #43);
#45 = CARTESIAN_POINT('', (-100., 0., 850.));
#46 = VERTEX_POINT('', #45);
#47 = CARTESIAN_POINT('', (-100., 0., 910.));
#48 = VERTEX_POINT('', #47);
#49 = CARTESIAN_POINT('', (35., -0., 850.));
#50 = VERTEX_POINT('', #49);
#51 = CARTESIAN_POINT('', (-35., -0., 850.));
#52 = VERTEX_POINT('', #51);
#53 = CARTESIAN_POINT('', (35., -0., 910.));
#54 = VERTEX_POINT('', #53);
#55 = CARTESIAN_POINT('', (-35., -0., 910.));
#56 = VERTEX_POINT('', #55);
#57 = CARTESIAN_POINT('', (-0.00000072, 35., 850.));
#58 = VERTEX_POINT('', #57);
#59 = CARTESIAN_POINT('', (0.00000072, -35., 850.));
#60 = VERTEX_POINT('', #59);
#61 = CARTESIAN_POINT('', (0.00000002, 35., 910.));
#62 = VERTEX_POINT('', #61);
#63 = CARTESIAN_POINT('', (-0.00000002, -35., 910.));
#64 = VERTEX_POINT('', #63);
#65 = CARTESIAN_POINT('', (470.0000049, -130.00004208, 0.));
#66 = VERTEX_POINT('', #65);
#67 = CARTESIAN_POINT('', (400.00000901, 230., 0.));
#68 = VERTEX_POINT('', #67);
#69 = CARTESIAN_POINT('', (400.00000901, 230., 1000.));
#70 = VERTEX_POINT('', #69);
#71 = CARTESIAN_POINT('', (470.0000049, -130.00004208, 1000.));
#72 = VERTEX_POINT('', #71);
#73 = CARTESIAN_POINT('', (329.99987476, -129.99991681, 0.));
#74 = VERTEX_POINT('', #73);
#75 = CARTESIAN_POINT('', (329.99987476, -129.99991681, 1000.));
#76 = VERTEX_POINT('', #75);
#77 = CARTESIAN_POINT('', (-122.41666351, 472.03196506, 0.));
#78 = VERTEX_POINT('', #77);
#79 = CARTESIAN_POINT('', (-399.18584737, 231.41016932, 0.));
#80 = VERTEX_POINT('', #79);
#81 = CARTESIAN_POINT('', (-399.18584737, 231.41016932, 1000.));
#82 = VERTEX_POINT('', #81);
#83 = CARTESIAN_POINT('', (-122.41666351, 472.03196506, 1000.));
#84 = VERTEX_POINT('', #83);
#85 = CARTESIAN_POINT('', (-52.41670694, 350.78823319, 0.));
#86 = VERTEX_POINT('', #85);
#87 = CARTESIAN_POINT('', (-52.41670694, 350.78823319, 1000.));
#88 = VERTEX_POINT('', #87);
#89 = CARTESIAN_POINT('', (-347.58334139, -342.03192298, 0.));
#90 = VERTEX_POINT('', #89);
#91 = CARTESIAN_POINT('', (-0.81416163, -461.41016932, 0.));
#92 = VERTEX_POINT('', #91);
#93 = CARTESIAN_POINT('', (-0.81416163, -461.41016932, 1000.));
#94 = VERTEX_POINT('', #93);
#95 = CARTESIAN_POINT('', (-347.58334139, -342.03192298, 1000.));
#96 = VERTEX_POINT('', #95);
#97 = CARTESIAN_POINT('', (-277.58316783, -220.78831639, 0.));
#98 = VERTEX_POINT('', #97);
#99 = CARTESIAN_POINT('', (-277.58316783, -220.78831639, 1000.));
#100 = VERTEX_POINT('', #99);
#101 = CARTESIAN_POINT('', (93.67496998, 35., 142.5));
#102 = VERTEX_POINT('', #101);
#103 = CARTESIAN_POINT('', (93.67496998, 35., 97.5));
#104 = VERTEX_POINT('', #103);
#105 = CARTESIAN_POINT('', (100., 0., 97.5));
#106 = VERTEX_POINT('', #105);
#107 = CARTESIAN_POINT('', (100., 0., 142.5));
#108 = VERTEX_POINT('', #107);
#109 = CARTESIAN_POINT('', (93.67496998, -35., 142.5));
#110 = VERTEX_POINT('', #109);
#111 = CARTESIAN_POINT('', (93.67496998, -35., 97.5));
#112 = VERTEX_POINT('', #111);
#113 = CARTESIAN_POINT('', (348.4721205, -35., 97.5));
#114 = VERTEX_POINT('', #113);
#115 = CARTESIAN_POINT('', (348.4721205, -35., 142.5));
#116 = VERTEX_POINT('', #115);
#117 = CARTESIAN_POINT('', (362.08326086, 35., 142.5));
#118 = VERTEX_POINT('', #117);
#119 = CARTESIAN_POINT('', (362.08326086, 35., 97.5));
#120 = VERTEX_POINT('', #119);
#121 = CARTESIAN_POINT('', (-16.52659586, 98.6249037, 142.5));
#122 = VERTEX_POINT('', #121);
#123 = CARTESIAN_POINT('', (-16.52659586, 98.6249037, 97.5));
#124 = VERTEX_POINT('', #123);
#125 = CARTESIAN_POINT('', (-77.14837412, 63.6249037, 142.5));
#126 = VERTEX_POINT('', #125);
#127 = CARTESIAN_POINT('', (-77.14837412, 63.6249037, 97.5));
#128 = VERTEX_POINT('', #127);
#129 = CARTESIAN_POINT('', (-143.92517112, 319.28570887, 97.5));
#130 = VERTEX_POINT('', #129);
#131 = CARTESIAN_POINT('', (-143.92517112, 319.28570887, 142.5));
#132 = VERTEX_POINT('', #131);
#133 = CARTESIAN_POINT('', (-211.35251956, 296.07330219, 142.5));
#134 = VERTEX_POINT('', #133);
#135 = CARTESIAN_POINT('', (-211.35251956, 296.07330219, 97.5));
#136 = VERTEX_POINT('', #135);
#137 = CARTESIAN_POINT('', (-77.14837412, -63.6249037, 142.5));
#138 = VERTEX_POINT('', #137);
#139 = CARTESIAN_POINT('', (-77.14837412, -63.6249037, 97.5));
#140 = VERTEX_POINT('', #139);
#141 = CARTESIAN_POINT('', (-16.52659586, -98.6249037, 142.5));
#142 = VERTEX_POINT('', #141);
#143 = CARTESIAN_POINT('', (-16.52659586, -98.6249037, 97.5));
#144 = VERTEX_POINT('', #143);
#145 = CARTESIAN_POINT('', (-204.54694938, -284.28570887, 97.5));
#146 = VERTEX_POINT('', #145);
#147 = CARTESIAN_POINT('', (-204.54694938, -284.28570887, 142.5));
#148 = VERTEX_POINT('', #147);
#149 = CARTESIAN_POINT('', (-150.7307413, -331.07330219, 142.5));
#150 = VERTEX_POINT('', #149);
#151 = CARTESIAN_POINT('', (-150.7307413, -331.07330219, 97.5));
#152 = VERTEX_POINT('', #151);
#153 = CARTESIAN_POINT('', (93.67496998, 35., 902.5));
#154 = VERTEX_POINT('', #153);
#155 = CARTESIAN_POINT('', (93.67496998, 35., 857.5));
#156 = VERTEX_POINT('', #155);
#157 = CARTESIAN_POINT('', (100., 0., 857.5));
#158 = VERTEX_POINT('', #157);
#159 = CARTESIAN_POINT('', (100., 0., 902.5));
#160 = VERTEX_POINT('', #159);
#161 = CARTESIAN_POINT('', (93.67496998, -35., 902.5));
#162 = VERTEX_POINT('', #161);
#163 = CARTESIAN_POINT('', (93.67496998, -35., 857.5));
#164 = VERTEX_POINT('', #163);
#165 = CARTESIAN_POINT('', (348.4721205, -35., 857.5));
#166 = VERTEX_POINT('', #165);
#167 = CARTESIAN_POINT('', (348.4721205, -35., 902.5));
#168 = VERTEX_POINT('', #167);
#169 = CARTESIAN_POINT('', (362.08326086, 35., 902.5));
#170 = VERTEX_POINT('', #169);
#171 = CARTESIAN_POINT('', (362.08326086, 35., 857.5));
#172 = VERTEX_POINT('', #171);
#173 = CARTESIAN_POINT('', (-16.52659586, 98.6249037, 902.5));
#174 = VERTEX_POINT('', #173);
#175 = CARTESIAN_POINT('', (-16.52659586, 98.6249037, 857.5));
#176 = VERTEX_POINT('', #175);
#177 = CARTESIAN_POINT('', (-77.14837412, 63.6249037, 902.5));
#178 = VERTEX_POINT('', #177);
#179 = CARTESIAN_POINT('', (-77.14837412, 63.6249037, 857.5));
#180 = VERTEX_POINT('', #179);
#181 = CARTESIAN_POINT('', (-143.92517112, 319.28570887, 857.5));
#182 = VERTEX_POINT('', #181);
#183 = CARTESIAN_POINT('', (-143.92517112, 319.28570887, 902.5));
#184 = VERTEX_POINT('', #183);
#185 = CARTESIAN_POINT('', (-211.35251956, 296.07330219, 902.5));
#186 = VERTEX_POINT('', #185);
#187 = CARTESIAN_POINT('', (-211.35251956, 296.07330219, 857.5));
#188 = VERTEX_POINT('', #187);
#189 = CARTESIAN_POINT('', (-77.14837412, -63.6249037, 902.5));
#190 = VERTEX_POINT('', #189);
#191 = CARTESIAN_POINT('', (-77.14837412, -63.6249037, 857.5));
#192 = VERTEX_POINT('', #191);
#193 = CARTESIAN_POINT('', (-16.52659586, -98.6249037, 902.5));
#194 = VERTEX_POINT('', #193);
#195 = CARTESIAN_POINT('', (-16.52659586, -98.6249037, 857.5));
#196 = VERTEX_POINT('', #195);
#197 = CARTESIAN_POINT('', (-204.54694938, -284.28570887, 857.5));
#198 = VERTEX_POINT('', #197);
#199 = CARTESIAN_POINT('', (-204.54694938, -284.28570887, 902.5));
#200 = VERTEX_POINT('', #199);
#201 = CARTESIAN_POINT('', (-150.7307413, -331.07330219, 902.5));
#202 = VERTEX_POINT('', #201);
#203 = CARTESIAN_POINT('', (-150.7307413, -331.07330219, 857.5));
#204 = VERTEX_POINT('', #203);
#205 = DIRECTION('', (1., 0., 0.));
#206 = DIRECTION('', (0., -0., 1.));
#207 = CARTESIAN_POINT('', (0., -0., -100.));
#208 = AXIS2_PLACEMENT_3D('', #207, #206, #205);
#209 = CIRCLE('', #208, 600.);
#210 = DIRECTION('', (0., -0., 1.));
#211 = VECTOR('', #210, 1.);
#212 = CARTESIAN_POINT('', (600., 0., -100.));
#213 = LINE('', #212, #211);
#214 = DIRECTION('', (1., 0., 0.));
#215 = DIRECTION('', (0., -0., 1.));
#216 = CARTESIAN_POINT('', (0., -0., 1100.));
#217 = AXIS2_PLACEMENT_3D('', #216, #215, #214);
#218 = CIRCLE('', #217, 600.);
#219 = DIRECTION('', (1., -0., 0.));
#220 = DIRECTION('', (-0., -0., 1.));
#221 = CARTESIAN_POINT('', (0., 0., 0.));
#222 = AXIS2_PLACEMENT_3D('', #221, #220, #219);
#223 = CIRCLE('', #222, 35.);
#224 = DIRECTION('', (0., -0., 1.));
#225 = VECTOR('', #224, 1.);
#226 = CARTESIAN_POINT('', (35., 0., 0.));
#227 = LINE('', #226, #225);
#228 = DIRECTION('', (1., -0., 0.));
#229 = DIRECTION('', (-0., -0., 1.));
#230 = CARTESIAN_POINT('', (0., 0., 1000.));
#231 = AXIS2_PLACEMENT_3D('', #230, #229, #228);
#232 = CIRCLE('', #231, 35.);
#233 = DIRECTION('', (-1., 0., 0.));
#234 = DIRECTION('', (0., -0., 1.));
#235 = CARTESIAN_POINT('', (0., 0., 0.));
#236 = AXIS2_PLACEMENT_3D('', #235, #234, #233);
#237 = CIRCLE('', #236, 35.);
#238 = DIRECTION('', (-1., 0., 0.));
#239 = DIRECTION('', (0., -0., 1.));
#240 = CARTESIAN_POINT('', (0., 0., 1000.));
#241 = AXIS2_PLACEMENT_3D('', #240, #239, #238);
#242 = CIRCLE('', #241, 35.);
#243 = DIRECTION('', (0., -0., 1.));
#244 = VECTOR('', #243, 1.);
#245 = CARTESIAN_POINT('', (-35., 0., 0.));
#246 = LINE('', #245, #244);
#247 = DIRECTION('', (1., 0., 0.));
#248 = DIRECTION('', (0., -0., 1.));
#249 = CARTESIAN_POINT('', (0., -0., 90.));
#250 = AXIS2_PLACEMENT_3D('', #249, #248, #247);
#251 = CIRCLE('', #250, 100.);
#252 = DIRECTION('', (0., -0., 1.));
#253 = VECTOR('', #252, 1.);
#254 = CARTESIAN_POINT('', (100., 0., 90.));
#255 = LINE('', #254, #253);
#256 = DIRECTION('', (1., 0., 0.));
#257 = DIRECTION('', (0., -0., 1.));
#258 = CARTESIAN_POINT('', (0., -0., 150.));
#259 = AXIS2_PLACEMENT_3D('', #258, #257, #256);
#260 = CIRCLE('', #259, 100.);
#261 = DIRECTION('', (-1., 0., 0.));
#262 = DIRECTION('', (0., -0., 1.));
#263 = CARTESIAN_POINT('', (0., 0., 90.));
#264 = AXIS2_PLACEMENT_3D('', #263, #262, #261);
#265 = CIRCLE('', #264, 100.);
#266 = DIRECTION('', (-1., 0., 0.));
#267 = DIRECTION('', (0., -0., 1.));
#268 = CARTESIAN_POINT('', (0., 0., 150.));
#269 = AXIS2_PLACEMENT_3D('', #268, #267, #266);
#270 = CIRCLE('', #269, 100.);
#271 = DIRECTION('', (0., -0., 1.));
#272 = VECTOR('', #271, 1.);
#273 = CARTESIAN_POINT('', (-100., 0., 90.));
#274 = LINE('', #273, #272);
#275 = DIRECTION('', (1., -0., -0.));
#276 = DIRECTION('', (0., 0., 1.));
#277 = CARTESIAN_POINT('', (-0., 0., 90.));
#278 = AXIS2_PLACEMENT_3D('', #277, #276, #275);
#279 = CIRCLE('', #278, 35.);
#280 = DIRECTION('', (1., 0., 0.));
#281 = DIRECTION('', (-0., -0., 1.));
#282 = CARTESIAN_POINT('', (-0., -0., 150.));
#283 = AXIS2_PLACEMENT_3D('', #282, #281, #280);
#284 = CIRCLE('', #283, 35.);
#285 = DIRECTION('', (1., -0., -0.));
#286 = DIRECTION('', (-0., 0., -1.));
#287 = CARTESIAN_POINT('', (-0., 0., 90.));
#288 = AXIS2_PLACEMENT_3D('', #287, #286, #285);
#289 = CIRCLE('', #288, 35.);
#290 = DIRECTION('', (1., -0., -0.));
#291 = DIRECTION('', (-0., 0., -1.));
#292 = CARTESIAN_POINT('', (-0., 0., 150.));
#293 = AXIS2_PLACEMENT_3D('', #292, #291, #290);
#294 = CIRCLE('', #293, 35.);
#295 = DIRECTION('', (-0., -1., -0.));
#296 = DIRECTION('', (0., 0., -1.));
#297 = CARTESIAN_POINT('', (0., 0., 90.));
#298 = AXIS2_PLACEMENT_3D('', #297, #296, #295);
#299 = CIRCLE('', #298, 35.);
#300 = DIRECTION('', (0., 1., -0.));
#301 = DIRECTION('', (-0., 0., 1.));
#302 = CARTESIAN_POINT('', (0., -0., 90.));
#303 = AXIS2_PLACEMENT_3D('', #302, #301, #300);
#304 = CIRCLE('', #303, 35.);
#305 = DIRECTION('', (-0., -1., 0.));
#306 = DIRECTION('', (-0., -0., -1.));
#307 = CARTESIAN_POINT('', (0., 0., 150.));
#308 = AXIS2_PLACEMENT_3D('', #307, #306, #305);
#309 = CIRCLE('', #308, 35.);
#310 = DIRECTION('', (0., 1., 0.));
#311 = DIRECTION('', (0., -0., 1.));
#312 = CARTESIAN_POINT('', (-0., 0., 150.));
#313 = AXIS2_PLACEMENT_3D('', #312, #311, #310);
#314 = CIRCLE('', #313, 35.);
#315 = DIRECTION('', (0., -0., 1.));
#316 = VECTOR('', #315, 1.);
#317 = CARTESIAN_POINT('', (-35., 0., 150.));
#318 = LINE('', #317, #316);
#319 = DIRECTION('', (0., -0., 1.));
#320 = VECTOR('', #319, 1.);
#321 = CARTESIAN_POINT('', (35., 0., 150.));
#322 = LINE('', #321, #320);
#323 = DIRECTION('', (1., 0., 0.));
#324 = DIRECTION('', (0., -0., 1.));
#325 = CARTESIAN_POINT('', (0., -0., 850.));
#326 = AXIS2_PLACEMENT_3D('', #325, #324, #323);
#327 = CIRCLE('', #326, 100.);
#328 = DIRECTION('', (0., -0., 1.));
#329 = VECTOR('', #328, 1.);
#330 = CARTESIAN_POINT('', (100., 0., 850.));
#331 = LINE('', #330, #329);
#332 = DIRECTION('', (1., 0., 0.));
#333 = DIRECTION('', (0., -0., 1.));
#334 = CARTESIAN_POINT('', (0., -0., 910.));
#335 = AXIS2_PLACEMENT_3D('', #334, #333, #332);
#336 = CIRCLE('', #335, 100.);
#337 = DIRECTION('', (-1., 0., 0.));
#338 = DIRECTION('', (0., -0., 1.));
#339 = CARTESIAN_POINT('', (0., 0., 850.));
#340 = AXIS2_PLACEMENT_3D('', #339, #338, #337);
#341 = CIRCLE('', #340, 100.);
#342 = DIRECTION('', (-1., 0., 0.));
#343 = DIRECTION('', (0., -0., 1.));
#344 = CARTESIAN_POINT('', (0., 0., 910.));
#345 = AXIS2_PLACEMENT_3D('', #344, #343, #342);
#346 = CIRCLE('', #345, 100.);
#347 = DIRECTION('', (0., -0., 1.));
#348 = VECTOR('', #347, 1.);
#349 = CARTESIAN_POINT('', (-100., 0., 850.));
#350 = LINE('', #349, #348);
#351 = DIRECTION('', (1., -0., -0.));
#352 = DIRECTION('', (-0., 0., -1.));
#353 = CARTESIAN_POINT('', (-0., 0., 850.));
#354 = AXIS2_PLACEMENT_3D('', #353, #352, #351);
#355 = CIRCLE('', #354, 35.);
#356 = DIRECTION('', (1., -0., 0.));
#357 = DIRECTION('', (0., 0., -1.));
#358 = CARTESIAN_POINT('', (-0., 0., 910.));
#359 = AXIS2_PLACEMENT_3D('', #358, #357, #356);
#360 = CIRCLE('', #359, 35.);
#361 = DIRECTION('', (1., 0., 0.));
#362 = DIRECTION('', (-0., -0., 1.));
#363 = CARTESIAN_POINT('', (-0., -0., 850.));
#364 = AXIS2_PLACEMENT_3D('', #363, #362, #361);
#365 = CIRCLE('', #364, 35.);
#366 = DIRECTION('', (1., 0., -0.));
#367 = DIRECTION('', (0., 0., 1.));
#368 = CARTESIAN_POINT('', (-0., -0., 910.));
#369 = AXIS2_PLACEMENT_3D('', #368, #367, #366);
#370 = CIRCLE('', #369, 35.);
#371 = DIRECTION('', (-0.00000002, 1., 0.));
#372 = DIRECTION('', (0., -0., 1.));
#373 = CARTESIAN_POINT('', (0., -0., 850.));
#374 = AXIS2_PLACEMENT_3D('', #373, #372, #371);
#375 = CIRCLE('', #374, 35.);
#376 = DIRECTION('', (0.00000002, -1., 0.));
#377 = DIRECTION('', (-0., -0., -1.));
#378 = CARTESIAN_POINT('', (0., 0., 850.));
#379 = AXIS2_PLACEMENT_3D('', #378, #377, #376);
#380 = CIRCLE('', #379, 35.);
#381 = DIRECTION('', (0., 1., 0.));
#382 = DIRECTION('', (0., -0., 1.));
#383 = CARTESIAN_POINT('', (0., -0., 910.));
#384 = AXIS2_PLACEMENT_3D('', #383, #382, #381);
#385 = CIRCLE('', #384, 35.);
#386 = DIRECTION('', (-0., -1., -0.));
#387 = DIRECTION('', (0., 0., -1.));
#388 = CARTESIAN_POINT('', (0., 0., 910.));
#389 = AXIS2_PLACEMENT_3D('', #388, #387, #386);
#390 = CIRCLE('', #389, 35.);
#391 = DIRECTION('', (0., -0., 1.));
#392 = VECTOR('', #391, 1.);
#393 = CARTESIAN_POINT('', (-35., 0., 910.));
#394 = LINE('', #393, #392);
#395 = DIRECTION('', (0., -0., 1.));
#396 = VECTOR('', #395, 1.);
#397 = CARTESIAN_POINT('', (35., 0., 910.));
#398 = LINE('', #397, #396);
#399 = DIRECTION('', (-0.19086963, 0.9816154, 0.));
#400 = VECTOR('', #399, 1.);
#401 = CARTESIAN_POINT('', (470.0000049, -130.00004208, 0.));
#402 = LINE('', #401, #400);
#403 = DIRECTION('', (0., -0., 1.));
#404 = VECTOR('', #403, 1.);
#405 = CARTESIAN_POINT('', (400.00000901, 230., 0.));
#406 = LINE('', #405, #404);
#407 = DIRECTION('', (-0.19086963, 0.9816154, 0.));
#408 = VECTOR('', #407, 1.);
#409 = CARTESIAN_POINT('', (470.0000049, -130.00004208, 1000.));
#410 = LINE('', #409, #408);
#411 = DIRECTION('', (0., -0., 1.));
#412 = VECTOR('', #411, 1.);
#413 = CARTESIAN_POINT('', (470.0000049, -130.00004208, 0.));
#414 = LINE('', #413, #412);
#415 = DIRECTION('', (-0.19087005, -0.98161531, 0.));
#416 = VECTOR('', #415, 1.);
#417 = CARTESIAN_POINT('', (400.00000901, 230., 0.));
#418 = LINE('', #417, #416);
#419 = DIRECTION('', (0., -0., 1.));
#420 = VECTOR('', #419, 1.);
#421 = CARTESIAN_POINT('', (329.99987476, -129.99991681, 0.));
#422 = LINE('', #421, #420);
#423 = DIRECTION('', (-0.19087005, -0.98161531, 0.));
#424 = VECTOR('', #423, 1.);
#425 = CARTESIAN_POINT('', (400.00000901, 230., 1000.));
#426 = LINE('', #425, #424);
#427 = DIRECTION('', (-0.55555734, -0.83147823, 0.));
#428 = DIRECTION('', (0., 0., 1.));
#429 = CARTESIAN_POINT('', (400.00003358, -25.23375955, 0.));
#430 = AXIS2_PLACEMENT_3D('', #429, #428, #427);
#431 = CIRCLE('', #430, 125.99988072);
#432 = DIRECTION('', (-0.55555734, -0.83147823, 0.));
#433 = DIRECTION('', (0., 0., 1.));
#434 = CARTESIAN_POINT('', (400.00003358, -25.23375955, 1000.));
#435 = AXIS2_PLACEMENT_3D('', #434, #433, #432);
#436 = CIRCLE('', #435, 125.99988072);
#437 = DIRECTION('', (-0.75466906, -0.65610564, 0.));
#438 = VECTOR('', #437, 1.);
#439 = CARTESIAN_POINT('', (-122.41666351, 472.03196506, 0.));
#440 = LINE('', #439, #438);
#441 = DIRECTION('', (0., -0., 1.));
#442 = VECTOR('', #441, 1.);
#443 = CARTESIAN_POINT('', (-399.18584737, 231.41016932, 0.));
#444 = LINE('', #443, #442);
#445 = DIRECTION('', (-0.75466906, -0.65610564, 0.));
#446 = VECTOR('', #445, 1.);
#447 = CARTESIAN_POINT('', (-122.41666351, 472.03196506, 1000.));
#448 = LINE('', #447, #446);
#449 = DIRECTION('', (0., -0., 1.));
#450 = VECTOR('', #449, 1.);
#451 = CARTESIAN_POINT('', (-122.41666351, 472.03196506, 0.));
#452 = LINE('', #451, #450);
#453 = DIRECTION('', (0.94553882, 0.32550934, 0.));
#454 = VECTOR('', #453, 1.);
#455 = CARTESIAN_POINT('', (-399.18584737, 231.41016932, 0.));
#456 = LINE('', #455, #454);
#457 = DIRECTION('', (0., -0., 1.));
#458 = VECTOR('', #457, 1.);
#459 = CARTESIAN_POINT('', (-52.41670694, 350.78823319, 0.));
#460 = LINE('', #459, #458);
#461 = DIRECTION('', (0.94553882, 0.32550934, 0.));
#462 = VECTOR('', #461, 1.);
#463 = CARTESIAN_POINT('', (-399.18584737, 231.41016932, 1000.));
#464 = LINE('', #463, #462);
#465 = DIRECTION('', (0.99785994, -0.06538766, 0.));
#466 = DIRECTION('', (-0., -0., 1.));
#467 = CARTESIAN_POINT('', (-178.14693998, 359.02707037, 0.));
#468 = AXIS2_PLACEMENT_3D('', #467, #466, #465);
#469 = CIRCLE('', #468, 125.99988072);
#470 = DIRECTION('', (0.99785994, -0.06538766, 0.));
#471 = DIRECTION('', (-0., -0., 1.));
#472 = CARTESIAN_POINT('', (-178.14693998, 359.02707037, 1000.));
#473 = AXIS2_PLACEMENT_3D('', #472, #471, #470);
#474 = CIRCLE('', #473, 125.99988072);
#475 = DIRECTION('', (0.94553868, -0.32550975, 0.));
#476 = VECTOR('', #475, 1.);
#477 = CARTESIAN_POINT('', (-347.58334139, -342.03192298, 0.));
#478 = LINE('', #477, #476);
#479 = DIRECTION('', (0., -0., 1.));
#480 = VECTOR('', #479, 1.);
#481 = CARTESIAN_POINT('', (-0.81416163, -461.41016932, 0.));
#482 = LINE('', #481, #480);
#483 = DIRECTION('', (0.94553868, -0.32550975, 0.));
#484 = VECTOR('', #483, 1.);
#485 = CARTESIAN_POINT('', (-347.58334139, -342.03192298, 1000.));
#486 = LINE('', #485, #484);
#487 = DIRECTION('', (0., -0., 1.));
#488 = VECTOR('', #487, 1.);
#489 = CARTESIAN_POINT('', (-347.58334139, -342.03192298, 0.));
#490 = LINE('', #489, #488);
#491 = DIRECTION('', (-0.75466877, 0.65610597, 0.));
#492 = VECTOR('', #491, 1.);
#493 = CARTESIAN_POINT('', (-0.81416163, -461.41016932, 0.));
#494 = LINE('', #493, #492);
#495 = DIRECTION('', (0., -0., 1.));
#496 = VECTOR('', #495, 1.);
#497 = CARTESIAN_POINT('', (-277.58316783, -220.78831639, 0.));
#498 = LINE('', #497, #496);
#499 = DIRECTION('', (-0.75466877, 0.65610597, 0.));
#500 = VECTOR('', #499, 1.);
#501 = CARTESIAN_POINT('', (-0.81416163, -461.41016932, 1000.));
#502 = LINE('', #501, #500);
#503 = DIRECTION('', (-0.4423026, 0.89686588, 0.));
#504 = DIRECTION('', (0., -0., 1.));
#505 = CARTESIAN_POINT('', (-221.85309359, -333.79331082, 0.));
#506 = AXIS2_PLACEMENT_3D('', #505, #504, #503);
#507 = CIRCLE('', #506, 125.99988072);
#508 = DIRECTION('', (-0.4423026, 0.89686588, 0.));
#509 = DIRECTION('', (0., -0., 1.));
#510 = CARTESIAN_POINT('', (-221.85309359, -333.79331082, 1000.));
#511 = AXIS2_PLACEMENT_3D('', #510, #509, #508);
#512 = CIRCLE('', #511, 125.99988072);
#513 = DIRECTION('', (-0., -0., -1.));
#514 = VECTOR('', #513, 1.);
#515 = CARTESIAN_POINT('', (93.67496998, 35., 142.5));
#516 = LINE('', #515, #514);
#517 = DIRECTION('', (1., -0., 0.));
#518 = DIRECTION('', (-0., -0., 1.));
#519 = CARTESIAN_POINT('', (0., 0., 97.5));
#520 = AXIS2_PLACEMENT_3D('', #519, #518, #517);
#521 = CIRCLE('', #520, 100.);
#522 = DIRECTION('', (1., -0., 0.));
#523 = DIRECTION('', (-0., -0., 1.));
#524 = CARTESIAN_POINT('', (0., 0., 142.5));
#525 = AXIS2_PLACEMENT_3D('', #524, #523, #522);
#526 = CIRCLE('', #525, 100.);
#527 = DIRECTION('', (0., 0., -1.));
#528 = VECTOR('', #527, 1.);
#529 = CARTESIAN_POINT('', (93.67496998, -35., 142.5));
#530 = LINE('', #529, #528);
#531 = DIRECTION('', (1., 0., 0.));
#532 = DIRECTION('', (0., -0., -1.));
#533 = CARTESIAN_POINT('', (0., -0., 97.5));
#534 = AXIS2_PLACEMENT_3D('', #533, #532, #531);
#535 = CIRCLE('', #534, 100.);
#536 = DIRECTION('', (1., 0., 0.));
#537 = DIRECTION('', (0., -0., -1.));
#538 = CARTESIAN_POINT('', (0., -0., 142.5));
#539 = AXIS2_PLACEMENT_3D('', #538, #537, #536);
#540 = CIRCLE('', #539, 100.);
#541 = DIRECTION('', (0., -0., 1.));
#542 = VECTOR('', #541, 1.);
#543 = CARTESIAN_POINT('', (348.4721205, -35., 97.5));
#544 = LINE('', #543, #542);
#545 = DIRECTION('', (0., -0., -1.));
#546 = VECTOR('', #545, 1.);
#547 = CARTESIAN_POINT('', (362.08326086, 35., 142.5));
#548 = LINE('', #547, #546);
#549 = DIRECTION('', (0.19087005, 0.98161531, 0.));
#550 = VECTOR('', #549, 1.);
#551 = CARTESIAN_POINT('', (348.4721205, -35., 97.5));
#552 = LINE('', #551, #550);
#553 = DIRECTION('', (0.19087005, 0.98161531, 0.));
#554 = VECTOR('', #553, 1.);
#555 = CARTESIAN_POINT('', (348.4721205, -35., 142.5));
#556 = LINE('', #555, #554);
#557 = DIRECTION('', (-1., -0., 0.));
#558 = VECTOR('', #557, 1.);
#559 = CARTESIAN_POINT('', (362.08326086, 35., 97.5));
#560 = LINE('', #559, #558);
#561 = DIRECTION('', (-1., -0., 0.));
#562 = VECTOR('', #561, 1.);
#563 = CARTESIAN_POINT('', (362.08326086, 35., 142.5));
#564 = LINE('', #563, #562);
#565 = DIRECTION('', (1., -0., 0.));
#566 = VECTOR('', #565, 1.);
#567 = CARTESIAN_POINT('', (93.67496998, -35., 97.5));
#568 = LINE('', #567, #566);
#569 = DIRECTION('', (1., -0., 0.));
#570 = VECTOR('', #569, 1.);
#571 = CARTESIAN_POINT('', (93.67496998, -35., 142.5));
#572 = LINE('', #571, #570);
#573 = DIRECTION('', (0., -0., 1.));
#574 = VECTOR('', #573, 1.);
#575 = CARTESIAN_POINT('', (100., 0., 142.5));
#576 = LINE('', #575, #574);
#577 = DIRECTION('', (-0., -0., -1.));
#578 = VECTOR('', #577, 1.);
#579 = CARTESIAN_POINT('', (-16.52659586, 98.6249037, 142.5));
#580 = LINE('', #579, #578);
#581 = DIRECTION('', (-0., 0., -1.));
#582 = VECTOR('', #581, 1.);
#583 = CARTESIAN_POINT('', (-77.14837412, 63.6249037, 142.5));
#584 = LINE('', #583, #582);
#585 = DIRECTION('', (-0.16526596, 0.98624904, 0.));
#586 = DIRECTION('', (0., -0., 1.));
#587 = CARTESIAN_POINT('', (-0., 0., 97.5));
#588 = AXIS2_PLACEMENT_3D('', #587, #586, #585);
#589 = CIRCLE('', #588, 100.);
#590 = DIRECTION('', (-0.16526596, 0.98624904, -0.));
#591 = DIRECTION('', (-0., 0., 1.));
#592 = CARTESIAN_POINT('', (-0., 0., 142.5));
#593 = AXIS2_PLACEMENT_3D('', #592, #591, #590);
#594 = CIRCLE('', #593, 100.);
#595 = DIRECTION('', (0., -0., 1.));
#596 = VECTOR('', #595, 1.);
#597 = CARTESIAN_POINT('', (-143.92517112, 319.28570887, 97.5));
#598 = LINE('', #597, #596);
#599 = DIRECTION('', (0., -0., -1.));
#600 = VECTOR('', #599, 1.);
#601 = CARTESIAN_POINT('', (-211.35251956, 296.07330219, 142.5));
#602 = LINE('', #601, #600);
#603 = DIRECTION('', (-0.94553882, -0.32550934, 0.));
#604 = VECTOR('', #603, 1.);
#605 = CARTESIAN_POINT('', (-143.92517112, 319.28570887, 97.5));
#606 = LINE('', #605, #604);
#607 = DIRECTION('', (-0.94553882, -0.32550934, 0.));
#608 = VECTOR('', #607, 1.);
#609 = CARTESIAN_POINT('', (-143.92517112, 319.28570887, 142.5));
#610 = LINE('', #609, #608);
#611 = DIRECTION('', (0.5, -0.8660254, 0.));
#612 = VECTOR('', #611, 1.);
#613 = CARTESIAN_POINT('', (-211.35251956, 296.07330219, 97.5));
#614 = LINE('', #613, #612);
#615 = DIRECTION('', (0.5, -0.8660254, 0.));
#616 = VECTOR('', #615, 1.);
#617 = CARTESIAN_POINT('', (-211.35251956, 296.07330219, 142.5));
#618 = LINE('', #617, #616);
#619 = DIRECTION('', (-0.5, 0.8660254, 0.));
#620 = VECTOR('', #619, 1.);
#621 = CARTESIAN_POINT('', (-16.52659586, 98.6249037, 97.5));
#622 = LINE('', #621, #620);
#623 = DIRECTION('', (-0.5, 0.8660254, 0.));
#624 = VECTOR('', #623, 1.);
#625 = CARTESIAN_POINT('', (-16.52659586, 98.6249037, 142.5));
#626 = LINE('', #625, #624);
#627 = DIRECTION('', (0., -0., -1.));
#628 = VECTOR('', #627, 1.);
#629 = CARTESIAN_POINT('', (-77.14837412, -63.6249037, 142.5));
#630 = LINE('', #629, #628);
#631 = DIRECTION('', (0., -0., -1.));
#632 = VECTOR('', #631, 1.);
#633 = CARTESIAN_POINT('', (-16.52659586, -98.6249037, 142.5));
#634 = LINE('', #633, #632);
#635 = DIRECTION('', (-0.16526596, -0.98624904, -0.));
#636 = DIRECTION('', (0., 0., -1.));
#637 = CARTESIAN_POINT('', (0., 0., 97.5));
#638 = AXIS2_PLACEMENT_3D('', #637, #636, #635);
#639 = CIRCLE('', #638, 100.);
#640 = DIRECTION('', (-0.16526596, -0.98624904, -0.));
#641 = DIRECTION('', (0., 0., -1.));
#642 = CARTESIAN_POINT('', (0., 0., 142.5));
#643 = AXIS2_PLACEMENT_3D('', #642, #641, #640);
#644 = CIRCLE('', #643, 100.);
#645 = DIRECTION('', (0., -0., 1.));
#646 = VECTOR('', #645, 1.);
#647 = CARTESIAN_POINT('', (-204.54694938, -284.28570887, 97.5));
#648 = LINE('', #647, #646);
#649 = DIRECTION('', (0., -0., -1.));
#650 = VECTOR('', #649, 1.);
#651 = CARTESIAN_POINT('', (-150.7307413, -331.07330219, 142.5));
#652 = LINE('', #651, #650);
#653 = DIRECTION('', (0.75466877, -0.65610597, 0.));
#654 = VECTOR('', #653, 1.);
#655 = CARTESIAN_POINT('', (-204.54694938, -284.28570887, 97.5));
#656 = LINE('', #655, #654);
#657 = DIRECTION('', (0.75466877, -0.65610597, 0.));
#658 = VECTOR('', #657, 1.);
#659 = CARTESIAN_POINT('', (-204.54694938, -284.28570887, 142.5));
#660 = LINE('', #659, #658);
#661 = DIRECTION('', (0.5, 0.8660254, 0.));
#662 = VECTOR('', #661, 1.);
#663 = CARTESIAN_POINT('', (-150.7307413, -331.07330219, 97.5));
#664 = LINE('', #663, #662);
#665 = DIRECTION('', (0.5, 0.8660254, 0.));
#666 = VECTOR('', #665, 1.);
#667 = CARTESIAN_POINT('', (-150.7307413, -331.07330219, 142.5));
#668 = LINE('', #667, #666);
#669 = DIRECTION('', (-0.5, -0.8660254, 0.));
#670 = VECTOR('', #669, 1.);
#671 = CARTESIAN_POINT('', (-77.14837412, -63.6249037, 97.5));
#672 = LINE('', #671, #670);
#673 = DIRECTION('', (-0.5, -0.8660254, 0.));
#674 = VECTOR('', #673, 1.);
#675 = CARTESIAN_POINT('', (-77.14837412, -63.6249037, 142.5));
#676 = LINE('', #675, #674);
#677 = DIRECTION('', (0., -0., -1.));
#678 = VECTOR('', #677, 1.);
#679 = CARTESIAN_POINT('', (93.67496998, 35., 902.5));
#680 = LINE('', #679, #678);
#681 = DIRECTION('', (1., -0., 0.));
#682 = DIRECTION('', (-0., -0., 1.));
#683 = CARTESIAN_POINT('', (0., 0., 857.5));
#684 = AXIS2_PLACEMENT_3D('', #683, #682, #681);
#685 = CIRCLE('', #684, 100.);
#686 = DIRECTION('', (1., -0., 0.));
#687 = DIRECTION('', (-0., -0., 1.));
#688 = CARTESIAN_POINT('', (0., 0., 902.5));
#689 = AXIS2_PLACEMENT_3D('', #688, #687, #686);
#690 = CIRCLE('', #689, 100.);
#691 = DIRECTION('', (0., -0., -1.));
#692 = VECTOR('', #691, 1.);
#693 = CARTESIAN_POINT('', (93.67496998, -35., 902.5));
#694 = LINE('', #693, #692);
#695 = DIRECTION('', (1., 0., -0.));
#696 = DIRECTION('', (-0., 0., -1.));
#697 = CARTESIAN_POINT('', (0., -0., 857.5));
#698 = AXIS2_PLACEMENT_3D('', #697, #696, #695);
#699 = CIRCLE('', #698, 100.);
#700 = DIRECTION('', (1., 0., -0.));
#701 = DIRECTION('', (-0., 0., -1.));
#702 = CARTESIAN_POINT('', (0., -0., 902.5));
#703 = AXIS2_PLACEMENT_3D('', #702, #701, #700);
#704 = CIRCLE('', #703, 100.);
#705 = DIRECTION('', (0., -0., 1.));
#706 = VECTOR('', #705, 1.);
#707 = CARTESIAN_POINT('', (348.4721205, -35., 857.5));
#708 = LINE('', #707, #706);
#709 = DIRECTION('', (0., -0., -1.));
#710 = VECTOR('', #709, 1.);
#711 = CARTESIAN_POINT('', (362.08326086, 35., 902.5));
#712 = LINE('', #711, #710);
#713 = DIRECTION('', (0.19087005, 0.98161531, 0.));
#714 = VECTOR('', #713, 1.);
#715 = CARTESIAN_POINT('', (348.4721205, -35., 857.5));
#716 = LINE('', #715, #714);
#717 = DIRECTION('', (0.19087005, 0.98161531, 0.));
#718 = VECTOR('', #717, 1.);
#719 = CARTESIAN_POINT('', (348.4721205, -35., 902.5));
#720 = LINE('', #719, #718);
#721 = DIRECTION('', (-1., -0., 0.));
#722 = VECTOR('', #721, 1.);
#723 = CARTESIAN_POINT('', (362.08326086, 35., 857.5));
#724 = LINE('', #723, #722);
#725 = DIRECTION('', (-1., -0., 0.));
#726 = VECTOR('', #725, 1.);
#727 = CARTESIAN_POINT('', (362.08326086, 35., 902.5));
#728 = LINE('', #727, #726);
#729 = DIRECTION('', (1., -0., 0.));
#730 = VECTOR('', #729, 1.);
#731 = CARTESIAN_POINT('', (93.67496998, -35., 857.5));
#732 = LINE('', #731, #730);
#733 = DIRECTION('', (1., -0., 0.));
#734 = VECTOR('', #733, 1.);
#735 = CARTESIAN_POINT('', (93.67496998, -35., 902.5));
#736 = LINE('', #735, #734);
#737 = DIRECTION('', (0., -0., 1.));
#738 = VECTOR('', #737, 1.);
#739 = CARTESIAN_POINT('', (100., 0., 902.5));
#740 = LINE('', #739, #738);
#741 = DIRECTION('', (-0., 0., -1.));
#742 = VECTOR('', #741, 1.);
#743 = CARTESIAN_POINT('', (-16.52659586, 98.6249037, 902.5));
#744 = LINE('', #743, #742);
#745 = DIRECTION('', (0., 0., -1.));
#746 = VECTOR('', #745, 1.);
#747 = CARTESIAN_POINT('', (-77.14837412, 63.6249037, 902.5));
#748 = LINE('', #747, #746);
#749 = DIRECTION('', (-0.16526596, 0.98624904, 0.));
#750 = DIRECTION('', (0., -0., 1.));
#751 = CARTESIAN_POINT('', (-0., 0., 857.5));
#752 = AXIS2_PLACEMENT_3D('', #751, #750, #749);
#753 = CIRCLE('', #752, 100.);
#754 = DIRECTION('', (-0.16526596, 0.98624904, -0.));
#755 = DIRECTION('', (-0., 0., 1.));
#756 = CARTESIAN_POINT('', (-0., 0., 902.5));
#757 = AXIS2_PLACEMENT_3D('', #756, #755, #754);
#758 = CIRCLE('', #757, 100.);
#759 = DIRECTION('', (0., -0., 1.));
#760 = VECTOR('', #759, 1.);
#761 = CARTESIAN_POINT('', (-143.92517112, 319.28570887, 857.5));
#762 = LINE('', #761, #760);
#763 = DIRECTION('', (0., -0., -1.));
#764 = VECTOR('', #763, 1.);
#765 = CARTESIAN_POINT('', (-211.35251956, 296.07330219, 902.5));
#766 = LINE('', #765, #764);
#767 = DIRECTION('', (-0.94553882, -0.32550934, 0.));
#768 = VECTOR('', #767, 1.);
#769 = CARTESIAN_POINT('', (-143.92517112, 319.28570887, 857.5));
#770 = LINE('', #769, #768);
#771 = DIRECTION('', (-0.94553882, -0.32550934, 0.));
#772 = VECTOR('', #771, 1.);
#773 = CARTESIAN_POINT('', (-143.92517112, 319.28570887, 902.5));
#774 = LINE('', #773, #772);
#775 = DIRECTION('', (0.5, -0.8660254, 0.));
#776 = VECTOR('', #775, 1.);
#777 = CARTESIAN_POINT('', (-211.35251956, 296.07330219, 857.5));
#778 = LINE('', #777, #776);
#779 = DIRECTION('', (0.5, -0.8660254, 0.));
#780 = VECTOR('', #779, 1.);
#781 = CARTESIAN_POINT('', (-211.35251956, 296.07330219, 902.5));
#782 = LINE('', #781, #780);
#783 = DIRECTION('', (-0.5, 0.8660254, 0.));
#784 = VECTOR('', #783, 1.);
#785 = CARTESIAN_POINT('', (-16.52659586, 98.6249037, 857.5));
#786 = LINE('', #785, #784);
#787 = DIRECTION('', (-0.5, 0.8660254, 0.));
#788 = VECTOR('', #787, 1.);
#789 = CARTESIAN_POINT('', (-16.52659586, 98.6249037, 902.5));
#790 = LINE('', #789, #788);
#791 = DIRECTION('', (-0., -0., -1.));
#792 = VECTOR('', #791, 1.);
#793 = CARTESIAN_POINT('', (-77.14837412, -63.6249037, 902.5));
#794 = LINE('', #793, #792);
#795 = DIRECTION('', (-0., -0., -1.));
#796 = VECTOR('', #795, 1.);
#797 = CARTESIAN_POINT('', (-16.52659586, -98.6249037, 902.5));
#798 = LINE('', #797, #796);
#799 = DIRECTION('', (-0.16526596, -0.98624904, -0.));
#800 = DIRECTION('', (0., 0., -1.));
#801 = CARTESIAN_POINT('', (0., 0., 857.5));
#802 = AXIS2_PLACEMENT_3D('', #801, #800, #799);
#803 = CIRCLE('', #802, 100.);
#804 = DIRECTION('', (-0.16526596, -0.98624904, -0.));
#805 = DIRECTION('', (0., 0., -1.));
#806 = CARTESIAN_POINT('', (0., 0., 902.5));
#807 = AXIS2_PLACEMENT_3D('', #806, #805, #804);
#808 = CIRCLE('', #807, 100.);
#809 = DIRECTION('', (0., -0., 1.));
#810 = VECTOR('', #809, 1.);
#811 = CARTESIAN_POINT('', (-204.54694938, -284.28570887, 857.5));
#812 = LINE('', #811, #810);
#813 = DIRECTION('', (0., -0., -1.));
#814 = VECTOR('', #813, 1.);
#815 = CARTESIAN_POINT('', (-150.7307413, -331.07330219, 902.5));
#816 = LINE('', #815, #814);
#817 = DIRECTION('', (0.75466877, -0.65610597, 0.));
#818 = VECTOR('', #817, 1.);
#819 = CARTESIAN_POINT('', (-204.54694938, -284.28570887, 857.5));
#820 = LINE('', #819, #818);
#821 = DIRECTION('', (0.75466877, -0.65610597, 0.));
#822 = VECTOR('', #821, 1.);
#823 = CARTESIAN_POINT('', (-204.54694938, -284.28570887, 902.5));
#824 = LINE('', #823, #822);
#825 = DIRECTION('', (0.5, 0.8660254, 0.));
#826 = VECTOR('', #825, 1.);
#827 = CARTESIAN_POINT('', (-150.7307413, -331.07330219, 857.5));
#828 = LINE('', #827, #826);
#829 = DIRECTION('', (0.5, 0.8660254, 0.));
#830 = VECTOR('', #829, 1.);
#831 = CARTESIAN_POINT('', (-150.7307413, -331.07330219, 902.5));
#832 = LINE('', #831, #830);
#833 = DIRECTION('', (-0.5, -0.8660254, 0.));
#834 = VECTOR('', #833, 1.);
#835 = CARTESIAN_POINT('', (-77.14837412, -63.6249037, 857.5));
#836 = LINE('', #835, #834);
#837 = DIRECTION('', (-0.5, -0.8660254, 0.));
#838 = VECTOR('', #837, 1.);
#839 = CARTESIAN_POINT('', (-77.14837412, -63.6249037, 902.5));
#840 = LINE('', #839, #838);
#841 = EDGE_CURVE('', #6, #6, #209, .T.);
#842 = EDGE_CURVE('', #6, #8, #213, .T.);
#843 = EDGE_CURVE('', #8, #8, #218, .T.);
#844 = EDGE_CURVE('', #10, #14, #223, .T.);
#845 = EDGE_CURVE('', #10, #26, #227, .T.);
#846 = EDGE_CURVE('', #12, #16, #232, .T.);
#847 = EDGE_CURVE('', #14, #10, #237, .T.);
#848 = EDGE_CURVE('', #16, #12, #242, .T.);
#849 = EDGE_CURVE('', #14, #28, #246, .T.);
#850 = EDGE_CURVE('', #18, #22, #251, .T.);
#851 = EDGE_CURVE('', #18, #106, #255, .T.);
#852 = EDGE_CURVE('', #20, #24, #260, .T.);
#853 = EDGE_CURVE('', #22, #18, #265, .T.);
#854 = EDGE_CURVE('', #24, #20, #270, .T.);
#855 = EDGE_CURVE('', #22, #24, #274, .T.);
#856 = EDGE_CURVE('', #26, #36, #279, .T.);
#857 = EDGE_CURVE('', #30, #40, #284, .T.);
#858 = EDGE_CURVE('', #26, #34, #289, .T.);
#859 = EDGE_CURVE('', #30, #38, #294, .T.);
#860 = EDGE_CURVE('', #34, #28, #299, .T.);
#861 = EDGE_CURVE('', #36, #28, #304, .T.);
#862 = EDGE_CURVE('', #38, #32, #309, .T.);
#863 = EDGE_CURVE('', #40, #32, #314, .T.);
#864 = EDGE_CURVE('', #32, #52, #318, .T.);
#865 = EDGE_CURVE('', #30, #50, #322, .T.);
#866 = EDGE_CURVE('', #42, #46, #327, .T.);
#867 = EDGE_CURVE('', #42, #158, #331, .T.);
#868 = EDGE_CURVE('', #44, #48, #336, .T.);
#869 = EDGE_CURVE('', #46, #42, #341, .T.);
#870 = EDGE_CURVE('', #48, #44, #346, .T.);
#871 = EDGE_CURVE('', #46, #48, #350, .T.);
#872 = EDGE_CURVE('', #50, #60, #355, .T.);
#873 = EDGE_CURVE('', #54, #64, #360, .T.);
#874 = EDGE_CURVE('', #50, #58, #365, .T.);
#875 = EDGE_CURVE('', #54, #62, #370, .T.);
#876 = EDGE_CURVE('', #58, #52, #375, .T.);
#877 = EDGE_CURVE('', #60, #52, #380, .T.);
#878 = EDGE_CURVE('', #62, #56, #385, .T.);
#879 = EDGE_CURVE('', #64, #56, #390, .T.);
#880 = EDGE_CURVE('', #56, #16, #394, .T.);
#881 = EDGE_CURVE('', #54, #12, #398, .T.);
#882 = EDGE_CURVE('', #66, #68, #402, .T.);
#883 = EDGE_CURVE('', #68, #70, #406, .T.);
#884 = EDGE_CURVE('', #72, #70, #410, .T.);
#885 = EDGE_CURVE('', #66, #72, #414, .T.);
#886 = EDGE_CURVE('', #68, #74, #418, .T.);
#887 = EDGE_CURVE('', #74, #76, #422, .T.);
#888 = EDGE_CURVE('', #70, #76, #426, .T.);
#889 = EDGE_CURVE('', #74, #66, #431, .T.);
#890 = EDGE_CURVE('', #76, #72, #436, .T.);
#891 = EDGE_CURVE('', #78, #80, #440, .T.);
#892 = EDGE_CURVE('', #80, #82, #444, .T.);
#893 = EDGE_CURVE('', #84, #82, #448, .T.);
#894 = EDGE_CURVE('', #78, #84, #452, .T.);
#895 = EDGE_CURVE('', #80, #86, #456, .T.);
#896 = EDGE_CURVE('', #86, #88, #460, .T.);
#897 = EDGE_CURVE('', #82, #88, #464, .T.);
#898 = EDGE_CURVE('', #86, #78, #469, .T.);
#899 = EDGE_CURVE('', #88, #84, #474, .T.);
#900 = EDGE_CURVE('', #90, #92, #478, .T.);
#901 = EDGE_CURVE('', #92, #94, #482, .T.);
#902 = EDGE_CURVE('', #96, #94, #486, .T.);
#903 = EDGE_CURVE('', #90, #96, #490, .T.);
#904 = EDGE_CURVE('', #92, #98, #494, .T.);
#905 = EDGE_CURVE('', #98, #100, #498, .T.);
#906 = EDGE_CURVE('', #94, #100, #502, .T.);
#907 = EDGE_CURVE('', #98, #90, #507, .T.);
#908 = EDGE_CURVE('', #100, #96, #512, .T.);
#909 = EDGE_CURVE('', #102, #104, #516, .T.);
#910 = EDGE_CURVE('', #106, #104, #521, .T.);
#911 = EDGE_CURVE('', #108, #102, #526, .T.);
#912 = EDGE_CURVE('', #110, #112, #530, .T.);
#913 = EDGE_CURVE('', #106, #112, #535, .T.);
#914 = EDGE_CURVE('', #108, #110, #540, .T.);
#915 = EDGE_CURVE('', #114, #116, #544, .T.);
#916 = EDGE_CURVE('', #118, #120, #548, .T.);
#917 = EDGE_CURVE('', #114, #120, #552, .T.);
#918 = EDGE_CURVE('', #116, #118, #556, .T.);
#919 = EDGE_CURVE('', #120, #104, #560, .T.);
#920 = EDGE_CURVE('', #118, #102, #564, .T.);
#921 = EDGE_CURVE('', #112, #114, #568, .T.);
#922 = EDGE_CURVE('', #110, #116, #572, .T.);
#923 = EDGE_CURVE('', #108, #20, #576, .T.);
#924 = EDGE_CURVE('', #122, #124, #580, .T.);
#925 = EDGE_CURVE('', #126, #128, #584, .T.);
#926 = EDGE_CURVE('', #124, #128, #589, .T.);
#927 = EDGE_CURVE('', #122, #126, #594, .T.);
#928 = EDGE_CURVE('', #130, #132, #598, .T.);
#929 = EDGE_CURVE('', #134, #136, #602, .T.);
#930 = EDGE_CURVE('', #130, #136, #606, .T.);
#931 = EDGE_CURVE('', #132, #134, #610, .T.);
#932 = EDGE_CURVE('', #136, #128, #614, .T.);
#933 = EDGE_CURVE('', #134, #126, #618, .T.);
#934 = EDGE_CURVE('', #124, #130, #622, .T.);
#935 = EDGE_CURVE('', #122, #132, #626, .T.);
#936 = EDGE_CURVE('', #138, #140, #630, .T.);
#937 = EDGE_CURVE('', #142, #144, #634, .T.);
#938 = EDGE_CURVE('', #144, #140, #639, .T.);
#939 = EDGE_CURVE('', #142, #138, #644, .T.);
#940 = EDGE_CURVE('', #146, #148, #648, .T.);
#941 = EDGE_CURVE('', #150, #152, #652, .T.);
#942 = EDGE_CURVE('', #146, #152, #656, .T.);
#943 = EDGE_CURVE('', #148, #150, #660, .T.);
#944 = EDGE_CURVE('', #152, #144, #664, .T.);
#945 = EDGE_CURVE('', #150, #142, #668, .T.);
#946 = EDGE_CURVE('', #140, #146, #672, .T.);
#947 = EDGE_CURVE('', #138, #148, #676, .T.);
#948 = EDGE_CURVE('', #154, #156, #680, .T.);
#949 = EDGE_CURVE('', #158, #156, #685, .T.);
#950 = EDGE_CURVE('', #160, #154, #690, .T.);
#951 = EDGE_CURVE('', #162, #164, #694, .T.);
#952 = EDGE_CURVE('', #158, #164, #699, .T.);
#953 = EDGE_CURVE('', #160, #162, #704, .T.);
#954 = EDGE_CURVE('', #166, #168, #708, .T.);
#955 = EDGE_CURVE('', #170, #172, #712, .T.);
#956 = EDGE_CURVE('', #166, #172, #716, .T.);
#957 = EDGE_CURVE('', #168, #170, #720, .T.);
#958 = EDGE_CURVE('', #172, #156, #724, .T.);
#959 = EDGE_CURVE('', #170, #154, #728, .T.);
#960 = EDGE_CURVE('', #164, #166, #732, .T.);
#961 = EDGE_CURVE('', #162, #168, #736, .T.);
#962 = EDGE_CURVE('', #160, #44, #740, .T.);
#963 = EDGE_CURVE('', #174, #176, #744, .T.);
#964 = EDGE_CURVE('', #178, #180, #748, .T.);
#965 = EDGE_CURVE('', #176, #180, #753, .T.);
#966 = EDGE_CURVE('', #174, #178, #758, .T.);
#967 = EDGE_CURVE('', #182, #184, #762, .T.);
#968 = EDGE_CURVE('', #186, #188, #766, .T.);
#969 = EDGE_CURVE('', #182, #188, #770, .T.);
#970 = EDGE_CURVE('', #184, #186, #774, .T.);
#971 = EDGE_CURVE('', #188, #180, #778, .T.);
#972 = EDGE_CURVE('', #186, #178, #782, .T.);
#973 = EDGE_CURVE('', #176, #182, #786, .T.);
#974 = EDGE_CURVE('', #174, #184, #790, .T.);
#975 = EDGE_CURVE('', #190, #192, #794, .T.);
#976 = EDGE_CURVE('', #194, #196, #798, .T.);
#977 = EDGE_CURVE('', #196, #192, #803, .T.);
#978 = EDGE_CURVE('', #194, #190, #808, .T.);
#979 = EDGE_CURVE('', #198, #200, #812, .T.);
#980 = EDGE_CURVE('', #202, #204, #816, .T.);
#981 = EDGE_CURVE('', #198, #204, #820, .T.);
#982 = EDGE_CURVE('', #200, #202, #824, .T.);
#983 = EDGE_CURVE('', #204, #196, #828, .T.);
#984 = EDGE_CURVE('', #202, #194, #832, .T.);
#985 = EDGE_CURVE('', #192, #198, #836, .T.);
#986 = EDGE_CURVE('', #190, #200, #840, .T.);
#987 = CARTESIAN_POINT('', (0., -0., 500.));
#988 = DIRECTION('', (0., -0., 1.));
#989 = DIRECTION('', (1., 0., 0.));
#990 = AXIS2_PLACEMENT_3D('', #987, #988, #989);
#991 = CYLINDRICAL_SURFACE('', #990, 600.);
#992 = CARTESIAN_POINT('', (0., 0., -100.));
#993 = DIRECTION('', (0., -0., 1.));
#994 = AXIS2_PLACEMENT_3D('', #992, #993, $);
#995 = PLANE('', #994);
#996 = CARTESIAN_POINT('', (0., 0., 1100.));
#997 = DIRECTION('', (0., -0., 1.));
#998 = AXIS2_PLACEMENT_3D('', #996, #997, $);
#999 = PLANE('', #998);
#1000 = CARTESIAN_POINT('', (0., 0., 500.));
#1001 = DIRECTION('', (-0., -0., 1.));
#1002 = DIRECTION('', (1., -0., 0.));
#1003 = AXIS2_PLACEMENT_3D('', #1000, #1001, #1002);
#1004 = CYLINDRICAL_SURFACE('', #1003, 35.);
#1005 = CARTESIAN_POINT('', (0., 0., 0.));
#1006 = DIRECTION('', (0., -0., 1.));
#1007 = AXIS2_PLACEMENT_3D('', #1005, #1006, $);
#1008 = PLANE('', #1007);
#1009 = CARTESIAN_POINT('', (0., 0., 1000.));
#1010 = DIRECTION('', (0., -0., 1.));
#1011 = AXIS2_PLACEMENT_3D('', #1009, #1010, $);
#1012 = PLANE('', #1011);
#1013 = CARTESIAN_POINT('', (0., -0., 120.));
#1014 = DIRECTION('', (0., -0., 1.));
#1015 = DIRECTION('', (1., 0., 0.));
#1016 = AXIS2_PLACEMENT_3D('', #1013, #1014, #1015);
#1017 = CYLINDRICAL_SURFACE('', #1016, 100.);
#1018 = CARTESIAN_POINT('', (0., 0., 90.));
#1019 = DIRECTION('', (0., -0., 1.));
#1020 = AXIS2_PLACEMENT_3D('', #1018, #1019, $);
#1021 = PLANE('', #1020);
#1022 = CARTESIAN_POINT('', (0., 0., 150.));
#1023 = DIRECTION('', (0., -0., 1.));
#1024 = AXIS2_PLACEMENT_3D('', #1022, #1023, $);
#1025 = PLANE('', #1024);
#1026 = CARTESIAN_POINT('', (0., -0., 880.));
#1027 = DIRECTION('', (0., -0., 1.));
#1028 = DIRECTION('', (1., 0., 0.));
#1029 = AXIS2_PLACEMENT_3D('', #1026, #1027, #1028);
#1030 = CYLINDRICAL_SURFACE('', #1029, 100.);
#1031 = CARTESIAN_POINT('', (0., 0., 850.));
#1032 = DIRECTION('', (0., -0., 1.));
#1033 = AXIS2_PLACEMENT_3D('', #1031, #1032, $);
#1034 = PLANE('', #1033);
#1035 = CARTESIAN_POINT('', (0., 0., 910.));
#1036 = DIRECTION('', (0., -0., 1.));
#1037 = AXIS2_PLACEMENT_3D('', #1035, #1036, $);
#1038 = PLANE('', #1037);
#1039 = CARTESIAN_POINT('', (435.00000695, 49.99997896, 500.));
#1040 = DIRECTION('', (0.9816154, 0.19086963, -0.));
#1041 = AXIS2_PLACEMENT_3D('', #1039, #1040, $);
#1042 = PLANE('', #1041);
#1043 = CARTESIAN_POINT('', (364.99994189, 50.0000416, 500.));
#1044 = DIRECTION('', (-0.98161531, 0.19087005, 0.));
#1045 = AXIS2_PLACEMENT_3D('', #1043, #1044, $);
#1046 = PLANE('', #1045);
#1047 = CARTESIAN_POINT('', (400.00003358, -25.23375955, 500.));
#1048 = DIRECTION('', (0., 0., 1.));
#1049 = DIRECTION('', (-0.55555734, -0.83147823, 0.));
#1050 = AXIS2_PLACEMENT_3D('', #1047, #1048, #1049);
#1051 = CYLINDRICAL_SURFACE('', #1050, 125.99988072);
#1052 = CARTESIAN_POINT('', (0., 0., 0.));
#1053 = DIRECTION('', (0., -0., 1.));
#1054 = AXIS2_PLACEMENT_3D('', #1052, #1053, $);
#1055 = PLANE('', #1054);
#1056 = CARTESIAN_POINT('', (0., 0., 1000.));
#1057 = DIRECTION('', (0., -0., 1.));
#1058 = AXIS2_PLACEMENT_3D('', #1056, #1057, $);
#1059 = PLANE('', #1058);
#1060 = CARTESIAN_POINT('', (-260.80125544, 351.72106719, 500.));
#1061 = DIRECTION('', (-0.65610564, 0.75466906, 0.));
#1062 = AXIS2_PLACEMENT_3D('', #1060, #1061, $);
#1063 = PLANE('', #1062);
#1064 = CARTESIAN_POINT('', (-225.80127716, 291.09920125, 500.));
#1065 = DIRECTION('', (0.32550934, -0.94553882, 0.));
#1066 = AXIS2_PLACEMENT_3D('', #1064, #1065, $);
#1067 = PLANE('', #1066);
#1068 = CARTESIAN_POINT('', (-178.14693998, 359.02707037, 500.));
#1069 = DIRECTION('', (-0., -0., 1.));
#1070 = DIRECTION('', (0.99785994, -0.06538766, 0.));
#1071 = AXIS2_PLACEMENT_3D('', #1068, #1069, #1070);
#1072 = CYLINDRICAL_SURFACE('', #1071, 125.99988072);
#1073 = CARTESIAN_POINT('', (0., 0., 0.));
#1074 = DIRECTION('', (0., -0., 1.));
#1075 = AXIS2_PLACEMENT_3D('', #1073, #1074, $);
#1076 = PLANE('', #1075);
#1077 = CARTESIAN_POINT('', (0., 0., 1000.));
#1078 = DIRECTION('', (0., -0., 1.));
#1079 = AXIS2_PLACEMENT_3D('', #1077, #1078, $);
#1080 = PLANE('', #1079);
#1081 = CARTESIAN_POINT('', (-174.19875151, -401.72104615, 500.));
#1082 = DIRECTION('', (-0.32550975, -0.94553868, 0.));
#1083 = AXIS2_PLACEMENT_3D('', #1081, #1082, $);
#1084 = PLANE('', #1083);
#1085 = CARTESIAN_POINT('', (-139.19866473, -341.09924285, 500.));
#1086 = DIRECTION('', (0.65610597, 0.75466877, -0.));
#1087 = AXIS2_PLACEMENT_3D('', #1085, #1086, $);
#1088 = PLANE('', #1087);
#1089 = CARTESIAN_POINT('', (-221.85309359, -333.79331082, 500.));
#1090 = DIRECTION('', (0., -0., 1.));
#1091 = DIRECTION('', (-0.4423026, 0.89686588, 0.));
#1092 = AXIS2_PLACEMENT_3D('', #1089, #1090, #1091);
#1093 = CYLINDRICAL_SURFACE('', #1092, 125.99988072);
#1094 = CARTESIAN_POINT('', (0., 0., 0.));
#1095 = DIRECTION('', (0., 0., 1.));
#1096 = AXIS2_PLACEMENT_3D('', #1094, #1095, $);
#1097 = PLANE('', #1096);
#1098 = CARTESIAN_POINT('', (0., 0., 1000.));
#1099 = DIRECTION('', (0., 0., 1.));
#1100 = AXIS2_PLACEMENT_3D('', #1098, #1099, $);
#1101 = PLANE('', #1100);
#1102 = CARTESIAN_POINT('', (225., -35., 120.));
#1103 = DIRECTION('', (0., -1., 0.));
#1104 = AXIS2_PLACEMENT_3D('', #1102, #1103, $);
#1105 = PLANE('', #1104);
#1106 = CARTESIAN_POINT('', (225., 35., 120.));
#1107 = DIRECTION('', (0., 1., -0.));
#1108 = AXIS2_PLACEMENT_3D('', #1106, #1107, $);
#1109 = PLANE('', #1108);
#1110 = CARTESIAN_POINT('', (0., 0., 97.5));
#1111 = DIRECTION('', (0., -0., 1.));
#1112 = AXIS2_PLACEMENT_3D('', #1110, #1111, $);
#1113 = PLANE('', #1112);
#1114 = CARTESIAN_POINT('', (0., 0., 142.5));
#1115 = DIRECTION('', (0., -0., 1.));
#1116 = AXIS2_PLACEMENT_3D('', #1114, #1115, $);
#1117 = PLANE('', #1116);
#1118 = CARTESIAN_POINT('', (-82.18911087, 212.35571585, 120.));
#1119 = DIRECTION('', (0.8660254, 0.5, -0.));
#1120 = AXIS2_PLACEMENT_3D('', #1118, #1119, $);
#1121 = PLANE('', #1120);
#1122 = CARTESIAN_POINT('', (-142.81088913, 177.35571585, 120.));
#1123 = DIRECTION('', (-0.8660254, -0.5, 0.));
#1124 = AXIS2_PLACEMENT_3D('', #1122, #1123, $);
#1125 = PLANE('', #1124);
#1126 = CARTESIAN_POINT('', (0., 0., 97.5));
#1127 = DIRECTION('', (0., -0., 1.));
#1128 = AXIS2_PLACEMENT_3D('', #1126, #1127, $);
#1129 = PLANE('', #1128);
#1130 = CARTESIAN_POINT('', (0., 0., 142.5));
#1131 = DIRECTION('', (0., -0., 1.));
#1132 = AXIS2_PLACEMENT_3D('', #1130, #1131, $);
#1133 = PLANE('', #1132);
#1134 = CARTESIAN_POINT('', (-142.81088913, -177.35571585, 120.));
#1135 = DIRECTION('', (-0.8660254, 0.5, 0.));
#1136 = AXIS2_PLACEMENT_3D('', #1134, #1135, $);
#1137 = PLANE('', #1136);
#1138 = CARTESIAN_POINT('', (-82.18911087, -212.35571585, 120.));
#1139 = DIRECTION('', (0.8660254, -0.5, 0.));
#1140 = AXIS2_PLACEMENT_3D('', #1138, #1139, $);
#1141 = PLANE('', #1140);
#1142 = CARTESIAN_POINT('', (0., 0., 97.5));
#1143 = DIRECTION('', (0., 0., 1.));
#1144 = AXIS2_PLACEMENT_3D('', #1142, #1143, $);
#1145 = PLANE('', #1144);
#1146 = CARTESIAN_POINT('', (0., 0., 142.5));
#1147 = DIRECTION('', (0., 0., 1.));
#1148 = AXIS2_PLACEMENT_3D('', #1146, #1147, $);
#1149 = PLANE('', #1148);
#1150 = CARTESIAN_POINT('', (225., -35., 880.));
#1151 = DIRECTION('', (0., -1., 0.));
#1152 = AXIS2_PLACEMENT_3D('', #1150, #1151, $);
#1153 = PLANE('', #1152);
#1154 = CARTESIAN_POINT('', (225., 35., 880.));
#1155 = DIRECTION('', (0., 1., 0.));
#1156 = AXIS2_PLACEMENT_3D('', #1154, #1155, $);
#1157 = PLANE('', #1156);
#1158 = CARTESIAN_POINT('', (0., 0., 857.5));
#1159 = DIRECTION('', (0., -0., 1.));
#1160 = AXIS2_PLACEMENT_3D('', #1158, #1159, $);
#1161 = PLANE('', #1160);
#1162 = CARTESIAN_POINT('', (0., 0., 902.5));
#1163 = DIRECTION('', (0., -0., 1.));
#1164 = AXIS2_PLACEMENT_3D('', #1162, #1163, $);
#1165 = PLANE('', #1164);
#1166 = CARTESIAN_POINT('', (-82.18911087, 212.35571585, 880.));
#1167 = DIRECTION('', (0.8660254, 0.5, 0.));
#1168 = AXIS2_PLACEMENT_3D('', #1166, #1167, $);
#1169 = PLANE('', #1168);
#1170 = CARTESIAN_POINT('', (-142.81088913, 177.35571585, 880.));
#1171 = DIRECTION('', (-0.8660254, -0.5, 0.));
#1172 = AXIS2_PLACEMENT_3D('', #1170, #1171, $);
#1173 = PLANE('', #1172);
#1174 = CARTESIAN_POINT('', (0., 0., 857.5));
#1175 = DIRECTION('', (0., -0., 1.));
#1176 = AXIS2_PLACEMENT_3D('', #1174, #1175, $);
#1177 = PLANE('', #1176);
#1178 = CARTESIAN_POINT('', (0., 0., 902.5));
#1179 = DIRECTION('', (0., -0., 1.));
#1180 = AXIS2_PLACEMENT_3D('', #1178, #1179, $);
#1181 = PLANE('', #1180);
#1182 = CARTESIAN_POINT('', (-142.81088913, -177.35571585, 880.));
#1183 = DIRECTION('', (-0.8660254, 0.5, 0.));
#1184 = AXIS2_PLACEMENT_3D('', #1182, #1183, $);
#1185 = PLANE('', #1184);
#1186 = CARTESIAN_POINT('', (-82.18911087, -212.35571585, 880.));
#1187 = DIRECTION('', (0.8660254, -0.5, 0.));
#1188 = AXIS2_PLACEMENT_3D('', #1186, #1187, $);
#1189 = PLANE('', #1188);
#1190 = CARTESIAN_POINT('', (0., 0., 857.5));
#1191 = DIRECTION('', (0., 0., 1.));
#1192 = AXIS2_PLACEMENT_3D('', #1190, #1191, $);
#1193 = PLANE('', #1192);
#1194 = CARTESIAN_POINT('', (0., 0., 902.5));
#1195 = DIRECTION('', (0., 0., 1.));
#1196 = AXIS2_PLACEMENT_3D('', #1194, #1195, $);
#1197 = PLANE('', #1196);
#1198 = ORIENTED_EDGE('', *, *, #841, .T.);
#1199 = ORIENTED_EDGE('', *, *, #843, .F.);
#1200 = EDGE_LOOP('', (#1198));
#1201 = FACE_BOUND('', #1200, .T.);
#1202 = EDGE_LOOP('', (#1199));
#1203 = FACE_BOUND('', #1202, .T.);
#1204 = ADVANCED_FACE('', (#1201, #1203), #991, .T.);
#1205 = ORIENTED_EDGE('', *, *, #841, .F.);
#1206 = EDGE_LOOP('', (#1205));
#1207 = FACE_BOUND('', #1206, .T.);
#1208 = ADVANCED_FACE('', (#1207), #995, .F.);
#1209 = ORIENTED_EDGE('', *, *, #843, .T.);
#1210 = EDGE_LOOP('', (#1209));
#1211 = FACE_BOUND('', #1210, .T.);
#1212 = ADVANCED_FACE('', (#1211), #999, .T.);
#1213 = ORIENTED_EDGE('', *, *, #847, .F.);
#1214 = ORIENTED_EDGE('', *, *, #844, .F.);
#1215 = EDGE_LOOP('', (#1213, #1214));
#1216 = FACE_BOUND('', #1215, .T.);
#1217 = ADVANCED_FACE('', (#1216), #1008, .F.);
#1218 = ORIENTED_EDGE('', *, *, #846, .T.);
#1219 = ORIENTED_EDGE('', *, *, #848, .T.);
#1220 = EDGE_LOOP('', (#1218, #1219));
#1221 = FACE_BOUND('', #1220, .T.);
#1222 = ADVANCED_FACE('', (#1221), #1012, .T.);
#1223 = ORIENTED_EDGE('', *, *, #855, .T.);
#1224 = ORIENTED_EDGE('', *, *, #852, .F.);
#1225 = ORIENTED_EDGE('', *, *, #923, .F.);
#1226 = ORIENTED_EDGE('', *, *, #911, .T.);
#1227 = ORIENTED_EDGE('', *, *, #909, .T.);
#1228 = ORIENTED_EDGE('', *, *, #910, .F.);
#1229 = ORIENTED_EDGE('', *, *, #851, .F.);
#1230 = ORIENTED_EDGE('', *, *, #850, .T.);
#1231 = ORIENTED_EDGE('', *, *, #924, .F.);
#1232 = ORIENTED_EDGE('', *, *, #927, .T.);
#1233 = ORIENTED_EDGE('', *, *, #925, .T.);
#1234 = ORIENTED_EDGE('', *, *, #926, .F.);
#1235 = EDGE_LOOP('', (#1223, #1224, #1225, #1226, #1227, #1228, #1229, #1230));
#1236 = FACE_BOUND('', #1235, .T.);
#1237 = EDGE_LOOP('', (#1231, #1232, #1233, #1234));
#1238 = FACE_BOUND('', #1237, .T.);
#1239 = ADVANCED_FACE('', (#1236, #1238), #1017, .T.);
#1240 = ORIENTED_EDGE('', *, *, #853, .F.);
#1241 = ORIENTED_EDGE('', *, *, #850, .F.);
#1242 = ORIENTED_EDGE('', *, *, #861, .T.);
#1243 = ORIENTED_EDGE('', *, *, #860, .F.);
#1244 = ORIENTED_EDGE('', *, *, #858, .F.);
#1245 = ORIENTED_EDGE('', *, *, #856, .T.);
#1246 = EDGE_LOOP('', (#1240, #1241));
#1247 = FACE_BOUND('', #1246, .T.);
#1248 = EDGE_LOOP('', (#1242, #1243, #1244, #1245));
#1249 = FACE_BOUND('', #1248, .T.);
#1250 = ADVANCED_FACE('', (#1247, #1249), #1021, .F.);
#1251 = ORIENTED_EDGE('', *, *, #852, .T.);
#1252 = ORIENTED_EDGE('', *, *, #854, .T.);
#1253 = ORIENTED_EDGE('', *, *, #857, .F.);
#1254 = ORIENTED_EDGE('', *, *, #859, .T.);
#1255 = ORIENTED_EDGE('', *, *, #862, .T.);
#1256 = ORIENTED_EDGE('', *, *, #863, .F.);
#1257 = EDGE_LOOP('', (#1251, #1252));
#1258 = FACE_BOUND('', #1257, .T.);
#1259 = EDGE_LOOP('', (#1253, #1254, #1255, #1256));
#1260 = FACE_BOUND('', #1259, .T.);
#1261 = ADVANCED_FACE('', (#1258, #1260), #1025, .T.);
#1262 = ORIENTED_EDGE('', *, *, #855, .F.);
#1263 = ORIENTED_EDGE('', *, *, #853, .T.);
#1264 = ORIENTED_EDGE('', *, *, #851, .T.);
#1265 = ORIENTED_EDGE('', *, *, #913, .T.);
#1266 = ORIENTED_EDGE('', *, *, #912, .F.);
#1267 = ORIENTED_EDGE('', *, *, #914, .F.);
#1268 = ORIENTED_EDGE('', *, *, #923, .T.);
#1269 = ORIENTED_EDGE('', *, *, #854, .F.);
#1270 = ORIENTED_EDGE('', *, *, #936, .F.);
#1271 = ORIENTED_EDGE('', *, *, #939, .F.);
#1272 = ORIENTED_EDGE('', *, *, #937, .T.);
#1273 = ORIENTED_EDGE('', *, *, #938, .T.);
#1274 = EDGE_LOOP('', (#1262, #1263, #1264, #1265, #1266, #1267, #1268, #1269));
#1275 = FACE_BOUND('', #1274, .T.);
#1276 = EDGE_LOOP('', (#1270, #1271, #1272, #1273));
#1277 = FACE_BOUND('', #1276, .T.);
#1278 = ADVANCED_FACE('', (#1275, #1277), #1017, .T.);
#1279 = ORIENTED_EDGE('', *, *, #849, .F.);
#1280 = ORIENTED_EDGE('', *, *, #847, .T.);
#1281 = ORIENTED_EDGE('', *, *, #845, .T.);
#1282 = ORIENTED_EDGE('', *, *, #858, .T.);
#1283 = ORIENTED_EDGE('', *, *, #860, .T.);
#1284 = EDGE_LOOP('', (#1279, #1280, #1281, #1282, #1283));
#1285 = FACE_BOUND('', #1284, .T.);
#1286 = ADVANCED_FACE('', (#1285), #1004, .T.);
#1287 = ORIENTED_EDGE('', *, *, #849, .T.);
#1288 = ORIENTED_EDGE('', *, *, #861, .F.);
#1289 = ORIENTED_EDGE('', *, *, #856, .F.);
#1290 = ORIENTED_EDGE('', *, *, #845, .F.);
#1291 = ORIENTED_EDGE('', *, *, #844, .T.);
#1292 = EDGE_LOOP('', (#1287, #1288, #1289, #1290, #1291));
#1293 = FACE_BOUND('', #1292, .T.);
#1294 = ADVANCED_FACE('', (#1293), #1004, .T.);
#1295 = ORIENTED_EDGE('', *, *, #864, .T.);
#1296 = ORIENTED_EDGE('', *, *, #876, .F.);
#1297 = ORIENTED_EDGE('', *, *, #874, .F.);
#1298 = ORIENTED_EDGE('', *, *, #865, .F.);
#1299 = ORIENTED_EDGE('', *, *, #857, .T.);
#1300 = ORIENTED_EDGE('', *, *, #863, .T.);
#1301 = EDGE_LOOP('', (#1295, #1296, #1297, #1298, #1299, #1300));
#1302 = FACE_BOUND('', #1301, .T.);
#1303 = ADVANCED_FACE('', (#1302), #1004, .T.);
#1304 = ORIENTED_EDGE('', *, *, #871, .T.);
#1305 = ORIENTED_EDGE('', *, *, #868, .F.);
#1306 = ORIENTED_EDGE('', *, *, #962, .F.);
#1307 = ORIENTED_EDGE('', *, *, #950, .T.);
#1308 = ORIENTED_EDGE('', *, *, #948, .T.);
#1309 = ORIENTED_EDGE('', *, *, #949, .F.);
#1310 = ORIENTED_EDGE('', *, *, #867, .F.);
#1311 = ORIENTED_EDGE('', *, *, #866, .T.);
#1312 = ORIENTED_EDGE('', *, *, #963, .F.);
#1313 = ORIENTED_EDGE('', *, *, #966, .T.);
#1314 = ORIENTED_EDGE('', *, *, #964, .T.);
#1315 = ORIENTED_EDGE('', *, *, #965, .F.);
#1316 = EDGE_LOOP('', (#1304, #1305, #1306, #1307, #1308, #1309, #1310, #1311));
#1317 = FACE_BOUND('', #1316, .T.);
#1318 = EDGE_LOOP('', (#1312, #1313, #1314, #1315));
#1319 = FACE_BOUND('', #1318, .T.);
#1320 = ADVANCED_FACE('', (#1317, #1319), #1030, .T.);
#1321 = ORIENTED_EDGE('', *, *, #869, .F.);
#1322 = ORIENTED_EDGE('', *, *, #866, .F.);
#1323 = ORIENTED_EDGE('', *, *, #874, .T.);
#1324 = ORIENTED_EDGE('', *, *, #876, .T.);
#1325 = ORIENTED_EDGE('', *, *, #877, .F.);
#1326 = ORIENTED_EDGE('', *, *, #872, .F.);
#1327 = EDGE_LOOP('', (#1321, #1322));
#1328 = FACE_BOUND('', #1327, .T.);
#1329 = EDGE_LOOP('', (#1323, #1324, #1325, #1326));
#1330 = FACE_BOUND('', #1329, .T.);
#1331 = ADVANCED_FACE('', (#1328, #1330), #1034, .F.);
#1332 = ORIENTED_EDGE('', *, *, #868, .T.);
#1333 = ORIENTED_EDGE('', *, *, #870, .T.);
#1334 = ORIENTED_EDGE('', *, *, #873, .T.);
#1335 = ORIENTED_EDGE('', *, *, #879, .T.);
#1336 = ORIENTED_EDGE('', *, *, #878, .F.);
#1337 = ORIENTED_EDGE('', *, *, #875, .F.);
#1338 = EDGE_LOOP('', (#1332, #1333));
#1339 = FACE_BOUND('', #1338, .T.);
#1340 = EDGE_LOOP('', (#1334, #1335, #1336, #1337));
#1341 = FACE_BOUND('', #1340, .T.);
#1342 = ADVANCED_FACE('', (#1339, #1341), #1038, .T.);
#1343 = ORIENTED_EDGE('', *, *, #871, .F.);
#1344 = ORIENTED_EDGE('', *, *, #869, .T.);
#1345 = ORIENTED_EDGE('', *, *, #867, .T.);
#1346 = ORIENTED_EDGE('', *, *, #952, .T.);
#1347 = ORIENTED_EDGE('', *, *, #951, .F.);
#1348 = ORIENTED_EDGE('', *, *, #953, .F.);
#1349 = ORIENTED_EDGE('', *, *, #962, .T.);
#1350 = ORIENTED_EDGE('', *, *, #870, .F.);
#1351 = ORIENTED_EDGE('', *, *, #975, .F.);
#1352 = ORIENTED_EDGE('', *, *, #978, .F.);
#1353 = ORIENTED_EDGE('', *, *, #976, .T.);
#1354 = ORIENTED_EDGE('', *, *, #977, .T.);
#1355 = EDGE_LOOP('', (#1343, #1344, #1345, #1346, #1347, #1348, #1349, #1350));
#1356 = FACE_BOUND('', #1355, .T.);
#1357 = EDGE_LOOP('', (#1351, #1352, #1353, #1354));
#1358 = FACE_BOUND('', #1357, .T.);
#1359 = ADVANCED_FACE('', (#1356, #1358), #1030, .T.);
#1360 = ORIENTED_EDGE('', *, *, #880, .T.);
#1361 = ORIENTED_EDGE('', *, *, #846, .F.);
#1362 = ORIENTED_EDGE('', *, *, #881, .F.);
#1363 = ORIENTED_EDGE('', *, *, #875, .T.);
#1364 = ORIENTED_EDGE('', *, *, #878, .T.);
#1365 = EDGE_LOOP('', (#1360, #1361, #1362, #1363, #1364));
#1366 = FACE_BOUND('', #1365, .T.);
#1367 = ADVANCED_FACE('', (#1366), #1004, .T.);
#1368 = ORIENTED_EDGE('', *, *, #864, .F.);
#1369 = ORIENTED_EDGE('', *, *, #862, .F.);
#1370 = ORIENTED_EDGE('', *, *, #859, .F.);
#1371 = ORIENTED_EDGE('', *, *, #865, .T.);
#1372 = ORIENTED_EDGE('', *, *, #872, .T.);
#1373 = ORIENTED_EDGE('', *, *, #877, .T.);
#1374 = EDGE_LOOP('', (#1368, #1369, #1370, #1371, #1372, #1373));
#1375 = FACE_BOUND('', #1374, .T.);
#1376 = ADVANCED_FACE('', (#1375), #1004, .T.);
#1377 = ORIENTED_EDGE('', *, *, #880, .F.);
#1378 = ORIENTED_EDGE('', *, *, #879, .F.);
#1379 = ORIENTED_EDGE('', *, *, #873, .F.);
#1380 = ORIENTED_EDGE('', *, *, #881, .T.);
#1381 = ORIENTED_EDGE('', *, *, #848, .F.);
#1382 = EDGE_LOOP('', (#1377, #1378, #1379, #1380, #1381));
#1383 = FACE_BOUND('', #1382, .T.);
#1384 = ADVANCED_FACE('', (#1383), #1004, .T.);
#1385 = ORIENTED_EDGE('', *, *, #882, .T.);
#1386 = ORIENTED_EDGE('', *, *, #883, .T.);
#1387 = ORIENTED_EDGE('', *, *, #884, .F.);
#1388 = ORIENTED_EDGE('', *, *, #885, .F.);
#1389 = EDGE_LOOP('', (#1385, #1386, #1387, #1388));
#1390 = FACE_BOUND('', #1389, .T.);
#1391 = ADVANCED_FACE('', (#1390), #1042, .T.);
#1392 = ORIENTED_EDGE('', *, *, #886, .T.);
#1393 = ORIENTED_EDGE('', *, *, #887, .T.);
#1394 = ORIENTED_EDGE('', *, *, #888, .F.);
#1395 = ORIENTED_EDGE('', *, *, #883, .F.);
#1396 = ORIENTED_EDGE('', *, *, #915, .F.);
#1397 = ORIENTED_EDGE('', *, *, #917, .T.);
#1398 = ORIENTED_EDGE('', *, *, #916, .F.);
#1399 = ORIENTED_EDGE('', *, *, #918, .F.);
#1400 = ORIENTED_EDGE('', *, *, #954, .F.);
#1401 = ORIENTED_EDGE('', *, *, #956, .T.);
#1402 = ORIENTED_EDGE('', *, *, #955, .F.);
#1403 = ORIENTED_EDGE('', *, *, #957, .F.);
#1404 = EDGE_LOOP('', (#1392, #1393, #1394, #1395));
#1405 = FACE_BOUND('', #1404, .T.);
#1406 = EDGE_LOOP('', (#1396, #1397, #1398, #1399));
#1407 = FACE_BOUND('', #1406, .T.);
#1408 = EDGE_LOOP('', (#1400, #1401, #1402, #1403));
#1409 = FACE_BOUND('', #1408, .T.);
#1410 = ADVANCED_FACE('', (#1405, #1407, #1409), #1046, .T.);
#1411 = ORIENTED_EDGE('', *, *, #889, .T.);
#1412 = ORIENTED_EDGE('', *, *, #885, .T.);
#1413 = ORIENTED_EDGE('', *, *, #890, .F.);
#1414 = ORIENTED_EDGE('', *, *, #887, .F.);
#1415 = EDGE_LOOP('', (#1411, #1412, #1413, #1414));
#1416 = FACE_BOUND('', #1415, .T.);
#1417 = ADVANCED_FACE('', (#1416), #1051, .T.);
#1418 = ORIENTED_EDGE('', *, *, #889, .F.);
#1419 = ORIENTED_EDGE('', *, *, #886, .F.);
#1420 = ORIENTED_EDGE('', *, *, #882, .F.);
#1421 = EDGE_LOOP('', (#1418, #1419, #1420));
#1422 = FACE_BOUND('', #1421, .T.);
#1423 = ADVANCED_FACE('', (#1422), #1055, .F.);
#1424 = ORIENTED_EDGE('', *, *, #884, .T.);
#1425 = ORIENTED_EDGE('', *, *, #888, .T.);
#1426 = ORIENTED_EDGE('', *, *, #890, .T.);
#1427 = EDGE_LOOP('', (#1424, #1425, #1426));
#1428 = FACE_BOUND('', #1427, .T.);
#1429 = ADVANCED_FACE('', (#1428), #1059, .T.);
#1430 = ORIENTED_EDGE('', *, *, #891, .T.);
#1431 = ORIENTED_EDGE('', *, *, #892, .T.);
#1432 = ORIENTED_EDGE('', *, *, #893, .F.);
#1433 = ORIENTED_EDGE('', *, *, #894, .F.);
#1434 = EDGE_LOOP('', (#1430, #1431, #1432, #1433));
#1435 = FACE_BOUND('', #1434, .T.);
#1436 = ADVANCED_FACE('', (#1435), #1063, .T.);
#1437 = ORIENTED_EDGE('', *, *, #895, .T.);
#1438 = ORIENTED_EDGE('', *, *, #896, .T.);
#1439 = ORIENTED_EDGE('', *, *, #897, .F.);
#1440 = ORIENTED_EDGE('', *, *, #892, .F.);
#1441 = ORIENTED_EDGE('', *, *, #928, .F.);
#1442 = ORIENTED_EDGE('', *, *, #930, .T.);
#1443 = ORIENTED_EDGE('', *, *, #929, .F.);
#1444 = ORIENTED_EDGE('', *, *, #931, .F.);
#1445 = ORIENTED_EDGE('', *, *, #967, .F.);
#1446 = ORIENTED_EDGE('', *, *, #969, .T.);
#1447 = ORIENTED_EDGE('', *, *, #968, .F.);
#1448 = ORIENTED_EDGE('', *, *, #970, .F.);
#1449 = EDGE_LOOP('', (#1437, #1438, #1439, #1440));
#1450 = FACE_BOUND('', #1449, .T.);
#1451 = EDGE_LOOP('', (#1441, #1442, #1443, #1444));
#1452 = FACE_BOUND('', #1451, .T.);
#1453 = EDGE_LOOP('', (#1445, #1446, #1447, #1448));
#1454 = FACE_BOUND('', #1453, .T.);
#1455 = ADVANCED_FACE('', (#1450, #1452, #1454), #1067, .T.);
#1456 = ORIENTED_EDGE('', *, *, #898, .T.);
#1457 = ORIENTED_EDGE('', *, *, #894, .T.);
#1458 = ORIENTED_EDGE('', *, *, #899, .F.);
#1459 = ORIENTED_EDGE('', *, *, #896, .F.);
#1460 = EDGE_LOOP('', (#1456, #1457, #1458, #1459));
#1461 = FACE_BOUND('', #1460, .T.);
#1462 = ADVANCED_FACE('', (#1461), #1072, .T.);
#1463 = ORIENTED_EDGE('', *, *, #898, .F.);
#1464 = ORIENTED_EDGE('', *, *, #895, .F.);
#1465 = ORIENTED_EDGE('', *, *, #891, .F.);
#1466 = EDGE_LOOP('', (#1463, #1464, #1465));
#1467 = FACE_BOUND('', #1466, .T.);
#1468 = ADVANCED_FACE('', (#1467), #1076, .F.);
#1469 = ORIENTED_EDGE('', *, *, #893, .T.);
#1470 = ORIENTED_EDGE('', *, *, #897, .T.);
#1471 = ORIENTED_EDGE('', *, *, #899, .T.);
#1472 = EDGE_LOOP('', (#1469, #1470, #1471));
#1473 = FACE_BOUND('', #1472, .T.);
#1474 = ADVANCED_FACE('', (#1473), #1080, .T.);
#1475 = ORIENTED_EDGE('', *, *, #900, .T.);
#1476 = ORIENTED_EDGE('', *, *, #901, .T.);
#1477 = ORIENTED_EDGE('', *, *, #902, .F.);
#1478 = ORIENTED_EDGE('', *, *, #903, .F.);
#1479 = EDGE_LOOP('', (#1475, #1476, #1477, #1478));
#1480 = FACE_BOUND('', #1479, .T.);
#1481 = ADVANCED_FACE('', (#1480), #1084, .T.);
#1482 = ORIENTED_EDGE('', *, *, #904, .T.);
#1483 = ORIENTED_EDGE('', *, *, #905, .T.);
#1484 = ORIENTED_EDGE('', *, *, #906, .F.);
#1485 = ORIENTED_EDGE('', *, *, #901, .F.);
#1486 = ORIENTED_EDGE('', *, *, #940, .F.);
#1487 = ORIENTED_EDGE('', *, *, #942, .T.);
#1488 = ORIENTED_EDGE('', *, *, #941, .F.);
#1489 = ORIENTED_EDGE('', *, *, #943, .F.);
#1490 = ORIENTED_EDGE('', *, *, #979, .F.);
#1491 = ORIENTED_EDGE('', *, *, #981, .T.);
#1492 = ORIENTED_EDGE('', *, *, #980, .F.);
#1493 = ORIENTED_EDGE('', *, *, #982, .F.);
#1494 = EDGE_LOOP('', (#1482, #1483, #1484, #1485));
#1495 = FACE_BOUND('', #1494, .T.);
#1496 = EDGE_LOOP('', (#1486, #1487, #1488, #1489));
#1497 = FACE_BOUND('', #1496, .T.);
#1498 = EDGE_LOOP('', (#1490, #1491, #1492, #1493));
#1499 = FACE_BOUND('', #1498, .T.);
#1500 = ADVANCED_FACE('', (#1495, #1497, #1499), #1088, .T.);
#1501 = ORIENTED_EDGE('', *, *, #907, .T.);
#1502 = ORIENTED_EDGE('', *, *, #903, .T.);
#1503 = ORIENTED_EDGE('', *, *, #908, .F.);
#1504 = ORIENTED_EDGE('', *, *, #905, .F.);
#1505 = EDGE_LOOP('', (#1501, #1502, #1503, #1504));
#1506 = FACE_BOUND('', #1505, .T.);
#1507 = ADVANCED_FACE('', (#1506), #1093, .T.);
#1508 = ORIENTED_EDGE('', *, *, #907, .F.);
#1509 = ORIENTED_EDGE('', *, *, #904, .F.);
#1510 = ORIENTED_EDGE('', *, *, #900, .F.);
#1511 = EDGE_LOOP('', (#1508, #1509, #1510));
#1512 = FACE_BOUND('', #1511, .T.);
#1513 = ADVANCED_FACE('', (#1512), #1097, .F.);
#1514 = ORIENTED_EDGE('', *, *, #902, .T.);
#1515 = ORIENTED_EDGE('', *, *, #906, .T.);
#1516 = ORIENTED_EDGE('', *, *, #908, .T.);
#1517 = EDGE_LOOP('', (#1514, #1515, #1516));
#1518 = FACE_BOUND('', #1517, .T.);
#1519 = ADVANCED_FACE('', (#1518), #1101, .T.);
#1520 = ORIENTED_EDGE('', *, *, #921, .T.);
#1521 = ORIENTED_EDGE('', *, *, #915, .T.);
#1522 = ORIENTED_EDGE('', *, *, #922, .F.);
#1523 = ORIENTED_EDGE('', *, *, #912, .T.);
#1524 = EDGE_LOOP('', (#1520, #1521, #1522, #1523));
#1525 = FACE_BOUND('', #1524, .T.);
#1526 = ADVANCED_FACE('', (#1525), #1105, .T.);
#1527 = ORIENTED_EDGE('', *, *, #922, .T.);
#1528 = ORIENTED_EDGE('', *, *, #918, .T.);
#1529 = ORIENTED_EDGE('', *, *, #920, .T.);
#1530 = ORIENTED_EDGE('', *, *, #911, .F.);
#1531 = ORIENTED_EDGE('', *, *, #914, .T.);
#1532 = EDGE_LOOP('', (#1527, #1528, #1529, #1530, #1531));
#1533 = FACE_BOUND('', #1532, .T.);
#1534 = ADVANCED_FACE('', (#1533), #1117, .T.);
#1535 = ORIENTED_EDGE('', *, *, #913, .F.);
#1536 = ORIENTED_EDGE('', *, *, #910, .T.);
#1537 = ORIENTED_EDGE('', *, *, #919, .F.);
#1538 = ORIENTED_EDGE('', *, *, #917, .F.);
#1539 = ORIENTED_EDGE('', *, *, #921, .F.);
#1540 = EDGE_LOOP('', (#1535, #1536, #1537, #1538, #1539));
#1541 = FACE_BOUND('', #1540, .T.);
#1542 = ADVANCED_FACE('', (#1541), #1113, .F.);
#1543 = ORIENTED_EDGE('', *, *, #919, .T.);
#1544 = ORIENTED_EDGE('', *, *, #909, .F.);
#1545 = ORIENTED_EDGE('', *, *, #920, .F.);
#1546 = ORIENTED_EDGE('', *, *, #916, .T.);
#1547 = EDGE_LOOP('', (#1543, #1544, #1545, #1546));
#1548 = FACE_BOUND('', #1547, .T.);
#1549 = ADVANCED_FACE('', (#1548), #1109, .T.);
#1550 = ORIENTED_EDGE('', *, *, #935, .T.);
#1551 = ORIENTED_EDGE('', *, *, #931, .T.);
#1552 = ORIENTED_EDGE('', *, *, #933, .T.);
#1553 = ORIENTED_EDGE('', *, *, #927, .F.);
#1554 = EDGE_LOOP('', (#1550, #1551, #1552, #1553));
#1555 = FACE_BOUND('', #1554, .T.);
#1556 = ADVANCED_FACE('', (#1555), #1133, .T.);
#1557 = ORIENTED_EDGE('', *, *, #926, .T.);
#1558 = ORIENTED_EDGE('', *, *, #932, .F.);
#1559 = ORIENTED_EDGE('', *, *, #930, .F.);
#1560 = ORIENTED_EDGE('', *, *, #934, .F.);
#1561 = EDGE_LOOP('', (#1557, #1558, #1559, #1560));
#1562 = FACE_BOUND('', #1561, .T.);
#1563 = ADVANCED_FACE('', (#1562), #1129, .F.);
#1564 = ORIENTED_EDGE('', *, *, #932, .T.);
#1565 = ORIENTED_EDGE('', *, *, #925, .F.);
#1566 = ORIENTED_EDGE('', *, *, #933, .F.);
#1567 = ORIENTED_EDGE('', *, *, #929, .T.);
#1568 = EDGE_LOOP('', (#1564, #1565, #1566, #1567));
#1569 = FACE_BOUND('', #1568, .T.);
#1570 = ADVANCED_FACE('', (#1569), #1125, .T.);
#1571 = ORIENTED_EDGE('', *, *, #934, .T.);
#1572 = ORIENTED_EDGE('', *, *, #928, .T.);
#1573 = ORIENTED_EDGE('', *, *, #935, .F.);
#1574 = ORIENTED_EDGE('', *, *, #924, .T.);
#1575 = EDGE_LOOP('', (#1571, #1572, #1573, #1574));
#1576 = FACE_BOUND('', #1575, .T.);
#1577 = ADVANCED_FACE('', (#1576), #1121, .T.);
#1578 = ORIENTED_EDGE('', *, *, #938, .F.);
#1579 = ORIENTED_EDGE('', *, *, #944, .F.);
#1580 = ORIENTED_EDGE('', *, *, #942, .F.);
#1581 = ORIENTED_EDGE('', *, *, #946, .F.);
#1582 = EDGE_LOOP('', (#1578, #1579, #1580, #1581));
#1583 = FACE_BOUND('', #1582, .T.);
#1584 = ADVANCED_FACE('', (#1583), #1145, .F.);
#1585 = ORIENTED_EDGE('', *, *, #944, .T.);
#1586 = ORIENTED_EDGE('', *, *, #937, .F.);
#1587 = ORIENTED_EDGE('', *, *, #945, .F.);
#1588 = ORIENTED_EDGE('', *, *, #941, .T.);
#1589 = EDGE_LOOP('', (#1585, #1586, #1587, #1588));
#1590 = FACE_BOUND('', #1589, .T.);
#1591 = ADVANCED_FACE('', (#1590), #1141, .T.);
#1592 = ORIENTED_EDGE('', *, *, #946, .T.);
#1593 = ORIENTED_EDGE('', *, *, #940, .T.);
#1594 = ORIENTED_EDGE('', *, *, #947, .F.);
#1595 = ORIENTED_EDGE('', *, *, #936, .T.);
#1596 = EDGE_LOOP('', (#1592, #1593, #1594, #1595));
#1597 = FACE_BOUND('', #1596, .T.);
#1598 = ADVANCED_FACE('', (#1597), #1137, .T.);
#1599 = ORIENTED_EDGE('', *, *, #947, .T.);
#1600 = ORIENTED_EDGE('', *, *, #943, .T.);
#1601 = ORIENTED_EDGE('', *, *, #945, .T.);
#1602 = ORIENTED_EDGE('', *, *, #939, .T.);
#1603 = EDGE_LOOP('', (#1599, #1600, #1601, #1602));
#1604 = FACE_BOUND('', #1603, .T.);
#1605 = ADVANCED_FACE('', (#1604), #1149, .T.);
#1606 = ORIENTED_EDGE('', *, *, #960, .T.);
#1607 = ORIENTED_EDGE('', *, *, #954, .T.);
#1608 = ORIENTED_EDGE('', *, *, #961, .F.);
#1609 = ORIENTED_EDGE('', *, *, #951, .T.);
#1610 = EDGE_LOOP('', (#1606, #1607, #1608, #1609));
#1611 = FACE_BOUND('', #1610, .T.);
#1612 = ADVANCED_FACE('', (#1611), #1153, .T.);
#1613 = ORIENTED_EDGE('', *, *, #952, .F.);
#1614 = ORIENTED_EDGE('', *, *, #949, .T.);
#1615 = ORIENTED_EDGE('', *, *, #958, .F.);
#1616 = ORIENTED_EDGE('', *, *, #956, .F.);
#1617 = ORIENTED_EDGE('', *, *, #960, .F.);
#1618 = EDGE_LOOP('', (#1613, #1614, #1615, #1616, #1617));
#1619 = FACE_BOUND('', #1618, .T.);
#1620 = ADVANCED_FACE('', (#1619), #1161, .F.);
#1621 = ORIENTED_EDGE('', *, *, #958, .T.);
#1622 = ORIENTED_EDGE('', *, *, #948, .F.);
#1623 = ORIENTED_EDGE('', *, *, #959, .F.);
#1624 = ORIENTED_EDGE('', *, *, #955, .T.);
#1625 = EDGE_LOOP('', (#1621, #1622, #1623, #1624));
#1626 = FACE_BOUND('', #1625, .T.);
#1627 = ADVANCED_FACE('', (#1626), #1157, .T.);
#1628 = ORIENTED_EDGE('', *, *, #961, .T.);
#1629 = ORIENTED_EDGE('', *, *, #957, .T.);
#1630 = ORIENTED_EDGE('', *, *, #959, .T.);
#1631 = ORIENTED_EDGE('', *, *, #950, .F.);
#1632 = ORIENTED_EDGE('', *, *, #953, .T.);
#1633 = EDGE_LOOP('', (#1628, #1629, #1630, #1631, #1632));
#1634 = FACE_BOUND('', #1633, .T.);
#1635 = ADVANCED_FACE('', (#1634), #1165, .T.);
#1636 = ORIENTED_EDGE('', *, *, #974, .T.);
#1637 = ORIENTED_EDGE('', *, *, #970, .T.);
#1638 = ORIENTED_EDGE('', *, *, #972, .T.);
#1639 = ORIENTED_EDGE('', *, *, #966, .F.);
#1640 = EDGE_LOOP('', (#1636, #1637, #1638, #1639));
#1641 = FACE_BOUND('', #1640, .T.);
#1642 = ADVANCED_FACE('', (#1641), #1181, .T.);
#1643 = ORIENTED_EDGE('', *, *, #965, .T.);
#1644 = ORIENTED_EDGE('', *, *, #971, .F.);
#1645 = ORIENTED_EDGE('', *, *, #969, .F.);
#1646 = ORIENTED_EDGE('', *, *, #973, .F.);
#1647 = EDGE_LOOP('', (#1643, #1644, #1645, #1646));
#1648 = FACE_BOUND('', #1647, .T.);
#1649 = ADVANCED_FACE('', (#1648), #1177, .F.);
#1650 = ORIENTED_EDGE('', *, *, #971, .T.);
#1651 = ORIENTED_EDGE('', *, *, #964, .F.);
#1652 = ORIENTED_EDGE('', *, *, #972, .F.);
#1653 = ORIENTED_EDGE('', *, *, #968, .T.);
#1654 = EDGE_LOOP('', (#1650, #1651, #1652, #1653));
#1655 = FACE_BOUND('', #1654, .T.);
#1656 = ADVANCED_FACE('', (#1655), #1173, .T.);
#1657 = ORIENTED_EDGE('', *, *, #973, .T.);
#1658 = ORIENTED_EDGE('', *, *, #967, .T.);
#1659 = ORIENTED_EDGE('', *, *, #974, .F.);
#1660 = ORIENTED_EDGE('', *, *, #963, .T.);
#1661 = EDGE_LOOP('', (#1657, #1658, #1659, #1660));
#1662 = FACE_BOUND('', #1661, .T.);
#1663 = ADVANCED_FACE('', (#1662), #1169, .T.);
#1664 = ORIENTED_EDGE('', *, *, #986, .T.);
#1665 = ORIENTED_EDGE('', *, *, #982, .T.);
#1666 = ORIENTED_EDGE('', *, *, #984, .T.);
#1667 = ORIENTED_EDGE('', *, *, #978, .T.);
#1668 = EDGE_LOOP('', (#1664, #1665, #1666, #1667));
#1669 = FACE_BOUND('', #1668, .T.);
#1670 = ADVANCED_FACE('', (#1669), #1197, .T.);
#1671 = ORIENTED_EDGE('', *, *, #977, .F.);
#1672 = ORIENTED_EDGE('', *, *, #983, .F.);
#1673 = ORIENTED_EDGE('', *, *, #981, .F.);
#1674 = ORIENTED_EDGE('', *, *, #985, .F.);
#1675 = EDGE_LOOP('', (#1671, #1672, #1673, #1674));
#1676 = FACE_BOUND('', #1675, .T.);
#1677 = ADVANCED_FACE('', (#1676), #1193, .F.);
#1678 = ORIENTED_EDGE('', *, *, #983, .T.);
#1679 = ORIENTED_EDGE('', *, *, #976, .F.);
#1680 = ORIENTED_EDGE('', *, *, #984, .F.);
#1681 = ORIENTED_EDGE('', *, *, #980, .T.);
#1682 = EDGE_LOOP('', (#1678, #1679, #1680, #1681));
#1683 = FACE_BOUND('', #1682, .T.);
#1684 = ADVANCED_FACE('', (#1683), #1189, .T.);
#1685 = ORIENTED_EDGE('', *, *, #985, .T.);
#1686 = ORIENTED_EDGE('', *, *, #979, .T.);
#1687 = ORIENTED_EDGE('', *, *, #986, .F.);
#1688 = ORIENTED_EDGE('', *, *, #975, .T.);
#1689 = EDGE_LOOP('', (#1685, #1686, #1687, #1688));
#1690 = FACE_BOUND('', #1689, .T.);
#1691 = ADVANCED_FACE('', (#1690), #1185, .T.);
#1692 = CLOSED_SHELL('', (#1204, #1208, #1212));
#1693 = CLOSED_SHELL('', (#1217, #1222, #1239, #1250, #1261, #1278, #1286, #1294, #1303, #1320, #1331, #1342, #1359, #1367, #1376, #1384, #1391, #1410, #1417, #1423, #1429, #1436, #1455, #1462, #1468, #1474, #1481, #1500, #1507, #1513, #1519, #1526, #1534, #1542, #1549, #1556, #1563, #1570, #1577, #1584, #1591, #1598, #1605, #1612, #1620, #1627, #1635, #1642, #1649, #1656, #1663, #1670, #1677, #1684, #1691));
#1694 = MANIFOLD_SOLID_BREP('', #1692);
#1695 = MANIFOLD_SOLID_BREP('', #1693);
#1696 = APPLICATION_CONTEXT('configuration controlled 3D design of mechanical parts and assemblies');
#1697 = PRODUCT_DEFINITION_CONTEXT('part definition', #1696, 'design');
#1698 = PRODUCT_CONTEXT('', #1696, 'mechanical');
#1699 = PRODUCT('UNIDENTIFIED_PRODUCT', '', $, (#1698));
#1700 = PRODUCT_DEFINITION_FORMATION('', $, #1699);
#1701 = PRODUCT_DEFINITION('design', $, #1700, #1697);
#1702 = PRODUCT_DEFINITION_SHAPE('', '', #1701);
#1703 = ADVANCED_BREP_SHAPE_REPRESENTATION('', (#1695), #4);
#1704 = SHAPE_DEFINITION_REPRESENTATION(#1702, #1703);
#1705 = COLOUR_RGB('', 0.23529412, 0.52549022, 0.71764708);
#1706 = FILL_AREA_STYLE_COLOUR('', #1705);
#1707 = FILL_AREA_STYLE('', (#1706));
#1708 = SURFACE_STYLE_FILL_AREA(#1707);
#1709 = SURFACE_SIDE_STYLE('', (#1708));
#1710 = SURFACE_STYLE_USAGE(.BOTH., #1709);
#1711 = PRESENTATION_STYLE_ASSIGNMENT((#1710));
#1712 = STYLED_ITEM('', (#1711), #1695);
#1713 = MECHANICAL_DESIGN_GEOMETRIC_PRESENTATION_REPRESENTATION('', (#1712), #4);
#1714 = PRODUCT_CONTEXT('', #1696, 'mechanical');
#1715 = PRODUCT('UNIDENTIFIED_PRODUCT', '', $, (#1714));
#1716 = PRODUCT_DEFINITION_FORMATION('', $, #1715);
#1717 = PRODUCT_DEFINITION('design', $, #1716, #1697);
#1718 = PRODUCT_DEFINITION_SHAPE('', '', #1717);
#1719 = ADVANCED_BREP_SHAPE_REPRESENTATION('', (#1694), #4);
#1720 = SHAPE_DEFINITION_REPRESENTATION(#1718, #1719);
#1721 = COLOUR_RGB('', 0.8392157, 0.69803923, 0.36862746);
#1722 = FILL_AREA_STYLE_COLOUR('', #1721);
#1723 = FILL_AREA_STYLE('', (#1722));
#1724 = SURFACE_STYLE_FILL_AREA(#1723);
#1725 = SURFACE_SIDE_STYLE('', (#1724));
#1726 = SURFACE_STYLE_USAGE(.BOTH., #1725);
#1727 = PRESENTATION_STYLE_ASSIGNMENT((#1726));
#1728 = STYLED_ITEM('', (#1727), #1694);
#1729 = MECHANICAL_DESIGN_GEOMETRIC_PRESENTATION_REPRESENTATION('', (#1728), #4);
ENDSEC;
END-ISO-10303-21;
