ISO-10303-21;
HEADER;
FILE_DESCRIPTION(('zoo.dev export'), '2;1');
FILE_NAME('output.step', '2026-07-13T14:43:11.680010714+00:00', (''), (''), 'zoo.dev beta', 'zoo.dev', '');
FILE_SCHEMA(('AP242_MANAGED_MODEL_BASED_3D_ENGINEERING_MIM_LF'));
ENDSEC;
DATA;
#1 = (
  LENGTH_UNIT()
  NAMED_UNIT(*)
  SI_UNIT(.MILLI., .METRE.)
);
#2 = (
  NAMED_UNIT(*)
  PLANE_ANGLE_UNIT()
  SI_UNIT($, .RADIAN.)
);
#3 = UNCERTAINTY_MEASURE_WITH_UNIT(LENGTH_MEASURE(0.01), #1, 'DISTANCE_ACCURACY_VALUE', $);
#4 = (
  GEOMETRIC_REPRESENTATION_CONTEXT(3)
  GLOBAL_UNCERTAINTY_ASSIGNED_CONTEXT((#3))
  GLOBAL_UNIT_ASSIGNED_CONTEXT((#1, #2))
  REPRESENTATION_CONTEXT('3D', '3D context')
);
#5 = CARTESIAN_POINT('', (35., 0., 0.));
#6 = VERTEX_POINT('', #5);
#7 = CARTESIAN_POINT('', (35., 0., 1000.));
#8 = VERTEX_POINT('', #7);
#9 = CARTESIAN_POINT('', (-35., 0., 0.));
#10 = VERTEX_POINT('', #9);
#11 = CARTESIAN_POINT('', (-35., 0., 1000.));
#12 = VERTEX_POINT('', #11);
#13 = CARTESIAN_POINT('', (100., 0., 90.));
#14 = VERTEX_POINT('', #13);
#15 = CARTESIAN_POINT('', (100., 0., 150.));
#16 = VERTEX_POINT('', #15);
#17 = CARTESIAN_POINT('', (-100., 0., 90.));
#18 = VERTEX_POINT('', #17);
#19 = CARTESIAN_POINT('', (-100., 0., 150.));
#20 = VERTEX_POINT('', #19);
#21 = CARTESIAN_POINT('', (35., -0., 90.));
#22 = VERTEX_POINT('', #21);
#23 = CARTESIAN_POINT('', (-35., 0., 90.));
#24 = VERTEX_POINT('', #23);
#25 = CARTESIAN_POINT('', (35., -0., 150.));
#26 = VERTEX_POINT('', #25);
#27 = CARTESIAN_POINT('', (-35., 0., 150.));
#28 = VERTEX_POINT('', #27);
#29 = CARTESIAN_POINT('', (-0.00000001, -35., 90.));
#30 = VERTEX_POINT('', #29);
#31 = CARTESIAN_POINT('', (0.00000001, 35., 90.));
#32 = VERTEX_POINT('', #31);
#33 = CARTESIAN_POINT('', (-0.00000001, -35., 150.));
#34 = VERTEX_POINT('', #33);
#35 = CARTESIAN_POINT('', (0.00000001, 35., 150.));
#36 = VERTEX_POINT('', #35);
#37 = CARTESIAN_POINT('', (100., 0., 850.));
#38 = VERTEX_POINT('', #37);
#39 = CARTESIAN_POINT('', (100., 0., 910.));
#40 = VERTEX_POINT('', #39);
#41 = CARTESIAN_POINT('', (-100., 0., 850.));
#42 = VERTEX_POINT('', #41);
#43 = CARTESIAN_POINT('', (-100., 0., 910.));
#44 = VERTEX_POINT('', #43);
#45 = CARTESIAN_POINT('', (35., -0., 850.));
#46 = VERTEX_POINT('', #45);
#47 = CARTESIAN_POINT('', (-35., -0., 850.));
#48 = VERTEX_POINT('', #47);
#49 = CARTESIAN_POINT('', (35., -0., 910.));
#50 = VERTEX_POINT('', #49);
#51 = CARTESIAN_POINT('', (-35., -0., 910.));
#52 = VERTEX_POINT('', #51);
#53 = CARTESIAN_POINT('', (-0.00000072, 35., 850.));
#54 = VERTEX_POINT('', #53);
#55 = CARTESIAN_POINT('', (0.00000072, -35., 850.));
#56 = VERTEX_POINT('', #55);
#57 = CARTESIAN_POINT('', (0.00000002, 35., 910.));
#58 = VERTEX_POINT('', #57);
#59 = CARTESIAN_POINT('', (-0.00000002, -35., 910.));
#60 = VERTEX_POINT('', #59);
#61 = CARTESIAN_POINT('', (470.0000049, -130.00004208, 0.));
#62 = VERTEX_POINT('', #61);
#63 = CARTESIAN_POINT('', (400.00000901, 230., 0.));
#64 = VERTEX_POINT('', #63);
#65 = CARTESIAN_POINT('', (400.00000901, 230., 1000.));
#66 = VERTEX_POINT('', #65);
#67 = CARTESIAN_POINT('', (470.0000049, -130.00004208, 1000.));
#68 = VERTEX_POINT('', #67);
#69 = CARTESIAN_POINT('', (329.99987476, -129.99991681, 0.));
#70 = VERTEX_POINT('', #69);
#71 = CARTESIAN_POINT('', (329.99987476, -129.99991681, 1000.));
#72 = VERTEX_POINT('', #71);
#73 = CARTESIAN_POINT('', (-122.41666351, 472.03196506, 0.));
#74 = VERTEX_POINT('', #73);
#75 = CARTESIAN_POINT('', (-399.18584737, 231.41016932, 0.));
#76 = VERTEX_POINT('', #75);
#77 = CARTESIAN_POINT('', (-399.18584737, 231.41016932, 1000.));
#78 = VERTEX_POINT('', #77);
#79 = CARTESIAN_POINT('', (-122.41666351, 472.03196506, 1000.));
#80 = VERTEX_POINT('', #79);
#81 = CARTESIAN_POINT('', (-52.41670694, 350.78823319, 0.));
#82 = VERTEX_POINT('', #81);
#83 = CARTESIAN_POINT('', (-52.41670694, 350.78823319, 1000.));
#84 = VERTEX_POINT('', #83);
#85 = CARTESIAN_POINT('', (-347.58334139, -342.03192298, 0.));
#86 = VERTEX_POINT('', #85);
#87 = CARTESIAN_POINT('', (-0.81416163, -461.41016932, 0.));
#88 = VERTEX_POINT('', #87);
#89 = CARTESIAN_POINT('', (-0.81416163, -461.41016932, 1000.));
#90 = VERTEX_POINT('', #89);
#91 = CARTESIAN_POINT('', (-347.58334139, -342.03192298, 1000.));
#92 = VERTEX_POINT('', #91);
#93 = CARTESIAN_POINT('', (-277.58316783, -220.78831639, 0.));
#94 = VERTEX_POINT('', #93);
#95 = CARTESIAN_POINT('', (-277.58316783, -220.78831639, 1000.));
#96 = VERTEX_POINT('', #95);
#97 = CARTESIAN_POINT('', (93.67496998, 35., 142.5));
#98 = VERTEX_POINT('', #97);
#99 = CARTESIAN_POINT('', (93.67496998, 35., 97.5));
#100 = VERTEX_POINT('', #99);
#101 = CARTESIAN_POINT('', (100., 0., 97.5));
#102 = VERTEX_POINT('', #101);
#103 = CARTESIAN_POINT('', (100., 0., 142.5));
#104 = VERTEX_POINT('', #103);
#105 = CARTESIAN_POINT('', (93.67496998, -35., 142.5));
#106 = VERTEX_POINT('', #105);
#107 = CARTESIAN_POINT('', (93.67496998, -35., 97.5));
#108 = VERTEX_POINT('', #107);
#109 = CARTESIAN_POINT('', (348.4721205, -35., 97.5));
#110 = VERTEX_POINT('', #109);
#111 = CARTESIAN_POINT('', (348.4721205, -35., 142.5));
#112 = VERTEX_POINT('', #111);
#113 = CARTESIAN_POINT('', (362.08326086, 35., 142.5));
#114 = VERTEX_POINT('', #113);
#115 = CARTESIAN_POINT('', (362.08326086, 35., 97.5));
#116 = VERTEX_POINT('', #115);
#117 = CARTESIAN_POINT('', (-16.52659586, 98.6249037, 142.5));
#118 = VERTEX_POINT('', #117);
#119 = CARTESIAN_POINT('', (-16.52659586, 98.6249037, 97.5));
#120 = VERTEX_POINT('', #119);
#121 = CARTESIAN_POINT('', (-77.14837412, 63.6249037, 142.5));
#122 = VERTEX_POINT('', #121);
#123 = CARTESIAN_POINT('', (-77.14837412, 63.6249037, 97.5));
#124 = VERTEX_POINT('', #123);
#125 = CARTESIAN_POINT('', (-143.92517112, 319.28570887, 97.5));
#126 = VERTEX_POINT('', #125);
#127 = CARTESIAN_POINT('', (-143.92517112, 319.28570887, 142.5));
#128 = VERTEX_POINT('', #127);
#129 = CARTESIAN_POINT('', (-211.35251956, 296.07330219, 142.5));
#130 = VERTEX_POINT('', #129);
#131 = CARTESIAN_POINT('', (-211.35251956, 296.07330219, 97.5));
#132 = VERTEX_POINT('', #131);
#133 = CARTESIAN_POINT('', (-77.14837412, -63.6249037, 142.5));
#134 = VERTEX_POINT('', #133);
#135 = CARTESIAN_POINT('', (-77.14837412, -63.6249037, 97.5));
#136 = VERTEX_POINT('', #135);
#137 = CARTESIAN_POINT('', (-16.52659586, -98.6249037, 142.5));
#138 = VERTEX_POINT('', #137);
#139 = CARTESIAN_POINT('', (-16.52659586, -98.6249037, 97.5));
#140 = VERTEX_POINT('', #139);
#141 = CARTESIAN_POINT('', (-204.54694938, -284.28570887, 97.5));
#142 = VERTEX_POINT('', #141);
#143 = CARTESIAN_POINT('', (-204.54694938, -284.28570887, 142.5));
#144 = VERTEX_POINT('', #143);
#145 = CARTESIAN_POINT('', (-150.7307413, -331.07330219, 142.5));
#146 = VERTEX_POINT('', #145);
#147 = CARTESIAN_POINT('', (-150.7307413, -331.07330219, 97.5));
#148 = VERTEX_POINT('', #147);
#149 = CARTESIAN_POINT('', (93.67496998, 35., 902.5));
#150 = VERTEX_POINT('', #149);
#151 = CARTESIAN_POINT('', (93.67496998, 35., 857.5));
#152 = VERTEX_POINT('', #151);
#153 = CARTESIAN_POINT('', (100., 0., 857.5));
#154 = VERTEX_POINT('', #153);
#155 = CARTESIAN_POINT('', (100., 0., 902.5));
#156 = VERTEX_POINT('', #155);
#157 = CARTESIAN_POINT('', (93.67496998, -35., 902.5));
#158 = VERTEX_POINT('', #157);
#159 = CARTESIAN_POINT('', (93.67496998, -35., 857.5));
#160 = VERTEX_POINT('', #159);
#161 = CARTESIAN_POINT('', (348.4721205, -35., 857.5));
#162 = VERTEX_POINT('', #161);
#163 = CARTESIAN_POINT('', (348.4721205, -35., 902.5));
#164 = VERTEX_POINT('', #163);
#165 = CARTESIAN_POINT('', (362.08326086, 35., 902.5));
#166 = VERTEX_POINT('', #165);
#167 = CARTESIAN_POINT('', (362.08326086, 35., 857.5));
#168 = VERTEX_POINT('', #167);
#169 = CARTESIAN_POINT('', (-16.52659586, 98.6249037, 902.5));
#170 = VERTEX_POINT('', #169);
#171 = CARTESIAN_POINT('', (-16.52659586, 98.6249037, 857.5));
#172 = VERTEX_POINT('', #171);
#173 = CARTESIAN_POINT('', (-77.14837412, 63.6249037, 902.5));
#174 = VERTEX_POINT('', #173);
#175 = CARTESIAN_POINT('', (-77.14837412, 63.6249037, 857.5));
#176 = VERTEX_POINT('', #175);
#177 = CARTESIAN_POINT('', (-143.92517112, 319.28570887, 857.5));
#178 = VERTEX_POINT('', #177);
#179 = CARTESIAN_POINT('', (-143.92517112, 319.28570887, 902.5));
#180 = VERTEX_POINT('', #179);
#181 = CARTESIAN_POINT('', (-211.35251956, 296.07330219, 902.5));
#182 = VERTEX_POINT('', #181);
#183 = CARTESIAN_POINT('', (-211.35251956, 296.07330219, 857.5));
#184 = VERTEX_POINT('', #183);
#185 = CARTESIAN_POINT('', (-77.14837412, -63.6249037, 902.5));
#186 = VERTEX_POINT('', #185);
#187 = CARTESIAN_POINT('', (-77.14837412, -63.6249037, 857.5));
#188 = VERTEX_POINT('', #187);
#189 = CARTESIAN_POINT('', (-16.52659586, -98.6249037, 902.5));
#190 = VERTEX_POINT('', #189);
#191 = CARTESIAN_POINT('', (-16.52659586, -98.6249037, 857.5));
#192 = VERTEX_POINT('', #191);
#193 = CARTESIAN_POINT('', (-204.54694938, -284.28570887, 857.5));
#194 = VERTEX_POINT('', #193);
#195 = CARTESIAN_POINT('', (-204.54694938, -284.28570887, 902.5));
#196 = VERTEX_POINT('', #195);
#197 = CARTESIAN_POINT('', (-150.7307413, -331.07330219, 902.5));
#198 = VERTEX_POINT('', #197);
#199 = CARTESIAN_POINT('', (-150.7307413, -331.07330219, 857.5));
#200 = VERTEX_POINT('', #199);
#201 = DIRECTION('', (1., -0., 0.));
#202 = DIRECTION('', (-0., -0., 1.));
#203 = CARTESIAN_POINT('', (0., 0., 0.));
#204 = AXIS2_PLACEMENT_3D('', #203, #202, #201);
#205 = CIRCLE('', #204, 35.);
#206 = DIRECTION('', (0., -0., 1.));
#207 = VECTOR('', #206, 1.);
#208 = CARTESIAN_POINT('', (35., 0., 0.));
#209 = LINE('', #208, #207);
#210 = DIRECTION('', (1., -0., 0.));
#211 = DIRECTION('', (-0., -0., 1.));
#212 = CARTESIAN_POINT('', (0., 0., 1000.));
#213 = AXIS2_PLACEMENT_3D('', #212, #211, #210);
#214 = CIRCLE('', #213, 35.);
#215 = DIRECTION('', (-1., 0., 0.));
#216 = DIRECTION('', (0., -0., 1.));
#217 = CARTESIAN_POINT('', (0., 0., 0.));
#218 = AXIS2_PLACEMENT_3D('', #217, #216, #215);
#219 = CIRCLE('', #218, 35.);
#220 = DIRECTION('', (-1., 0., 0.));
#221 = DIRECTION('', (0., -0., 1.));
#222 = CARTESIAN_POINT('', (0., 0., 1000.));
#223 = AXIS2_PLACEMENT_3D('', #222, #221, #220);
#224 = CIRCLE('', #223, 35.);
#225 = DIRECTION('', (0., -0., 1.));
#226 = VECTOR('', #225, 1.);
#227 = CARTESIAN_POINT('', (-35., 0., 0.));
#228 = LINE('', #227, #226);
#229 = DIRECTION('', (1., 0., 0.));
#230 = DIRECTION('', (0., -0., 1.));
#231 = CARTESIAN_POINT('', (0., -0., 90.));
#232 = AXIS2_PLACEMENT_3D('', #231, #230, #229);
#233 = CIRCLE('', #232, 100.);
#234 = DIRECTION('', (0., -0., 1.));
#235 = VECTOR('', #234, 1.);
#236 = CARTESIAN_POINT('', (100., 0., 90.));
#237 = LINE('', #236, #235);
#238 = DIRECTION('', (1., 0., 0.));
#239 = DIRECTION('', (0., -0., 1.));
#240 = CARTESIAN_POINT('', (0., -0., 150.));
#241 = AXIS2_PLACEMENT_3D('', #240, #239, #238);
#242 = CIRCLE('', #241, 100.);
#243 = DIRECTION('', (-1., 0., 0.));
#244 = DIRECTION('', (0., -0., 1.));
#245 = CARTESIAN_POINT('', (0., 0., 90.));
#246 = AXIS2_PLACEMENT_3D('', #245, #244, #243);
#247 = CIRCLE('', #246, 100.);
#248 = DIRECTION('', (-1., 0., 0.));
#249 = DIRECTION('', (0., -0., 1.));
#250 = CARTESIAN_POINT('', (0., 0., 150.));
#251 = AXIS2_PLACEMENT_3D('', #250, #249, #248);
#252 = CIRCLE('', #251, 100.);
#253 = DIRECTION('', (0., -0., 1.));
#254 = VECTOR('', #253, 1.);
#255 = CARTESIAN_POINT('', (-100., 0., 90.));
#256 = LINE('', #255, #254);
#257 = DIRECTION('', (1., -0., -0.));
#258 = DIRECTION('', (0., 0., 1.));
#259 = CARTESIAN_POINT('', (-0., 0., 90.));
#260 = AXIS2_PLACEMENT_3D('', #259, #258, #257);
#261 = CIRCLE('', #260, 35.);
#262 = DIRECTION('', (1., 0., 0.));
#263 = DIRECTION('', (-0., -0., 1.));
#264 = CARTESIAN_POINT('', (-0., -0., 150.));
#265 = AXIS2_PLACEMENT_3D('', #264, #263, #262);
#266 = CIRCLE('', #265, 35.);
#267 = DIRECTION('', (1., -0., -0.));
#268 = DIRECTION('', (-0., 0., -1.));
#269 = CARTESIAN_POINT('', (-0., 0., 90.));
#270 = AXIS2_PLACEMENT_3D('', #269, #268, #267);
#271 = CIRCLE('', #270, 35.);
#272 = DIRECTION('', (1., -0., -0.));
#273 = DIRECTION('', (-0., 0., -1.));
#274 = CARTESIAN_POINT('', (-0., 0., 150.));
#275 = AXIS2_PLACEMENT_3D('', #274, #273, #272);
#276 = CIRCLE('', #275, 35.);
#277 = DIRECTION('', (-0., -1., -0.));
#278 = DIRECTION('', (0., 0., -1.));
#279 = CARTESIAN_POINT('', (0., 0., 90.));
#280 = AXIS2_PLACEMENT_3D('', #279, #278, #277);
#281 = CIRCLE('', #280, 35.);
#282 = DIRECTION('', (0., 1., -0.));
#283 = DIRECTION('', (-0., 0., 1.));
#284 = CARTESIAN_POINT('', (0., -0., 90.));
#285 = AXIS2_PLACEMENT_3D('', #284, #283, #282);
#286 = CIRCLE('', #285, 35.);
#287 = DIRECTION('', (-0., -1., 0.));
#288 = DIRECTION('', (-0., -0., -1.));
#289 = CARTESIAN_POINT('', (0., 0., 150.));
#290 = AXIS2_PLACEMENT_3D('', #289, #288, #287);
#291 = CIRCLE('', #290, 35.);
#292 = DIRECTION('', (0., 1., 0.));
#293 = DIRECTION('', (0., -0., 1.));
#294 = CARTESIAN_POINT('', (-0., 0., 150.));
#295 = AXIS2_PLACEMENT_3D('', #294, #293, #292);
#296 = CIRCLE('', #295, 35.);
#297 = DIRECTION('', (0., -0., 1.));
#298 = VECTOR('', #297, 1.);
#299 = CARTESIAN_POINT('', (-35., 0., 150.));
#300 = LINE('', #299, #298);
#301 = DIRECTION('', (0., -0., 1.));
#302 = VECTOR('', #301, 1.);
#303 = CARTESIAN_POINT('', (35., 0., 150.));
#304 = LINE('', #303, #302);
#305 = DIRECTION('', (1., 0., 0.));
#306 = DIRECTION('', (0., -0., 1.));
#307 = CARTESIAN_POINT('', (0., -0., 850.));
#308 = AXIS2_PLACEMENT_3D('', #307, #306, #305);
#309 = CIRCLE('', #308, 100.);
#310 = DIRECTION('', (0., -0., 1.));
#311 = VECTOR('', #310, 1.);
#312 = CARTESIAN_POINT('', (100., 0., 850.));
#313 = LINE('', #312, #311);
#314 = DIRECTION('', (1., 0., 0.));
#315 = DIRECTION('', (0., -0., 1.));
#316 = CARTESIAN_POINT('', (0., -0., 910.));
#317 = AXIS2_PLACEMENT_3D('', #316, #315, #314);
#318 = CIRCLE('', #317, 100.);
#319 = DIRECTION('', (-1., 0., 0.));
#320 = DIRECTION('', (0., -0., 1.));
#321 = CARTESIAN_POINT('', (0., 0., 850.));
#322 = AXIS2_PLACEMENT_3D('', #321, #320, #319);
#323 = CIRCLE('', #322, 100.);
#324 = DIRECTION('', (-1., 0., 0.));
#325 = DIRECTION('', (0., -0., 1.));
#326 = CARTESIAN_POINT('', (0., 0., 910.));
#327 = AXIS2_PLACEMENT_3D('', #326, #325, #324);
#328 = CIRCLE('', #327, 100.);
#329 = DIRECTION('', (0., -0., 1.));
#330 = VECTOR('', #329, 1.);
#331 = CARTESIAN_POINT('', (-100., 0., 850.));
#332 = LINE('', #331, #330);
#333 = DIRECTION('', (1., -0., -0.));
#334 = DIRECTION('', (-0., 0., -1.));
#335 = CARTESIAN_POINT('', (-0., 0., 850.));
#336 = AXIS2_PLACEMENT_3D('', #335, #334, #333);
#337 = CIRCLE('', #336, 35.);
#338 = DIRECTION('', (1., -0., 0.));
#339 = DIRECTION('', (0., 0., -1.));
#340 = CARTESIAN_POINT('', (-0., 0., 910.));
#341 = AXIS2_PLACEMENT_3D('', #340, #339, #338);
#342 = CIRCLE('', #341, 35.);
#343 = DIRECTION('', (1., 0., 0.));
#344 = DIRECTION('', (-0., -0., 1.));
#345 = CARTESIAN_POINT('', (-0., -0., 850.));
#346 = AXIS2_PLACEMENT_3D('', #345, #344, #343);
#347 = CIRCLE('', #346, 35.);
#348 = DIRECTION('', (1., 0., -0.));
#349 = DIRECTION('', (0., 0., 1.));
#350 = CARTESIAN_POINT('', (-0., -0., 910.));
#351 = AXIS2_PLACEMENT_3D('', #350, #349, #348);
#352 = CIRCLE('', #351, 35.);
#353 = DIRECTION('', (-0.00000002, 1., 0.));
#354 = DIRECTION('', (0., -0., 1.));
#355 = CARTESIAN_POINT('', (0., -0., 850.));
#356 = AXIS2_PLACEMENT_3D('', #355, #354, #353);
#357 = CIRCLE('', #356, 35.);
#358 = DIRECTION('', (0.00000002, -1., 0.));
#359 = DIRECTION('', (-0., -0., -1.));
#360 = CARTESIAN_POINT('', (0., 0., 850.));
#361 = AXIS2_PLACEMENT_3D('', #360, #359, #358);
#362 = CIRCLE('', #361, 35.);
#363 = DIRECTION('', (0., 1., 0.));
#364 = DIRECTION('', (0., -0., 1.));
#365 = CARTESIAN_POINT('', (0., -0., 910.));
#366 = AXIS2_PLACEMENT_3D('', #365, #364, #363);
#367 = CIRCLE('', #366, 35.);
#368 = DIRECTION('', (-0., -1., -0.));
#369 = DIRECTION('', (0., 0., -1.));
#370 = CARTESIAN_POINT('', (0., 0., 910.));
#371 = AXIS2_PLACEMENT_3D('', #370, #369, #368);
#372 = CIRCLE('', #371, 35.);
#373 = DIRECTION('', (0., -0., 1.));
#374 = VECTOR('', #373, 1.);
#375 = CARTESIAN_POINT('', (-35., 0., 910.));
#376 = LINE('', #375, #374);
#377 = DIRECTION('', (0., -0., 1.));
#378 = VECTOR('', #377, 1.);
#379 = CARTESIAN_POINT('', (35., 0., 910.));
#380 = LINE('', #379, #378);
#381 = DIRECTION('', (-0.19086963, 0.9816154, 0.));
#382 = VECTOR('', #381, 1.);
#383 = CARTESIAN_POINT('', (470.0000049, -130.00004208, 0.));
#384 = LINE('', #383, #382);
#385 = DIRECTION('', (0., -0., 1.));
#386 = VECTOR('', #385, 1.);
#387 = CARTESIAN_POINT('', (400.00000901, 230., 0.));
#388 = LINE('', #387, #386);
#389 = DIRECTION('', (-0.19086963, 0.9816154, 0.));
#390 = VECTOR('', #389, 1.);
#391 = CARTESIAN_POINT('', (470.0000049, -130.00004208, 1000.));
#392 = LINE('', #391, #390);
#393 = DIRECTION('', (0., -0., 1.));
#394 = VECTOR('', #393, 1.);
#395 = CARTESIAN_POINT('', (470.0000049, -130.00004208, 0.));
#396 = LINE('', #395, #394);
#397 = DIRECTION('', (-0.19087005, -0.98161531, 0.));
#398 = VECTOR('', #397, 1.);
#399 = CARTESIAN_POINT('', (400.00000901, 230., 0.));
#400 = LINE('', #399, #398);
#401 = DIRECTION('', (0., -0., 1.));
#402 = VECTOR('', #401, 1.);
#403 = CARTESIAN_POINT('', (329.99987476, -129.99991681, 0.));
#404 = LINE('', #403, #402);
#405 = DIRECTION('', (-0.19087005, -0.98161531, 0.));
#406 = VECTOR('', #405, 1.);
#407 = CARTESIAN_POINT('', (400.00000901, 230., 1000.));
#408 = LINE('', #407, #406);
#409 = DIRECTION('', (-0.55555734, -0.83147823, 0.));
#410 = DIRECTION('', (0., 0., 1.));
#411 = CARTESIAN_POINT('', (400.00003358, -25.23375955, 0.));
#412 = AXIS2_PLACEMENT_3D('', #411, #410, #409);
#413 = CIRCLE('', #412, 125.99988072);
#414 = DIRECTION('', (-0.55555734, -0.83147823, 0.));
#415 = DIRECTION('', (0., 0., 1.));
#416 = CARTESIAN_POINT('', (400.00003358, -25.23375955, 1000.));
#417 = AXIS2_PLACEMENT_3D('', #416, #415, #414);
#418 = CIRCLE('', #417, 125.99988072);
#419 = DIRECTION('', (-0.75466906, -0.65610564, 0.));
#420 = VECTOR('', #419, 1.);
#421 = CARTESIAN_POINT('', (-122.41666351, 472.03196506, 0.));
#422 = LINE('', #421, #420);
#423 = DIRECTION('', (0., -0., 1.));
#424 = VECTOR('', #423, 1.);
#425 = CARTESIAN_POINT('', (-399.18584737, 231.41016932, 0.));
#426 = LINE('', #425, #424);
#427 = DIRECTION('', (-0.75466906, -0.65610564, 0.));
#428 = VECTOR('', #427, 1.);
#429 = CARTESIAN_POINT('', (-122.41666351, 472.03196506, 1000.));
#430 = LINE('', #429, #428);
#431 = DIRECTION('', (0., -0., 1.));
#432 = VECTOR('', #431, 1.);
#433 = CARTESIAN_POINT('', (-122.41666351, 472.03196506, 0.));
#434 = LINE('', #433, #432);
#435 = DIRECTION('', (0.94553882, 0.32550934, 0.));
#436 = VECTOR('', #435, 1.);
#437 = CARTESIAN_POINT('', (-399.18584737, 231.41016932, 0.));
#438 = LINE('', #437, #436);
#439 = DIRECTION('', (0., -0., 1.));
#440 = VECTOR('', #439, 1.);
#441 = CARTESIAN_POINT('', (-52.41670694, 350.78823319, 0.));
#442 = LINE('', #441, #440);
#443 = DIRECTION('', (0.94553882, 0.32550934, 0.));
#444 = VECTOR('', #443, 1.);
#445 = CARTESIAN_POINT('', (-399.18584737, 231.41016932, 1000.));
#446 = LINE('', #445, #444);
#447 = DIRECTION('', (0.99785994, -0.06538766, 0.));
#448 = DIRECTION('', (-0., -0., 1.));
#449 = CARTESIAN_POINT('', (-178.14693998, 359.02707037, 0.));
#450 = AXIS2_PLACEMENT_3D('', #449, #448, #447);
#451 = CIRCLE('', #450, 125.99988072);
#452 = DIRECTION('', (0.99785994, -0.06538766, 0.));
#453 = DIRECTION('', (-0., -0., 1.));
#454 = CARTESIAN_POINT('', (-178.14693998, 359.02707037, 1000.));
#455 = AXIS2_PLACEMENT_3D('', #454, #453, #452);
#456 = CIRCLE('', #455, 125.99988072);
#457 = DIRECTION('', (0.94553868, -0.32550975, 0.));
#458 = VECTOR('', #457, 1.);
#459 = CARTESIAN_POINT('', (-347.58334139, -342.03192298, 0.));
#460 = LINE('', #459, #458);
#461 = DIRECTION('', (0., -0., 1.));
#462 = VECTOR('', #461, 1.);
#463 = CARTESIAN_POINT('', (-0.81416163, -461.41016932, 0.));
#464 = LINE('', #463, #462);
#465 = DIRECTION('', (0.94553868, -0.32550975, 0.));
#466 = VECTOR('', #465, 1.);
#467 = CARTESIAN_POINT('', (-347.58334139, -342.03192298, 1000.));
#468 = LINE('', #467, #466);
#469 = DIRECTION('', (0., -0., 1.));
#470 = VECTOR('', #469, 1.);
#471 = CARTESIAN_POINT('', (-347.58334139, -342.03192298, 0.));
#472 = LINE('', #471, #470);
#473 = DIRECTION('', (-0.75466877, 0.65610597, 0.));
#474 = VECTOR('', #473, 1.);
#475 = CARTESIAN_POINT('', (-0.81416163, -461.41016932, 0.));
#476 = LINE('', #475, #474);
#477 = DIRECTION('', (0., -0., 1.));
#478 = VECTOR('', #477, 1.);
#479 = CARTESIAN_POINT('', (-277.58316783, -220.78831639, 0.));
#480 = LINE('', #479, #478);
#481 = DIRECTION('', (-0.75466877, 0.65610597, 0.));
#482 = VECTOR('', #481, 1.);
#483 = CARTESIAN_POINT('', (-0.81416163, -461.41016932, 1000.));
#484 = LINE('', #483, #482);
#485 = DIRECTION('', (-0.4423026, 0.89686588, 0.));
#486 = DIRECTION('', (0., -0., 1.));
#487 = CARTESIAN_POINT('', (-221.85309359, -333.79331082, 0.));
#488 = AXIS2_PLACEMENT_3D('', #487, #486, #485);
#489 = CIRCLE('', #488, 125.99988072);
#490 = DIRECTION('', (-0.4423026, 0.89686588, 0.));
#491 = DIRECTION('', (0., -0., 1.));
#492 = CARTESIAN_POINT('', (-221.85309359, -333.79331082, 1000.));
#493 = AXIS2_PLACEMENT_3D('', #492, #491, #490);
#494 = CIRCLE('', #493, 125.99988072);
#495 = DIRECTION('', (-0., -0., -1.));
#496 = VECTOR('', #495, 1.);
#497 = CARTESIAN_POINT('', (93.67496998, 35., 142.5));
#498 = LINE('', #497, #496);
#499 = DIRECTION('', (1., -0., 0.));
#500 = DIRECTION('', (-0., -0., 1.));
#501 = CARTESIAN_POINT('', (0., 0., 97.5));
#502 = AXIS2_PLACEMENT_3D('', #501, #500, #499);
#503 = CIRCLE('', #502, 100.);
#504 = DIRECTION('', (1., -0., 0.));
#505 = DIRECTION('', (-0., -0., 1.));
#506 = CARTESIAN_POINT('', (0., 0., 142.5));
#507 = AXIS2_PLACEMENT_3D('', #506, #505, #504);
#508 = CIRCLE('', #507, 100.);
#509 = DIRECTION('', (0., 0., -1.));
#510 = VECTOR('', #509, 1.);
#511 = CARTESIAN_POINT('', (93.67496998, -35., 142.5));
#512 = LINE('', #511, #510);
#513 = DIRECTION('', (1., 0., 0.));
#514 = DIRECTION('', (0., -0., -1.));
#515 = CARTESIAN_POINT('', (0., -0., 97.5));
#516 = AXIS2_PLACEMENT_3D('', #515, #514, #513);
#517 = CIRCLE('', #516, 100.);
#518 = DIRECTION('', (1., 0., 0.));
#519 = DIRECTION('', (0., -0., -1.));
#520 = CARTESIAN_POINT('', (0., -0., 142.5));
#521 = AXIS2_PLACEMENT_3D('', #520, #519, #518);
#522 = CIRCLE('', #521, 100.);
#523 = DIRECTION('', (0., -0., 1.));
#524 = VECTOR('', #523, 1.);
#525 = CARTESIAN_POINT('', (348.4721205, -35., 97.5));
#526 = LINE('', #525, #524);
#527 = DIRECTION('', (0., -0., -1.));
#528 = VECTOR('', #527, 1.);
#529 = CARTESIAN_POINT('', (362.08326086, 35., 142.5));
#530 = LINE('', #529, #528);
#531 = DIRECTION('', (0.19087005, 0.98161531, 0.));
#532 = VECTOR('', #531, 1.);
#533 = CARTESIAN_POINT('', (348.4721205, -35., 97.5));
#534 = LINE('', #533, #532);
#535 = DIRECTION('', (0.19087005, 0.98161531, 0.));
#536 = VECTOR('', #535, 1.);
#537 = CARTESIAN_POINT('', (348.4721205, -35., 142.5));
#538 = LINE('', #537, #536);
#539 = DIRECTION('', (-1., -0., 0.));
#540 = VECTOR('', #539, 1.);
#541 = CARTESIAN_POINT('', (362.08326086, 35., 97.5));
#542 = LINE('', #541, #540);
#543 = DIRECTION('', (-1., -0., 0.));
#544 = VECTOR('', #543, 1.);
#545 = CARTESIAN_POINT('', (362.08326086, 35., 142.5));
#546 = LINE('', #545, #544);
#547 = DIRECTION('', (1., -0., 0.));
#548 = VECTOR('', #547, 1.);
#549 = CARTESIAN_POINT('', (93.67496998, -35., 97.5));
#550 = LINE('', #549, #548);
#551 = DIRECTION('', (1., -0., 0.));
#552 = VECTOR('', #551, 1.);
#553 = CARTESIAN_POINT('', (93.67496998, -35., 142.5));
#554 = LINE('', #553, #552);
#555 = DIRECTION('', (0., -0., 1.));
#556 = VECTOR('', #555, 1.);
#557 = CARTESIAN_POINT('', (100., 0., 142.5));
#558 = LINE('', #557, #556);
#559 = DIRECTION('', (-0., -0., -1.));
#560 = VECTOR('', #559, 1.);
#561 = CARTESIAN_POINT('', (-16.52659586, 98.6249037, 142.5));
#562 = LINE('', #561, #560);
#563 = DIRECTION('', (-0., 0., -1.));
#564 = VECTOR('', #563, 1.);
#565 = CARTESIAN_POINT('', (-77.14837412, 63.6249037, 142.5));
#566 = LINE('', #565, #564);
#567 = DIRECTION('', (-0.16526596, 0.98624904, 0.));
#568 = DIRECTION('', (0., -0., 1.));
#569 = CARTESIAN_POINT('', (-0., 0., 97.5));
#570 = AXIS2_PLACEMENT_3D('', #569, #568, #567);
#571 = CIRCLE('', #570, 100.);
#572 = DIRECTION('', (-0.16526596, 0.98624904, -0.));
#573 = DIRECTION('', (-0., 0., 1.));
#574 = CARTESIAN_POINT('', (-0., 0., 142.5));
#575 = AXIS2_PLACEMENT_3D('', #574, #573, #572);
#576 = CIRCLE('', #575, 100.);
#577 = DIRECTION('', (0., -0., 1.));
#578 = VECTOR('', #577, 1.);
#579 = CARTESIAN_POINT('', (-143.92517112, 319.28570887, 97.5));
#580 = LINE('', #579, #578);
#581 = DIRECTION('', (0., -0., -1.));
#582 = VECTOR('', #581, 1.);
#583 = CARTESIAN_POINT('', (-211.35251956, 296.07330219, 142.5));
#584 = LINE('', #583, #582);
#585 = DIRECTION('', (-0.94553882, -0.32550934, 0.));
#586 = VECTOR('', #585, 1.);
#587 = CARTESIAN_POINT('', (-143.92517112, 319.28570887, 97.5));
#588 = LINE('', #587, #586);
#589 = DIRECTION('', (-0.94553882, -0.32550934, 0.));
#590 = VECTOR('', #589, 1.);
#591 = CARTESIAN_POINT('', (-143.92517112, 319.28570887, 142.5));
#592 = LINE('', #591, #590);
#593 = DIRECTION('', (0.5, -0.8660254, 0.));
#594 = VECTOR('', #593, 1.);
#595 = CARTESIAN_POINT('', (-211.35251956, 296.07330219, 97.5));
#596 = LINE('', #595, #594);
#597 = DIRECTION('', (0.5, -0.8660254, 0.));
#598 = VECTOR('', #597, 1.);
#599 = CARTESIAN_POINT('', (-211.35251956, 296.07330219, 142.5));
#600 = LINE('', #599, #598);
#601 = DIRECTION('', (-0.5, 0.8660254, 0.));
#602 = VECTOR('', #601, 1.);
#603 = CARTESIAN_POINT('', (-16.52659586, 98.6249037, 97.5));
#604 = LINE('', #603, #602);
#605 = DIRECTION('', (-0.5, 0.8660254, 0.));
#606 = VECTOR('', #605, 1.);
#607 = CARTESIAN_POINT('', (-16.52659586, 98.6249037, 142.5));
#608 = LINE('', #607, #606);
#609 = DIRECTION('', (0., -0., -1.));
#610 = VECTOR('', #609, 1.);
#611 = CARTESIAN_POINT('', (-77.14837412, -63.6249037, 142.5));
#612 = LINE('', #611, #610);
#613 = DIRECTION('', (0., -0., -1.));
#614 = VECTOR('', #613, 1.);
#615 = CARTESIAN_POINT('', (-16.52659586, -98.6249037, 142.5));
#616 = LINE('', #615, #614);
#617 = DIRECTION('', (-0.16526596, -0.98624904, -0.));
#618 = DIRECTION('', (0., 0., -1.));
#619 = CARTESIAN_POINT('', (0., 0., 97.5));
#620 = AXIS2_PLACEMENT_3D('', #619, #618, #617);
#621 = CIRCLE('', #620, 100.);
#622 = DIRECTION('', (-0.16526596, -0.98624904, -0.));
#623 = DIRECTION('', (0., 0., -1.));
#624 = CARTESIAN_POINT('', (0., 0., 142.5));
#625 = AXIS2_PLACEMENT_3D('', #624, #623, #622);
#626 = CIRCLE('', #625, 100.);
#627 = DIRECTION('', (0., -0., 1.));
#628 = VECTOR('', #627, 1.);
#629 = CARTESIAN_POINT('', (-204.54694938, -284.28570887, 97.5));
#630 = LINE('', #629, #628);
#631 = DIRECTION('', (0., -0., -1.));
#632 = VECTOR('', #631, 1.);
#633 = CARTESIAN_POINT('', (-150.7307413, -331.07330219, 142.5));
#634 = LINE('', #633, #632);
#635 = DIRECTION('', (0.75466877, -0.65610597, 0.));
#636 = VECTOR('', #635, 1.);
#637 = CARTESIAN_POINT('', (-204.54694938, -284.28570887, 97.5));
#638 = LINE('', #637, #636);
#639 = DIRECTION('', (0.75466877, -0.65610597, 0.));
#640 = VECTOR('', #639, 1.);
#641 = CARTESIAN_POINT('', (-204.54694938, -284.28570887, 142.5));
#642 = LINE('', #641, #640);
#643 = DIRECTION('', (0.5, 0.8660254, 0.));
#644 = VECTOR('', #643, 1.);
#645 = CARTESIAN_POINT('', (-150.7307413, -331.07330219, 97.5));
#646 = LINE('', #645, #644);
#647 = DIRECTION('', (0.5, 0.8660254, 0.));
#648 = VECTOR('', #647, 1.);
#649 = CARTESIAN_POINT('', (-150.7307413, -331.07330219, 142.5));
#650 = LINE('', #649, #648);
#651 = DIRECTION('', (-0.5, -0.8660254, 0.));
#652 = VECTOR('', #651, 1.);
#653 = CARTESIAN_POINT('', (-77.14837412, -63.6249037, 97.5));
#654 = LINE('', #653, #652);
#655 = DIRECTION('', (-0.5, -0.8660254, 0.));
#656 = VECTOR('', #655, 1.);
#657 = CARTESIAN_POINT('', (-77.14837412, -63.6249037, 142.5));
#658 = LINE('', #657, #656);
#659 = DIRECTION('', (0., -0., -1.));
#660 = VECTOR('', #659, 1.);
#661 = CARTESIAN_POINT('', (93.67496998, 35., 902.5));
#662 = LINE('', #661, #660);
#663 = DIRECTION('', (1., -0., 0.));
#664 = DIRECTION('', (-0., -0., 1.));
#665 = CARTESIAN_POINT('', (0., 0., 857.5));
#666 = AXIS2_PLACEMENT_3D('', #665, #664, #663);
#667 = CIRCLE('', #666, 100.);
#668 = DIRECTION('', (1., -0., 0.));
#669 = DIRECTION('', (-0., -0., 1.));
#670 = CARTESIAN_POINT('', (0., 0., 902.5));
#671 = AXIS2_PLACEMENT_3D('', #670, #669, #668);
#672 = CIRCLE('', #671, 100.);
#673 = DIRECTION('', (0., -0., -1.));
#674 = VECTOR('', #673, 1.);
#675 = CARTESIAN_POINT('', (93.67496998, -35., 902.5));
#676 = LINE('', #675, #674);
#677 = DIRECTION('', (1., 0., -0.));
#678 = DIRECTION('', (-0., 0., -1.));
#679 = CARTESIAN_POINT('', (0., -0., 857.5));
#680 = AXIS2_PLACEMENT_3D('', #679, #678, #677);
#681 = CIRCLE('', #680, 100.);
#682 = DIRECTION('', (1., 0., -0.));
#683 = DIRECTION('', (-0., 0., -1.));
#684 = CARTESIAN_POINT('', (0., -0., 902.5));
#685 = AXIS2_PLACEMENT_3D('', #684, #683, #682);
#686 = CIRCLE('', #685, 100.);
#687 = DIRECTION('', (0., -0., 1.));
#688 = VECTOR('', #687, 1.);
#689 = CARTESIAN_POINT('', (348.4721205, -35., 857.5));
#690 = LINE('', #689, #688);
#691 = DIRECTION('', (0., -0., -1.));
#692 = VECTOR('', #691, 1.);
#693 = CARTESIAN_POINT('', (362.08326086, 35., 902.5));
#694 = LINE('', #693, #692);
#695 = DIRECTION('', (0.19087005, 0.98161531, 0.));
#696 = VECTOR('', #695, 1.);
#697 = CARTESIAN_POINT('', (348.4721205, -35., 857.5));
#698 = LINE('', #697, #696);
#699 = DIRECTION('', (0.19087005, 0.98161531, 0.));
#700 = VECTOR('', #699, 1.);
#701 = CARTESIAN_POINT('', (348.4721205, -35., 902.5));
#702 = LINE('', #701, #700);
#703 = DIRECTION('', (-1., -0., 0.));
#704 = VECTOR('', #703, 1.);
#705 = CARTESIAN_POINT('', (362.08326086, 35., 857.5));
#706 = LINE('', #705, #704);
#707 = DIRECTION('', (-1., -0., 0.));
#708 = VECTOR('', #707, 1.);
#709 = CARTESIAN_POINT('', (362.08326086, 35., 902.5));
#710 = LINE('', #709, #708);
#711 = DIRECTION('', (1., -0., 0.));
#712 = VECTOR('', #711, 1.);
#713 = CARTESIAN_POINT('', (93.67496998, -35., 857.5));
#714 = LINE('', #713, #712);
#715 = DIRECTION('', (1., -0., 0.));
#716 = VECTOR('', #715, 1.);
#717 = CARTESIAN_POINT('', (93.67496998, -35., 902.5));
#718 = LINE('', #717, #716);
#719 = DIRECTION('', (0., -0., 1.));
#720 = VECTOR('', #719, 1.);
#721 = CARTESIAN_POINT('', (100., 0., 902.5));
#722 = LINE('', #721, #720);
#723 = DIRECTION('', (-0., 0., -1.));
#724 = VECTOR('', #723, 1.);
#725 = CARTESIAN_POINT('', (-16.52659586, 98.6249037, 902.5));
#726 = LINE('', #725, #724);
#727 = DIRECTION('', (0., 0., -1.));
#728 = VECTOR('', #727, 1.);
#729 = CARTESIAN_POINT('', (-77.14837412, 63.6249037, 902.5));
#730 = LINE('', #729, #728);
#731 = DIRECTION('', (-0.16526596, 0.98624904, 0.));
#732 = DIRECTION('', (0., -0., 1.));
#733 = CARTESIAN_POINT('', (-0., 0., 857.5));
#734 = AXIS2_PLACEMENT_3D('', #733, #732, #731);
#735 = CIRCLE('', #734, 100.);
#736 = DIRECTION('', (-0.16526596, 0.98624904, -0.));
#737 = DIRECTION('', (-0., 0., 1.));
#738 = CARTESIAN_POINT('', (-0., 0., 902.5));
#739 = AXIS2_PLACEMENT_3D('', #738, #737, #736);
#740 = CIRCLE('', #739, 100.);
#741 = DIRECTION('', (0., -0., 1.));
#742 = VECTOR('', #741, 1.);
#743 = CARTESIAN_POINT('', (-143.92517112, 319.28570887, 857.5));
#744 = LINE('', #743, #742);
#745 = DIRECTION('', (0., -0., -1.));
#746 = VECTOR('', #745, 1.);
#747 = CARTESIAN_POINT('', (-211.35251956, 296.07330219, 902.5));
#748 = LINE('', #747, #746);
#749 = DIRECTION('', (-0.94553882, -0.32550934, 0.));
#750 = VECTOR('', #749, 1.);
#751 = CARTESIAN_POINT('', (-143.92517112, 319.28570887, 857.5));
#752 = LINE('', #751, #750);
#753 = DIRECTION('', (-0.94553882, -0.32550934, 0.));
#754 = VECTOR('', #753, 1.);
#755 = CARTESIAN_POINT('', (-143.92517112, 319.28570887, 902.5));
#756 = LINE('', #755, #754);
#757 = DIRECTION('', (0.5, -0.8660254, 0.));
#758 = VECTOR('', #757, 1.);
#759 = CARTESIAN_POINT('', (-211.35251956, 296.07330219, 857.5));
#760 = LINE('', #759, #758);
#761 = DIRECTION('', (0.5, -0.8660254, 0.));
#762 = VECTOR('', #761, 1.);
#763 = CARTESIAN_POINT('', (-211.35251956, 296.07330219, 902.5));
#764 = LINE('', #763, #762);
#765 = DIRECTION('', (-0.5, 0.8660254, 0.));
#766 = VECTOR('', #765, 1.);
#767 = CARTESIAN_POINT('', (-16.52659586, 98.6249037, 857.5));
#768 = LINE('', #767, #766);
#769 = DIRECTION('', (-0.5, 0.8660254, 0.));
#770 = VECTOR('', #769, 1.);
#771 = CARTESIAN_POINT('', (-16.52659586, 98.6249037, 902.5));
#772 = LINE('', #771, #770);
#773 = DIRECTION('', (-0., -0., -1.));
#774 = VECTOR('', #773, 1.);
#775 = CARTESIAN_POINT('', (-77.14837412, -63.6249037, 902.5));
#776 = LINE('', #775, #774);
#777 = DIRECTION('', (-0., -0., -1.));
#778 = VECTOR('', #777, 1.);
#779 = CARTESIAN_POINT('', (-16.52659586, -98.6249037, 902.5));
#780 = LINE('', #779, #778);
#781 = DIRECTION('', (-0.16526596, -0.98624904, -0.));
#782 = DIRECTION('', (0., 0., -1.));
#783 = CARTESIAN_POINT('', (0., 0., 857.5));
#784 = AXIS2_PLACEMENT_3D('', #783, #782, #781);
#785 = CIRCLE('', #784, 100.);
#786 = DIRECTION('', (-0.16526596, -0.98624904, -0.));
#787 = DIRECTION('', (0., 0., -1.));
#788 = CARTESIAN_POINT('', (0., 0., 902.5));
#789 = AXIS2_PLACEMENT_3D('', #788, #787, #786);
#790 = CIRCLE('', #789, 100.);
#791 = DIRECTION('', (0., -0., 1.));
#792 = VECTOR('', #791, 1.);
#793 = CARTESIAN_POINT('', (-204.54694938, -284.28570887, 857.5));
#794 = LINE('', #793, #792);
#795 = DIRECTION('', (0., -0., -1.));
#796 = VECTOR('', #795, 1.);
#797 = CARTESIAN_POINT('', (-150.7307413, -331.07330219, 902.5));
#798 = LINE('', #797, #796);
#799 = DIRECTION('', (0.75466877, -0.65610597, 0.));
#800 = VECTOR('', #799, 1.);
#801 = CARTESIAN_POINT('', (-204.54694938, -284.28570887, 857.5));
#802 = LINE('', #801, #800);
#803 = DIRECTION('', (0.75466877, -0.65610597, 0.));
#804 = VECTOR('', #803, 1.);
#805 = CARTESIAN_POINT('', (-204.54694938, -284.28570887, 902.5));
#806 = LINE('', #805, #804);
#807 = DIRECTION('', (0.5, 0.8660254, 0.));
#808 = VECTOR('', #807, 1.);
#809 = CARTESIAN_POINT('', (-150.7307413, -331.07330219, 857.5));
#810 = LINE('', #809, #808);
#811 = DIRECTION('', (0.5, 0.8660254, 0.));
#812 = VECTOR('', #811, 1.);
#813 = CARTESIAN_POINT('', (-150.7307413, -331.07330219, 902.5));
#814 = LINE('', #813, #812);
#815 = DIRECTION('', (-0.5, -0.8660254, 0.));
#816 = VECTOR('', #815, 1.);
#817 = CARTESIAN_POINT('', (-77.14837412, -63.6249037, 857.5));
#818 = LINE('', #817, #816);
#819 = DIRECTION('', (-0.5, -0.8660254, 0.));
#820 = VECTOR('', #819, 1.);
#821 = CARTESIAN_POINT('', (-77.14837412, -63.6249037, 902.5));
#822 = LINE('', #821, #820);
#823 = EDGE_CURVE('', #6, #10, #205, .T.);
#824 = EDGE_CURVE('', #6, #22, #209, .T.);
#825 = EDGE_CURVE('', #8, #12, #214, .T.);
#826 = EDGE_CURVE('', #10, #6, #219, .T.);
#827 = EDGE_CURVE('', #12, #8, #224, .T.);
#828 = EDGE_CURVE('', #10, #24, #228, .T.);
#829 = EDGE_CURVE('', #14, #18, #233, .T.);
#830 = EDGE_CURVE('', #14, #102, #237, .T.);
#831 = EDGE_CURVE('', #16, #20, #242, .T.);
#832 = EDGE_CURVE('', #18, #14, #247, .T.);
#833 = EDGE_CURVE('', #20, #16, #252, .T.);
#834 = EDGE_CURVE('', #18, #20, #256, .T.);
#835 = EDGE_CURVE('', #22, #32, #261, .T.);
#836 = EDGE_CURVE('', #26, #36, #266, .T.);
#837 = EDGE_CURVE('', #22, #30, #271, .T.);
#838 = EDGE_CURVE('', #26, #34, #276, .T.);
#839 = EDGE_CURVE('', #30, #24, #281, .T.);
#840 = EDGE_CURVE('', #32, #24, #286, .T.);
#841 = EDGE_CURVE('', #34, #28, #291, .T.);
#842 = EDGE_CURVE('', #36, #28, #296, .T.);
#843 = EDGE_CURVE('', #28, #48, #300, .T.);
#844 = EDGE_CURVE('', #26, #46, #304, .T.);
#845 = EDGE_CURVE('', #38, #42, #309, .T.);
#846 = EDGE_CURVE('', #38, #154, #313, .T.);
#847 = EDGE_CURVE('', #40, #44, #318, .T.);
#848 = EDGE_CURVE('', #42, #38, #323, .T.);
#849 = EDGE_CURVE('', #44, #40, #328, .T.);
#850 = EDGE_CURVE('', #42, #44, #332, .T.);
#851 = EDGE_CURVE('', #46, #56, #337, .T.);
#852 = EDGE_CURVE('', #50, #60, #342, .T.);
#853 = EDGE_CURVE('', #46, #54, #347, .T.);
#854 = EDGE_CURVE('', #50, #58, #352, .T.);
#855 = EDGE_CURVE('', #54, #48, #357, .T.);
#856 = EDGE_CURVE('', #56, #48, #362, .T.);
#857 = EDGE_CURVE('', #58, #52, #367, .T.);
#858 = EDGE_CURVE('', #60, #52, #372, .T.);
#859 = EDGE_CURVE('', #52, #12, #376, .T.);
#860 = EDGE_CURVE('', #50, #8, #380, .T.);
#861 = EDGE_CURVE('', #62, #64, #384, .T.);
#862 = EDGE_CURVE('', #64, #66, #388, .T.);
#863 = EDGE_CURVE('', #68, #66, #392, .T.);
#864 = EDGE_CURVE('', #62, #68, #396, .T.);
#865 = EDGE_CURVE('', #64, #70, #400, .T.);
#866 = EDGE_CURVE('', #70, #72, #404, .T.);
#867 = EDGE_CURVE('', #66, #72, #408, .T.);
#868 = EDGE_CURVE('', #70, #62, #413, .T.);
#869 = EDGE_CURVE('', #72, #68, #418, .T.);
#870 = EDGE_CURVE('', #74, #76, #422, .T.);
#871 = EDGE_CURVE('', #76, #78, #426, .T.);
#872 = EDGE_CURVE('', #80, #78, #430, .T.);
#873 = EDGE_CURVE('', #74, #80, #434, .T.);
#874 = EDGE_CURVE('', #76, #82, #438, .T.);
#875 = EDGE_CURVE('', #82, #84, #442, .T.);
#876 = EDGE_CURVE('', #78, #84, #446, .T.);
#877 = EDGE_CURVE('', #82, #74, #451, .T.);
#878 = EDGE_CURVE('', #84, #80, #456, .T.);
#879 = EDGE_CURVE('', #86, #88, #460, .T.);
#880 = EDGE_CURVE('', #88, #90, #464, .T.);
#881 = EDGE_CURVE('', #92, #90, #468, .T.);
#882 = EDGE_CURVE('', #86, #92, #472, .T.);
#883 = EDGE_CURVE('', #88, #94, #476, .T.);
#884 = EDGE_CURVE('', #94, #96, #480, .T.);
#885 = EDGE_CURVE('', #90, #96, #484, .T.);
#886 = EDGE_CURVE('', #94, #86, #489, .T.);
#887 = EDGE_CURVE('', #96, #92, #494, .T.);
#888 = EDGE_CURVE('', #98, #100, #498, .T.);
#889 = EDGE_CURVE('', #102, #100, #503, .T.);
#890 = EDGE_CURVE('', #104, #98, #508, .T.);
#891 = EDGE_CURVE('', #106, #108, #512, .T.);
#892 = EDGE_CURVE('', #102, #108, #517, .T.);
#893 = EDGE_CURVE('', #104, #106, #522, .T.);
#894 = EDGE_CURVE('', #110, #112, #526, .T.);
#895 = EDGE_CURVE('', #114, #116, #530, .T.);
#896 = EDGE_CURVE('', #110, #116, #534, .T.);
#897 = EDGE_CURVE('', #112, #114, #538, .T.);
#898 = EDGE_CURVE('', #116, #100, #542, .T.);
#899 = EDGE_CURVE('', #114, #98, #546, .T.);
#900 = EDGE_CURVE('', #108, #110, #550, .T.);
#901 = EDGE_CURVE('', #106, #112, #554, .T.);
#902 = EDGE_CURVE('', #104, #16, #558, .T.);
#903 = EDGE_CURVE('', #118, #120, #562, .T.);
#904 = EDGE_CURVE('', #122, #124, #566, .T.);
#905 = EDGE_CURVE('', #120, #124, #571, .T.);
#906 = EDGE_CURVE('', #118, #122, #576, .T.);
#907 = EDGE_CURVE('', #126, #128, #580, .T.);
#908 = EDGE_CURVE('', #130, #132, #584, .T.);
#909 = EDGE_CURVE('', #126, #132, #588, .T.);
#910 = EDGE_CURVE('', #128, #130, #592, .T.);
#911 = EDGE_CURVE('', #132, #124, #596, .T.);
#912 = EDGE_CURVE('', #130, #122, #600, .T.);
#913 = EDGE_CURVE('', #120, #126, #604, .T.);
#914 = EDGE_CURVE('', #118, #128, #608, .T.);
#915 = EDGE_CURVE('', #134, #136, #612, .T.);
#916 = EDGE_CURVE('', #138, #140, #616, .T.);
#917 = EDGE_CURVE('', #140, #136, #621, .T.);
#918 = EDGE_CURVE('', #138, #134, #626, .T.);
#919 = EDGE_CURVE('', #142, #144, #630, .T.);
#920 = EDGE_CURVE('', #146, #148, #634, .T.);
#921 = EDGE_CURVE('', #142, #148, #638, .T.);
#922 = EDGE_CURVE('', #144, #146, #642, .T.);
#923 = EDGE_CURVE('', #148, #140, #646, .T.);
#924 = EDGE_CURVE('', #146, #138, #650, .T.);
#925 = EDGE_CURVE('', #136, #142, #654, .T.);
#926 = EDGE_CURVE('', #134, #144, #658, .T.);
#927 = EDGE_CURVE('', #150, #152, #662, .T.);
#928 = EDGE_CURVE('', #154, #152, #667, .T.);
#929 = EDGE_CURVE('', #156, #150, #672, .T.);
#930 = EDGE_CURVE('', #158, #160, #676, .T.);
#931 = EDGE_CURVE('', #154, #160, #681, .T.);
#932 = EDGE_CURVE('', #156, #158, #686, .T.);
#933 = EDGE_CURVE('', #162, #164, #690, .T.);
#934 = EDGE_CURVE('', #166, #168, #694, .T.);
#935 = EDGE_CURVE('', #162, #168, #698, .T.);
#936 = EDGE_CURVE('', #164, #166, #702, .T.);
#937 = EDGE_CURVE('', #168, #152, #706, .T.);
#938 = EDGE_CURVE('', #166, #150, #710, .T.);
#939 = EDGE_CURVE('', #160, #162, #714, .T.);
#940 = EDGE_CURVE('', #158, #164, #718, .T.);
#941 = EDGE_CURVE('', #156, #40, #722, .T.);
#942 = EDGE_CURVE('', #170, #172, #726, .T.);
#943 = EDGE_CURVE('', #174, #176, #730, .T.);
#944 = EDGE_CURVE('', #172, #176, #735, .T.);
#945 = EDGE_CURVE('', #170, #174, #740, .T.);
#946 = EDGE_CURVE('', #178, #180, #744, .T.);
#947 = EDGE_CURVE('', #182, #184, #748, .T.);
#948 = EDGE_CURVE('', #178, #184, #752, .T.);
#949 = EDGE_CURVE('', #180, #182, #756, .T.);
#950 = EDGE_CURVE('', #184, #176, #760, .T.);
#951 = EDGE_CURVE('', #182, #174, #764, .T.);
#952 = EDGE_CURVE('', #172, #178, #768, .T.);
#953 = EDGE_CURVE('', #170, #180, #772, .T.);
#954 = EDGE_CURVE('', #186, #188, #776, .T.);
#955 = EDGE_CURVE('', #190, #192, #780, .T.);
#956 = EDGE_CURVE('', #192, #188, #785, .T.);
#957 = EDGE_CURVE('', #190, #186, #790, .T.);
#958 = EDGE_CURVE('', #194, #196, #794, .T.);
#959 = EDGE_CURVE('', #198, #200, #798, .T.);
#960 = EDGE_CURVE('', #194, #200, #802, .T.);
#961 = EDGE_CURVE('', #196, #198, #806, .T.);
#962 = EDGE_CURVE('', #200, #192, #810, .T.);
#963 = EDGE_CURVE('', #198, #190, #814, .T.);
#964 = EDGE_CURVE('', #188, #194, #818, .T.);
#965 = EDGE_CURVE('', #186, #196, #822, .T.);
#966 = CARTESIAN_POINT('', (0., 0., 500.));
#967 = DIRECTION('', (-0., -0., 1.));
#968 = DIRECTION('', (1., -0., 0.));
#969 = AXIS2_PLACEMENT_3D('', #966, #967, #968);
#970 = CYLINDRICAL_SURFACE('', #969, 35.);
#971 = CARTESIAN_POINT('', (0., 0., 0.));
#972 = DIRECTION('', (0., -0., 1.));
#973 = AXIS2_PLACEMENT_3D('', #971, #972, $);
#974 = PLANE('', #973);
#975 = CARTESIAN_POINT('', (0., 0., 1000.));
#976 = DIRECTION('', (0., -0., 1.));
#977 = AXIS2_PLACEMENT_3D('', #975, #976, $);
#978 = PLANE('', #977);
#979 = CARTESIAN_POINT('', (0., -0., 120.));
#980 = DIRECTION('', (0., -0., 1.));
#981 = DIRECTION('', (1., 0., 0.));
#982 = AXIS2_PLACEMENT_3D('', #979, #980, #981);
#983 = CYLINDRICAL_SURFACE('', #982, 100.);
#984 = CARTESIAN_POINT('', (0., 0., 90.));
#985 = DIRECTION('', (0., -0., 1.));
#986 = AXIS2_PLACEMENT_3D('', #984, #985, $);
#987 = PLANE('', #986);
#988 = CARTESIAN_POINT('', (0., 0., 150.));
#989 = DIRECTION('', (0., -0., 1.));
#990 = AXIS2_PLACEMENT_3D('', #988, #989, $);
#991 = PLANE('', #990);
#992 = CARTESIAN_POINT('', (0., -0., 880.));
#993 = DIRECTION('', (0., -0., 1.));
#994 = DIRECTION('', (1., 0., 0.));
#995 = AXIS2_PLACEMENT_3D('', #992, #993, #994);
#996 = CYLINDRICAL_SURFACE('', #995, 100.);
#997 = CARTESIAN_POINT('', (0., 0., 850.));
#998 = DIRECTION('', (0., -0., 1.));
#999 = AXIS2_PLACEMENT_3D('', #997, #998, $);
#1000 = PLANE('', #999);
#1001 = CARTESIAN_POINT('', (0., 0., 910.));
#1002 = DIRECTION('', (0., -0., 1.));
#1003 = AXIS2_PLACEMENT_3D('', #1001, #1002, $);
#1004 = PLANE('', #1003);
#1005 = CARTESIAN_POINT('', (435.00000695, 49.99997896, 500.));
#1006 = DIRECTION('', (0.9816154, 0.19086963, -0.));
#1007 = AXIS2_PLACEMENT_3D('', #1005, #1006, $);
#1008 = PLANE('', #1007);
#1009 = CARTESIAN_POINT('', (364.99994189, 50.0000416, 500.));
#1010 = DIRECTION('', (-0.98161531, 0.19087005, 0.));
#1011 = AXIS2_PLACEMENT_3D('', #1009, #1010, $);
#1012 = PLANE('', #1011);
#1013 = CARTESIAN_POINT('', (400.00003358, -25.23375955, 500.));
#1014 = DIRECTION('', (0., 0., 1.));
#1015 = DIRECTION('', (-0.55555734, -0.83147823, 0.));
#1016 = AXIS2_PLACEMENT_3D('', #1013, #1014, #1015);
#1017 = CYLINDRICAL_SURFACE('', #1016, 125.99988072);
#1018 = CARTESIAN_POINT('', (0., 0., 0.));
#1019 = DIRECTION('', (0., -0., 1.));
#1020 = AXIS2_PLACEMENT_3D('', #1018, #1019, $);
#1021 = PLANE('', #1020);
#1022 = CARTESIAN_POINT('', (0., 0., 1000.));
#1023 = DIRECTION('', (0., -0., 1.));
#1024 = AXIS2_PLACEMENT_3D('', #1022, #1023, $);
#1025 = PLANE('', #1024);
#1026 = CARTESIAN_POINT('', (-260.80125544, 351.72106719, 500.));
#1027 = DIRECTION('', (-0.65610564, 0.75466906, 0.));
#1028 = AXIS2_PLACEMENT_3D('', #1026, #1027, $);
#1029 = PLANE('', #1028);
#1030 = CARTESIAN_POINT('', (-225.80127716, 291.09920125, 500.));
#1031 = DIRECTION('', (0.32550934, -0.94553882, 0.));
#1032 = AXIS2_PLACEMENT_3D('', #1030, #1031, $);
#1033 = PLANE('', #1032);
#1034 = CARTESIAN_POINT('', (-178.14693998, 359.02707037, 500.));
#1035 = DIRECTION('', (-0., -0., 1.));
#1036 = DIRECTION('', (0.99785994, -0.06538766, 0.));
#1037 = AXIS2_PLACEMENT_3D('', #1034, #1035, #1036);
#1038 = CYLINDRICAL_SURFACE('', #1037, 125.99988072);
#1039 = CARTESIAN_POINT('', (0., 0., 0.));
#1040 = DIRECTION('', (0., -0., 1.));
#1041 = AXIS2_PLACEMENT_3D('', #1039, #1040, $);
#1042 = PLANE('', #1041);
#1043 = CARTESIAN_POINT('', (0., 0., 1000.));
#1044 = DIRECTION('', (0., -0., 1.));
#1045 = AXIS2_PLACEMENT_3D('', #1043, #1044, $);
#1046 = PLANE('', #1045);
#1047 = CARTESIAN_POINT('', (-174.19875151, -401.72104615, 500.));
#1048 = DIRECTION('', (-0.32550975, -0.94553868, 0.));
#1049 = AXIS2_PLACEMENT_3D('', #1047, #1048, $);
#1050 = PLANE('', #1049);
#1051 = CARTESIAN_POINT('', (-139.19866473, -341.09924285, 500.));
#1052 = DIRECTION('', (0.65610597, 0.75466877, -0.));
#1053 = AXIS2_PLACEMENT_3D('', #1051, #1052, $);
#1054 = PLANE('', #1053);
#1055 = CARTESIAN_POINT('', (-221.85309359, -333.79331082, 500.));
#1056 = DIRECTION('', (0., -0., 1.));
#1057 = DIRECTION('', (-0.4423026, 0.89686588, 0.));
#1058 = AXIS2_PLACEMENT_3D('', #1055, #1056, #1057);
#1059 = CYLINDRICAL_SURFACE('', #1058, 125.99988072);
#1060 = CARTESIAN_POINT('', (0., 0., 0.));
#1061 = DIRECTION('', (0., 0., 1.));
#1062 = AXIS2_PLACEMENT_3D('', #1060, #1061, $);
#1063 = PLANE('', #1062);
#1064 = CARTESIAN_POINT('', (0., 0., 1000.));
#1065 = DIRECTION('', (0., 0., 1.));
#1066 = AXIS2_PLACEMENT_3D('', #1064, #1065, $);
#1067 = PLANE('', #1066);
#1068 = CARTESIAN_POINT('', (225., -35., 120.));
#1069 = DIRECTION('', (0., -1., 0.));
#1070 = AXIS2_PLACEMENT_3D('', #1068, #1069, $);
#1071 = PLANE('', #1070);
#1072 = CARTESIAN_POINT('', (225., 35., 120.));
#1073 = DIRECTION('', (0., 1., -0.));
#1074 = AXIS2_PLACEMENT_3D('', #1072, #1073, $);
#1075 = PLANE('', #1074);
#1076 = CARTESIAN_POINT('', (0., 0., 97.5));
#1077 = DIRECTION('', (0., -0., 1.));
#1078 = AXIS2_PLACEMENT_3D('', #1076, #1077, $);
#1079 = PLANE('', #1078);
#1080 = CARTESIAN_POINT('', (0., 0., 142.5));
#1081 = DIRECTION('', (0., -0., 1.));
#1082 = AXIS2_PLACEMENT_3D('', #1080, #1081, $);
#1083 = PLANE('', #1082);
#1084 = CARTESIAN_POINT('', (-82.18911087, 212.35571585, 120.));
#1085 = DIRECTION('', (0.8660254, 0.5, -0.));
#1086 = AXIS2_PLACEMENT_3D('', #1084, #1085, $);
#1087 = PLANE('', #1086);
#1088 = CARTESIAN_POINT('', (-142.81088913, 177.35571585, 120.));
#1089 = DIRECTION('', (-0.8660254, -0.5, 0.));
#1090 = AXIS2_PLACEMENT_3D('', #1088, #1089, $);
#1091 = PLANE('', #1090);
#1092 = CARTESIAN_POINT('', (0., 0., 97.5));
#1093 = DIRECTION('', (0., -0., 1.));
#1094 = AXIS2_PLACEMENT_3D('', #1092, #1093, $);
#1095 = PLANE('', #1094);
#1096 = CARTESIAN_POINT('', (0., 0., 142.5));
#1097 = DIRECTION('', (0., -0., 1.));
#1098 = AXIS2_PLACEMENT_3D('', #1096, #1097, $);
#1099 = PLANE('', #1098);
#1100 = CARTESIAN_POINT('', (-142.81088913, -177.35571585, 120.));
#1101 = DIRECTION('', (-0.8660254, 0.5, 0.));
#1102 = AXIS2_PLACEMENT_3D('', #1100, #1101, $);
#1103 = PLANE('', #1102);
#1104 = CARTESIAN_POINT('', (-82.18911087, -212.35571585, 120.));
#1105 = DIRECTION('', (0.8660254, -0.5, 0.));
#1106 = AXIS2_PLACEMENT_3D('', #1104, #1105, $);
#1107 = PLANE('', #1106);
#1108 = CARTESIAN_POINT('', (0., 0., 97.5));
#1109 = DIRECTION('', (0., 0., 1.));
#1110 = AXIS2_PLACEMENT_3D('', #1108, #1109, $);
#1111 = PLANE('', #1110);
#1112 = CARTESIAN_POINT('', (0., 0., 142.5));
#1113 = DIRECTION('', (0., 0., 1.));
#1114 = AXIS2_PLACEMENT_3D('', #1112, #1113, $);
#1115 = PLANE('', #1114);
#1116 = CARTESIAN_POINT('', (225., -35., 880.));
#1117 = DIRECTION('', (0., -1., 0.));
#1118 = AXIS2_PLACEMENT_3D('', #1116, #1117, $);
#1119 = PLANE('', #1118);
#1120 = CARTESIAN_POINT('', (225., 35., 880.));
#1121 = DIRECTION('', (0., 1., 0.));
#1122 = AXIS2_PLACEMENT_3D('', #1120, #1121, $);
#1123 = PLANE('', #1122);
#1124 = CARTESIAN_POINT('', (0., 0., 857.5));
#1125 = DIRECTION('', (0., -0., 1.));
#1126 = AXIS2_PLACEMENT_3D('', #1124, #1125, $);
#1127 = PLANE('', #1126);
#1128 = CARTESIAN_POINT('', (0., 0., 902.5));
#1129 = DIRECTION('', (0., -0., 1.));
#1130 = AXIS2_PLACEMENT_3D('', #1128, #1129, $);
#1131 = PLANE('', #1130);
#1132 = CARTESIAN_POINT('', (-82.18911087, 212.35571585, 880.));
#1133 = DIRECTION('', (0.8660254, 0.5, 0.));
#1134 = AXIS2_PLACEMENT_3D('', #1132, #1133, $);
#1135 = PLANE('', #1134);
#1136 = CARTESIAN_POINT('', (-142.81088913, 177.35571585, 880.));
#1137 = DIRECTION('', (-0.8660254, -0.5, 0.));
#1138 = AXIS2_PLACEMENT_3D('', #1136, #1137, $);
#1139 = PLANE('', #1138);
#1140 = CARTESIAN_POINT('', (0., 0., 857.5));
#1141 = DIRECTION('', (0., -0., 1.));
#1142 = AXIS2_PLACEMENT_3D('', #1140, #1141, $);
#1143 = PLANE('', #1142);
#1144 = CARTESIAN_POINT('', (0., 0., 902.5));
#1145 = DIRECTION('', (0., -0., 1.));
#1146 = AXIS2_PLACEMENT_3D('', #1144, #1145, $);
#1147 = PLANE('', #1146);
#1148 = CARTESIAN_POINT('', (-142.81088913, -177.35571585, 880.));
#1149 = DIRECTION('', (-0.8660254, 0.5, 0.));
#1150 = AXIS2_PLACEMENT_3D('', #1148, #1149, $);
#1151 = PLANE('', #1150);
#1152 = CARTESIAN_POINT('', (-82.18911087, -212.35571585, 880.));
#1153 = DIRECTION('', (0.8660254, -0.5, 0.));
#1154 = AXIS2_PLACEMENT_3D('', #1152, #1153, $);
#1155 = PLANE('', #1154);
#1156 = CARTESIAN_POINT('', (0., 0., 857.5));
#1157 = DIRECTION('', (0., 0., 1.));
#1158 = AXIS2_PLACEMENT_3D('', #1156, #1157, $);
#1159 = PLANE('', #1158);
#1160 = CARTESIAN_POINT('', (0., 0., 902.5));
#1161 = DIRECTION('', (0., 0., 1.));
#1162 = AXIS2_PLACEMENT_3D('', #1160, #1161, $);
#1163 = PLANE('', #1162);
#1164 = ORIENTED_EDGE('', *, *, #826, .F.);
#1165 = ORIENTED_EDGE('', *, *, #823, .F.);
#1166 = EDGE_LOOP('', (#1164, #1165));
#1167 = FACE_BOUND('', #1166, .T.);
#1168 = ADVANCED_FACE('', (#1167), #974, .F.);
#1169 = ORIENTED_EDGE('', *, *, #825, .T.);
#1170 = ORIENTED_EDGE('', *, *, #827, .T.);
#1171 = EDGE_LOOP('', (#1169, #1170));
#1172 = FACE_BOUND('', #1171, .T.);
#1173 = ADVANCED_FACE('', (#1172), #978, .T.);
#1174 = ORIENTED_EDGE('', *, *, #834, .T.);
#1175 = ORIENTED_EDGE('', *, *, #831, .F.);
#1176 = ORIENTED_EDGE('', *, *, #902, .F.);
#1177 = ORIENTED_EDGE('', *, *, #890, .T.);
#1178 = ORIENTED_EDGE('', *, *, #888, .T.);
#1179 = ORIENTED_EDGE('', *, *, #889, .F.);
#1180 = ORIENTED_EDGE('', *, *, #830, .F.);
#1181 = ORIENTED_EDGE('', *, *, #829, .T.);
#1182 = ORIENTED_EDGE('', *, *, #903, .F.);
#1183 = ORIENTED_EDGE('', *, *, #906, .T.);
#1184 = ORIENTED_EDGE('', *, *, #904, .T.);
#1185 = ORIENTED_EDGE('', *, *, #905, .F.);
#1186 = EDGE_LOOP('', (#1174, #1175, #1176, #1177, #1178, #1179, #1180, #1181));
#1187 = FACE_BOUND('', #1186, .T.);
#1188 = EDGE_LOOP('', (#1182, #1183, #1184, #1185));
#1189 = FACE_BOUND('', #1188, .T.);
#1190 = ADVANCED_FACE('', (#1187, #1189), #983, .T.);
#1191 = ORIENTED_EDGE('', *, *, #832, .F.);
#1192 = ORIENTED_EDGE('', *, *, #829, .F.);
#1193 = ORIENTED_EDGE('', *, *, #840, .T.);
#1194 = ORIENTED_EDGE('', *, *, #839, .F.);
#1195 = ORIENTED_EDGE('', *, *, #837, .F.);
#1196 = ORIENTED_EDGE('', *, *, #835, .T.);
#1197 = EDGE_LOOP('', (#1191, #1192));
#1198 = FACE_BOUND('', #1197, .T.);
#1199 = EDGE_LOOP('', (#1193, #1194, #1195, #1196));
#1200 = FACE_BOUND('', #1199, .T.);
#1201 = ADVANCED_FACE('', (#1198, #1200), #987, .F.);
#1202 = ORIENTED_EDGE('', *, *, #831, .T.);
#1203 = ORIENTED_EDGE('', *, *, #833, .T.);
#1204 = ORIENTED_EDGE('', *, *, #836, .F.);
#1205 = ORIENTED_EDGE('', *, *, #838, .T.);
#1206 = ORIENTED_EDGE('', *, *, #841, .T.);
#1207 = ORIENTED_EDGE('', *, *, #842, .F.);
#1208 = EDGE_LOOP('', (#1202, #1203));
#1209 = FACE_BOUND('', #1208, .T.);
#1210 = EDGE_LOOP('', (#1204, #1205, #1206, #1207));
#1211 = FACE_BOUND('', #1210, .T.);
#1212 = ADVANCED_FACE('', (#1209, #1211), #991, .T.);
#1213 = ORIENTED_EDGE('', *, *, #834, .F.);
#1214 = ORIENTED_EDGE('', *, *, #832, .T.);
#1215 = ORIENTED_EDGE('', *, *, #830, .T.);
#1216 = ORIENTED_EDGE('', *, *, #892, .T.);
#1217 = ORIENTED_EDGE('', *, *, #891, .F.);
#1218 = ORIENTED_EDGE('', *, *, #893, .F.);
#1219 = ORIENTED_EDGE('', *, *, #902, .T.);
#1220 = ORIENTED_EDGE('', *, *, #833, .F.);
#1221 = ORIENTED_EDGE('', *, *, #915, .F.);
#1222 = ORIENTED_EDGE('', *, *, #918, .F.);
#1223 = ORIENTED_EDGE('', *, *, #916, .T.);
#1224 = ORIENTED_EDGE('', *, *, #917, .T.);
#1225 = EDGE_LOOP('', (#1213, #1214, #1215, #1216, #1217, #1218, #1219, #1220));
#1226 = FACE_BOUND('', #1225, .T.);
#1227 = EDGE_LOOP('', (#1221, #1222, #1223, #1224));
#1228 = FACE_BOUND('', #1227, .T.);
#1229 = ADVANCED_FACE('', (#1226, #1228), #983, .T.);
#1230 = ORIENTED_EDGE('', *, *, #828, .F.);
#1231 = ORIENTED_EDGE('', *, *, #826, .T.);
#1232 = ORIENTED_EDGE('', *, *, #824, .T.);
#1233 = ORIENTED_EDGE('', *, *, #837, .T.);
#1234 = ORIENTED_EDGE('', *, *, #839, .T.);
#1235 = EDGE_LOOP('', (#1230, #1231, #1232, #1233, #1234));
#1236 = FACE_BOUND('', #1235, .T.);
#1237 = ADVANCED_FACE('', (#1236), #970, .T.);
#1238 = ORIENTED_EDGE('', *, *, #828, .T.);
#1239 = ORIENTED_EDGE('', *, *, #840, .F.);
#1240 = ORIENTED_EDGE('', *, *, #835, .F.);
#1241 = ORIENTED_EDGE('', *, *, #824, .F.);
#1242 = ORIENTED_EDGE('', *, *, #823, .T.);
#1243 = EDGE_LOOP('', (#1238, #1239, #1240, #1241, #1242));
#1244 = FACE_BOUND('', #1243, .T.);
#1245 = ADVANCED_FACE('', (#1244), #970, .T.);
#1246 = ORIENTED_EDGE('', *, *, #843, .T.);
#1247 = ORIENTED_EDGE('', *, *, #855, .F.);
#1248 = ORIENTED_EDGE('', *, *, #853, .F.);
#1249 = ORIENTED_EDGE('', *, *, #844, .F.);
#1250 = ORIENTED_EDGE('', *, *, #836, .T.);
#1251 = ORIENTED_EDGE('', *, *, #842, .T.);
#1252 = EDGE_LOOP('', (#1246, #1247, #1248, #1249, #1250, #1251));
#1253 = FACE_BOUND('', #1252, .T.);
#1254 = ADVANCED_FACE('', (#1253), #970, .T.);
#1255 = ORIENTED_EDGE('', *, *, #850, .T.);
#1256 = ORIENTED_EDGE('', *, *, #847, .F.);
#1257 = ORIENTED_EDGE('', *, *, #941, .F.);
#1258 = ORIENTED_EDGE('', *, *, #929, .T.);
#1259 = ORIENTED_EDGE('', *, *, #927, .T.);
#1260 = ORIENTED_EDGE('', *, *, #928, .F.);
#1261 = ORIENTED_EDGE('', *, *, #846, .F.);
#1262 = ORIENTED_EDGE('', *, *, #845, .T.);
#1263 = ORIENTED_EDGE('', *, *, #942, .F.);
#1264 = ORIENTED_EDGE('', *, *, #945, .T.);
#1265 = ORIENTED_EDGE('', *, *, #943, .T.);
#1266 = ORIENTED_EDGE('', *, *, #944, .F.);
#1267 = EDGE_LOOP('', (#1255, #1256, #1257, #1258, #1259, #1260, #1261, #1262));
#1268 = FACE_BOUND('', #1267, .T.);
#1269 = EDGE_LOOP('', (#1263, #1264, #1265, #1266));
#1270 = FACE_BOUND('', #1269, .T.);
#1271 = ADVANCED_FACE('', (#1268, #1270), #996, .T.);
#1272 = ORIENTED_EDGE('', *, *, #848, .F.);
#1273 = ORIENTED_EDGE('', *, *, #845, .F.);
#1274 = ORIENTED_EDGE('', *, *, #853, .T.);
#1275 = ORIENTED_EDGE('', *, *, #855, .T.);
#1276 = ORIENTED_EDGE('', *, *, #856, .F.);
#1277 = ORIENTED_EDGE('', *, *, #851, .F.);
#1278 = EDGE_LOOP('', (#1272, #1273));
#1279 = FACE_BOUND('', #1278, .T.);
#1280 = EDGE_LOOP('', (#1274, #1275, #1276, #1277));
#1281 = FACE_BOUND('', #1280, .T.);
#1282 = ADVANCED_FACE('', (#1279, #1281), #1000, .F.);
#1283 = ORIENTED_EDGE('', *, *, #847, .T.);
#1284 = ORIENTED_EDGE('', *, *, #849, .T.);
#1285 = ORIENTED_EDGE('', *, *, #852, .T.);
#1286 = ORIENTED_EDGE('', *, *, #858, .T.);
#1287 = ORIENTED_EDGE('', *, *, #857, .F.);
#1288 = ORIENTED_EDGE('', *, *, #854, .F.);
#1289 = EDGE_LOOP('', (#1283, #1284));
#1290 = FACE_BOUND('', #1289, .T.);
#1291 = EDGE_LOOP('', (#1285, #1286, #1287, #1288));
#1292 = FACE_BOUND('', #1291, .T.);
#1293 = ADVANCED_FACE('', (#1290, #1292), #1004, .T.);
#1294 = ORIENTED_EDGE('', *, *, #850, .F.);
#1295 = ORIENTED_EDGE('', *, *, #848, .T.);
#1296 = ORIENTED_EDGE('', *, *, #846, .T.);
#1297 = ORIENTED_EDGE('', *, *, #931, .T.);
#1298 = ORIENTED_EDGE('', *, *, #930, .F.);
#1299 = ORIENTED_EDGE('', *, *, #932, .F.);
#1300 = ORIENTED_EDGE('', *, *, #941, .T.);
#1301 = ORIENTED_EDGE('', *, *, #849, .F.);
#1302 = ORIENTED_EDGE('', *, *, #954, .F.);
#1303 = ORIENTED_EDGE('', *, *, #957, .F.);
#1304 = ORIENTED_EDGE('', *, *, #955, .T.);
#1305 = ORIENTED_EDGE('', *, *, #956, .T.);
#1306 = EDGE_LOOP('', (#1294, #1295, #1296, #1297, #1298, #1299, #1300, #1301));
#1307 = FACE_BOUND('', #1306, .T.);
#1308 = EDGE_LOOP('', (#1302, #1303, #1304, #1305));
#1309 = FACE_BOUND('', #1308, .T.);
#1310 = ADVANCED_FACE('', (#1307, #1309), #996, .T.);
#1311 = ORIENTED_EDGE('', *, *, #859, .T.);
#1312 = ORIENTED_EDGE('', *, *, #825, .F.);
#1313 = ORIENTED_EDGE('', *, *, #860, .F.);
#1314 = ORIENTED_EDGE('', *, *, #854, .T.);
#1315 = ORIENTED_EDGE('', *, *, #857, .T.);
#1316 = EDGE_LOOP('', (#1311, #1312, #1313, #1314, #1315));
#1317 = FACE_BOUND('', #1316, .T.);
#1318 = ADVANCED_FACE('', (#1317), #970, .T.);
#1319 = ORIENTED_EDGE('', *, *, #843, .F.);
#1320 = ORIENTED_EDGE('', *, *, #841, .F.);
#1321 = ORIENTED_EDGE('', *, *, #838, .F.);
#1322 = ORIENTED_EDGE('', *, *, #844, .T.);
#1323 = ORIENTED_EDGE('', *, *, #851, .T.);
#1324 = ORIENTED_EDGE('', *, *, #856, .T.);
#1325 = EDGE_LOOP('', (#1319, #1320, #1321, #1322, #1323, #1324));
#1326 = FACE_BOUND('', #1325, .T.);
#1327 = ADVANCED_FACE('', (#1326), #970, .T.);
#1328 = ORIENTED_EDGE('', *, *, #859, .F.);
#1329 = ORIENTED_EDGE('', *, *, #858, .F.);
#1330 = ORIENTED_EDGE('', *, *, #852, .F.);
#1331 = ORIENTED_EDGE('', *, *, #860, .T.);
#1332 = ORIENTED_EDGE('', *, *, #827, .F.);
#1333 = EDGE_LOOP('', (#1328, #1329, #1330, #1331, #1332));
#1334 = FACE_BOUND('', #1333, .T.);
#1335 = ADVANCED_FACE('', (#1334), #970, .T.);
#1336 = ORIENTED_EDGE('', *, *, #861, .T.);
#1337 = ORIENTED_EDGE('', *, *, #862, .T.);
#1338 = ORIENTED_EDGE('', *, *, #863, .F.);
#1339 = ORIENTED_EDGE('', *, *, #864, .F.);
#1340 = EDGE_LOOP('', (#1336, #1337, #1338, #1339));
#1341 = FACE_BOUND('', #1340, .T.);
#1342 = ADVANCED_FACE('', (#1341), #1008, .T.);
#1343 = ORIENTED_EDGE('', *, *, #865, .T.);
#1344 = ORIENTED_EDGE('', *, *, #866, .T.);
#1345 = ORIENTED_EDGE('', *, *, #867, .F.);
#1346 = ORIENTED_EDGE('', *, *, #862, .F.);
#1347 = ORIENTED_EDGE('', *, *, #894, .F.);
#1348 = ORIENTED_EDGE('', *, *, #896, .T.);
#1349 = ORIENTED_EDGE('', *, *, #895, .F.);
#1350 = ORIENTED_EDGE('', *, *, #897, .F.);
#1351 = ORIENTED_EDGE('', *, *, #933, .F.);
#1352 = ORIENTED_EDGE('', *, *, #935, .T.);
#1353 = ORIENTED_EDGE('', *, *, #934, .F.);
#1354 = ORIENTED_EDGE('', *, *, #936, .F.);
#1355 = EDGE_LOOP('', (#1343, #1344, #1345, #1346));
#1356 = FACE_BOUND('', #1355, .T.);
#1357 = EDGE_LOOP('', (#1347, #1348, #1349, #1350));
#1358 = FACE_BOUND('', #1357, .T.);
#1359 = EDGE_LOOP('', (#1351, #1352, #1353, #1354));
#1360 = FACE_BOUND('', #1359, .T.);
#1361 = ADVANCED_FACE('', (#1356, #1358, #1360), #1012, .T.);
#1362 = ORIENTED_EDGE('', *, *, #868, .T.);
#1363 = ORIENTED_EDGE('', *, *, #864, .T.);
#1364 = ORIENTED_EDGE('', *, *, #869, .F.);
#1365 = ORIENTED_EDGE('', *, *, #866, .F.);
#1366 = EDGE_LOOP('', (#1362, #1363, #1364, #1365));
#1367 = FACE_BOUND('', #1366, .T.);
#1368 = ADVANCED_FACE('', (#1367), #1017, .T.);
#1369 = ORIENTED_EDGE('', *, *, #868, .F.);
#1370 = ORIENTED_EDGE('', *, *, #865, .F.);
#1371 = ORIENTED_EDGE('', *, *, #861, .F.);
#1372 = EDGE_LOOP('', (#1369, #1370, #1371));
#1373 = FACE_BOUND('', #1372, .T.);
#1374 = ADVANCED_FACE('', (#1373), #1021, .F.);
#1375 = ORIENTED_EDGE('', *, *, #863, .T.);
#1376 = ORIENTED_EDGE('', *, *, #867, .T.);
#1377 = ORIENTED_EDGE('', *, *, #869, .T.);
#1378 = EDGE_LOOP('', (#1375, #1376, #1377));
#1379 = FACE_BOUND('', #1378, .T.);
#1380 = ADVANCED_FACE('', (#1379), #1025, .T.);
#1381 = ORIENTED_EDGE('', *, *, #870, .T.);
#1382 = ORIENTED_EDGE('', *, *, #871, .T.);
#1383 = ORIENTED_EDGE('', *, *, #872, .F.);
#1384 = ORIENTED_EDGE('', *, *, #873, .F.);
#1385 = EDGE_LOOP('', (#1381, #1382, #1383, #1384));
#1386 = FACE_BOUND('', #1385, .T.);
#1387 = ADVANCED_FACE('', (#1386), #1029, .T.);
#1388 = ORIENTED_EDGE('', *, *, #874, .T.);
#1389 = ORIENTED_EDGE('', *, *, #875, .T.);
#1390 = ORIENTED_EDGE('', *, *, #876, .F.);
#1391 = ORIENTED_EDGE('', *, *, #871, .F.);
#1392 = ORIENTED_EDGE('', *, *, #907, .F.);
#1393 = ORIENTED_EDGE('', *, *, #909, .T.);
#1394 = ORIENTED_EDGE('', *, *, #908, .F.);
#1395 = ORIENTED_EDGE('', *, *, #910, .F.);
#1396 = ORIENTED_EDGE('', *, *, #946, .F.);
#1397 = ORIENTED_EDGE('', *, *, #948, .T.);
#1398 = ORIENTED_EDGE('', *, *, #947, .F.);
#1399 = ORIENTED_EDGE('', *, *, #949, .F.);
#1400 = EDGE_LOOP('', (#1388, #1389, #1390, #1391));
#1401 = FACE_BOUND('', #1400, .T.);
#1402 = EDGE_LOOP('', (#1392, #1393, #1394, #1395));
#1403 = FACE_BOUND('', #1402, .T.);
#1404 = EDGE_LOOP('', (#1396, #1397, #1398, #1399));
#1405 = FACE_BOUND('', #1404, .T.);
#1406 = ADVANCED_FACE('', (#1401, #1403, #1405), #1033, .T.);
#1407 = ORIENTED_EDGE('', *, *, #877, .T.);
#1408 = ORIENTED_EDGE('', *, *, #873, .T.);
#1409 = ORIENTED_EDGE('', *, *, #878, .F.);
#1410 = ORIENTED_EDGE('', *, *, #875, .F.);
#1411 = EDGE_LOOP('', (#1407, #1408, #1409, #1410));
#1412 = FACE_BOUND('', #1411, .T.);
#1413 = ADVANCED_FACE('', (#1412), #1038, .T.);
#1414 = ORIENTED_EDGE('', *, *, #877, .F.);
#1415 = ORIENTED_EDGE('', *, *, #874, .F.);
#1416 = ORIENTED_EDGE('', *, *, #870, .F.);
#1417 = EDGE_LOOP('', (#1414, #1415, #1416));
#1418 = FACE_BOUND('', #1417, .T.);
#1419 = ADVANCED_FACE('', (#1418), #1042, .F.);
#1420 = ORIENTED_EDGE('', *, *, #872, .T.);
#1421 = ORIENTED_EDGE('', *, *, #876, .T.);
#1422 = ORIENTED_EDGE('', *, *, #878, .T.);
#1423 = EDGE_LOOP('', (#1420, #1421, #1422));
#1424 = FACE_BOUND('', #1423, .T.);
#1425 = ADVANCED_FACE('', (#1424), #1046, .T.);
#1426 = ORIENTED_EDGE('', *, *, #879, .T.);
#1427 = ORIENTED_EDGE('', *, *, #880, .T.);
#1428 = ORIENTED_EDGE('', *, *, #881, .F.);
#1429 = ORIENTED_EDGE('', *, *, #882, .F.);
#1430 = EDGE_LOOP('', (#1426, #1427, #1428, #1429));
#1431 = FACE_BOUND('', #1430, .T.);
#1432 = ADVANCED_FACE('', (#1431), #1050, .T.);
#1433 = ORIENTED_EDGE('', *, *, #883, .T.);
#1434 = ORIENTED_EDGE('', *, *, #884, .T.);
#1435 = ORIENTED_EDGE('', *, *, #885, .F.);
#1436 = ORIENTED_EDGE('', *, *, #880, .F.);
#1437 = ORIENTED_EDGE('', *, *, #919, .F.);
#1438 = ORIENTED_EDGE('', *, *, #921, .T.);
#1439 = ORIENTED_EDGE('', *, *, #920, .F.);
#1440 = ORIENTED_EDGE('', *, *, #922, .F.);
#1441 = ORIENTED_EDGE('', *, *, #958, .F.);
#1442 = ORIENTED_EDGE('', *, *, #960, .T.);
#1443 = ORIENTED_EDGE('', *, *, #959, .F.);
#1444 = ORIENTED_EDGE('', *, *, #961, .F.);
#1445 = EDGE_LOOP('', (#1433, #1434, #1435, #1436));
#1446 = FACE_BOUND('', #1445, .T.);
#1447 = EDGE_LOOP('', (#1437, #1438, #1439, #1440));
#1448 = FACE_BOUND('', #1447, .T.);
#1449 = EDGE_LOOP('', (#1441, #1442, #1443, #1444));
#1450 = FACE_BOUND('', #1449, .T.);
#1451 = ADVANCED_FACE('', (#1446, #1448, #1450), #1054, .T.);
#1452 = ORIENTED_EDGE('', *, *, #886, .T.);
#1453 = ORIENTED_EDGE('', *, *, #882, .T.);
#1454 = ORIENTED_EDGE('', *, *, #887, .F.);
#1455 = ORIENTED_EDGE('', *, *, #884, .F.);
#1456 = EDGE_LOOP('', (#1452, #1453, #1454, #1455));
#1457 = FACE_BOUND('', #1456, .T.);
#1458 = ADVANCED_FACE('', (#1457), #1059, .T.);
#1459 = ORIENTED_EDGE('', *, *, #886, .F.);
#1460 = ORIENTED_EDGE('', *, *, #883, .F.);
#1461 = ORIENTED_EDGE('', *, *, #879, .F.);
#1462 = EDGE_LOOP('', (#1459, #1460, #1461));
#1463 = FACE_BOUND('', #1462, .T.);
#1464 = ADVANCED_FACE('', (#1463), #1063, .F.);
#1465 = ORIENTED_EDGE('', *, *, #881, .T.);
#1466 = ORIENTED_EDGE('', *, *, #885, .T.);
#1467 = ORIENTED_EDGE('', *, *, #887, .T.);
#1468 = EDGE_LOOP('', (#1465, #1466, #1467));
#1469 = FACE_BOUND('', #1468, .T.);
#1470 = ADVANCED_FACE('', (#1469), #1067, .T.);
#1471 = ORIENTED_EDGE('', *, *, #900, .T.);
#1472 = ORIENTED_EDGE('', *, *, #894, .T.);
#1473 = ORIENTED_EDGE('', *, *, #901, .F.);
#1474 = ORIENTED_EDGE('', *, *, #891, .T.);
#1475 = EDGE_LOOP('', (#1471, #1472, #1473, #1474));
#1476 = FACE_BOUND('', #1475, .T.);
#1477 = ADVANCED_FACE('', (#1476), #1071, .T.);
#1478 = ORIENTED_EDGE('', *, *, #901, .T.);
#1479 = ORIENTED_EDGE('', *, *, #897, .T.);
#1480 = ORIENTED_EDGE('', *, *, #899, .T.);
#1481 = ORIENTED_EDGE('', *, *, #890, .F.);
#1482 = ORIENTED_EDGE('', *, *, #893, .T.);
#1483 = EDGE_LOOP('', (#1478, #1479, #1480, #1481, #1482));
#1484 = FACE_BOUND('', #1483, .T.);
#1485 = ADVANCED_FACE('', (#1484), #1083, .T.);
#1486 = ORIENTED_EDGE('', *, *, #892, .F.);
#1487 = ORIENTED_EDGE('', *, *, #889, .T.);
#1488 = ORIENTED_EDGE('', *, *, #898, .F.);
#1489 = ORIENTED_EDGE('', *, *, #896, .F.);
#1490 = ORIENTED_EDGE('', *, *, #900, .F.);
#1491 = EDGE_LOOP('', (#1486, #1487, #1488, #1489, #1490));
#1492 = FACE_BOUND('', #1491, .T.);
#1493 = ADVANCED_FACE('', (#1492), #1079, .F.);
#1494 = ORIENTED_EDGE('', *, *, #898, .T.);
#1495 = ORIENTED_EDGE('', *, *, #888, .F.);
#1496 = ORIENTED_EDGE('', *, *, #899, .F.);
#1497 = ORIENTED_EDGE('', *, *, #895, .T.);
#1498 = EDGE_LOOP('', (#1494, #1495, #1496, #1497));
#1499 = FACE_BOUND('', #1498, .T.);
#1500 = ADVANCED_FACE('', (#1499), #1075, .T.);
#1501 = ORIENTED_EDGE('', *, *, #914, .T.);
#1502 = ORIENTED_EDGE('', *, *, #910, .T.);
#1503 = ORIENTED_EDGE('', *, *, #912, .T.);
#1504 = ORIENTED_EDGE('', *, *, #906, .F.);
#1505 = EDGE_LOOP('', (#1501, #1502, #1503, #1504));
#1506 = FACE_BOUND('', #1505, .T.);
#1507 = ADVANCED_FACE('', (#1506), #1099, .T.);
#1508 = ORIENTED_EDGE('', *, *, #905, .T.);
#1509 = ORIENTED_EDGE('', *, *, #911, .F.);
#1510 = ORIENTED_EDGE('', *, *, #909, .F.);
#1511 = ORIENTED_EDGE('', *, *, #913, .F.);
#1512 = EDGE_LOOP('', (#1508, #1509, #1510, #1511));
#1513 = FACE_BOUND('', #1512, .T.);
#1514 = ADVANCED_FACE('', (#1513), #1095, .F.);
#1515 = ORIENTED_EDGE('', *, *, #911, .T.);
#1516 = ORIENTED_EDGE('', *, *, #904, .F.);
#1517 = ORIENTED_EDGE('', *, *, #912, .F.);
#1518 = ORIENTED_EDGE('', *, *, #908, .T.);
#1519 = EDGE_LOOP('', (#1515, #1516, #1517, #1518));
#1520 = FACE_BOUND('', #1519, .T.);
#1521 = ADVANCED_FACE('', (#1520), #1091, .T.);
#1522 = ORIENTED_EDGE('', *, *, #913, .T.);
#1523 = ORIENTED_EDGE('', *, *, #907, .T.);
#1524 = ORIENTED_EDGE('', *, *, #914, .F.);
#1525 = ORIENTED_EDGE('', *, *, #903, .T.);
#1526 = EDGE_LOOP('', (#1522, #1523, #1524, #1525));
#1527 = FACE_BOUND('', #1526, .T.);
#1528 = ADVANCED_FACE('', (#1527), #1087, .T.);
#1529 = ORIENTED_EDGE('', *, *, #917, .F.);
#1530 = ORIENTED_EDGE('', *, *, #923, .F.);
#1531 = ORIENTED_EDGE('', *, *, #921, .F.);
#1532 = ORIENTED_EDGE('', *, *, #925, .F.);
#1533 = EDGE_LOOP('', (#1529, #1530, #1531, #1532));
#1534 = FACE_BOUND('', #1533, .T.);
#1535 = ADVANCED_FACE('', (#1534), #1111, .F.);
#1536 = ORIENTED_EDGE('', *, *, #923, .T.);
#1537 = ORIENTED_EDGE('', *, *, #916, .F.);
#1538 = ORIENTED_EDGE('', *, *, #924, .F.);
#1539 = ORIENTED_EDGE('', *, *, #920, .T.);
#1540 = EDGE_LOOP('', (#1536, #1537, #1538, #1539));
#1541 = FACE_BOUND('', #1540, .T.);
#1542 = ADVANCED_FACE('', (#1541), #1107, .T.);
#1543 = ORIENTED_EDGE('', *, *, #925, .T.);
#1544 = ORIENTED_EDGE('', *, *, #919, .T.);
#1545 = ORIENTED_EDGE('', *, *, #926, .F.);
#1546 = ORIENTED_EDGE('', *, *, #915, .T.);
#1547 = EDGE_LOOP('', (#1543, #1544, #1545, #1546));
#1548 = FACE_BOUND('', #1547, .T.);
#1549 = ADVANCED_FACE('', (#1548), #1103, .T.);
#1550 = ORIENTED_EDGE('', *, *, #926, .T.);
#1551 = ORIENTED_EDGE('', *, *, #922, .T.);
#1552 = ORIENTED_EDGE('', *, *, #924, .T.);
#1553 = ORIENTED_EDGE('', *, *, #918, .T.);
#1554 = EDGE_LOOP('', (#1550, #1551, #1552, #1553));
#1555 = FACE_BOUND('', #1554, .T.);
#1556 = ADVANCED_FACE('', (#1555), #1115, .T.);
#1557 = ORIENTED_EDGE('', *, *, #939, .T.);
#1558 = ORIENTED_EDGE('', *, *, #933, .T.);
#1559 = ORIENTED_EDGE('', *, *, #940, .F.);
#1560 = ORIENTED_EDGE('', *, *, #930, .T.);
#1561 = EDGE_LOOP('', (#1557, #1558, #1559, #1560));
#1562 = FACE_BOUND('', #1561, .T.);
#1563 = ADVANCED_FACE('', (#1562), #1119, .T.);
#1564 = ORIENTED_EDGE('', *, *, #931, .F.);
#1565 = ORIENTED_EDGE('', *, *, #928, .T.);
#1566 = ORIENTED_EDGE('', *, *, #937, .F.);
#1567 = ORIENTED_EDGE('', *, *, #935, .F.);
#1568 = ORIENTED_EDGE('', *, *, #939, .F.);
#1569 = EDGE_LOOP('', (#1564, #1565, #1566, #1567, #1568));
#1570 = FACE_BOUND('', #1569, .T.);
#1571 = ADVANCED_FACE('', (#1570), #1127, .F.);
#1572 = ORIENTED_EDGE('', *, *, #937, .T.);
#1573 = ORIENTED_EDGE('', *, *, #927, .F.);
#1574 = ORIENTED_EDGE('', *, *, #938, .F.);
#1575 = ORIENTED_EDGE('', *, *, #934, .T.);
#1576 = EDGE_LOOP('', (#1572, #1573, #1574, #1575));
#1577 = FACE_BOUND('', #1576, .T.);
#1578 = ADVANCED_FACE('', (#1577), #1123, .T.);
#1579 = ORIENTED_EDGE('', *, *, #940, .T.);
#1580 = ORIENTED_EDGE('', *, *, #936, .T.);
#1581 = ORIENTED_EDGE('', *, *, #938, .T.);
#1582 = ORIENTED_EDGE('', *, *, #929, .F.);
#1583 = ORIENTED_EDGE('', *, *, #932, .T.);
#1584 = EDGE_LOOP('', (#1579, #1580, #1581, #1582, #1583));
#1585 = FACE_BOUND('', #1584, .T.);
#1586 = ADVANCED_FACE('', (#1585), #1131, .T.);
#1587 = ORIENTED_EDGE('', *, *, #953, .T.);
#1588 = ORIENTED_EDGE('', *, *, #949, .T.);
#1589 = ORIENTED_EDGE('', *, *, #951, .T.);
#1590 = ORIENTED_EDGE('', *, *, #945, .F.);
#1591 = EDGE_LOOP('', (#1587, #1588, #1589, #1590));
#1592 = FACE_BOUND('', #1591, .T.);
#1593 = ADVANCED_FACE('', (#1592), #1147, .T.);
#1594 = ORIENTED_EDGE('', *, *, #944, .T.);
#1595 = ORIENTED_EDGE('', *, *, #950, .F.);
#1596 = ORIENTED_EDGE('', *, *, #948, .F.);
#1597 = ORIENTED_EDGE('', *, *, #952, .F.);
#1598 = EDGE_LOOP('', (#1594, #1595, #1596, #1597));
#1599 = FACE_BOUND('', #1598, .T.);
#1600 = ADVANCED_FACE('', (#1599), #1143, .F.);
#1601 = ORIENTED_EDGE('', *, *, #950, .T.);
#1602 = ORIENTED_EDGE('', *, *, #943, .F.);
#1603 = ORIENTED_EDGE('', *, *, #951, .F.);
#1604 = ORIENTED_EDGE('', *, *, #947, .T.);
#1605 = EDGE_LOOP('', (#1601, #1602, #1603, #1604));
#1606 = FACE_BOUND('', #1605, .T.);
#1607 = ADVANCED_FACE('', (#1606), #1139, .T.);
#1608 = ORIENTED_EDGE('', *, *, #952, .T.);
#1609 = ORIENTED_EDGE('', *, *, #946, .T.);
#1610 = ORIENTED_EDGE('', *, *, #953, .F.);
#1611 = ORIENTED_EDGE('', *, *, #942, .T.);
#1612 = EDGE_LOOP('', (#1608, #1609, #1610, #1611));
#1613 = FACE_BOUND('', #1612, .T.);
#1614 = ADVANCED_FACE('', (#1613), #1135, .T.);
#1615 = ORIENTED_EDGE('', *, *, #965, .T.);
#1616 = ORIENTED_EDGE('', *, *, #961, .T.);
#1617 = ORIENTED_EDGE('', *, *, #963, .T.);
#1618 = ORIENTED_EDGE('', *, *, #957, .T.);
#1619 = EDGE_LOOP('', (#1615, #1616, #1617, #1618));
#1620 = FACE_BOUND('', #1619, .T.);
#1621 = ADVANCED_FACE('', (#1620), #1163, .T.);
#1622 = ORIENTED_EDGE('', *, *, #956, .F.);
#1623 = ORIENTED_EDGE('', *, *, #962, .F.);
#1624 = ORIENTED_EDGE('', *, *, #960, .F.);
#1625 = ORIENTED_EDGE('', *, *, #964, .F.);
#1626 = EDGE_LOOP('', (#1622, #1623, #1624, #1625));
#1627 = FACE_BOUND('', #1626, .T.);
#1628 = ADVANCED_FACE('', (#1627), #1159, .F.);
#1629 = ORIENTED_EDGE('', *, *, #962, .T.);
#1630 = ORIENTED_EDGE('', *, *, #955, .F.);
#1631 = ORIENTED_EDGE('', *, *, #963, .F.);
#1632 = ORIENTED_EDGE('', *, *, #959, .T.);
#1633 = EDGE_LOOP('', (#1629, #1630, #1631, #1632));
#1634 = FACE_BOUND('', #1633, .T.);
#1635 = ADVANCED_FACE('', (#1634), #1155, .T.);
#1636 = ORIENTED_EDGE('', *, *, #964, .T.);
#1637 = ORIENTED_EDGE('', *, *, #958, .T.);
#1638 = ORIENTED_EDGE('', *, *, #965, .F.);
#1639 = ORIENTED_EDGE('', *, *, #954, .T.);
#1640 = EDGE_LOOP('', (#1636, #1637, #1638, #1639));
#1641 = FACE_BOUND('', #1640, .T.);
#1642 = ADVANCED_FACE('', (#1641), #1151, .T.);
#1643 = CLOSED_SHELL('', (#1168, #1173, #1190, #1201, #1212, #1229, #1237, #1245, #1254, #1271, #1282, #1293, #1310, #1318, #1327, #1335, #1342, #1361, #1368, #1374, #1380, #1387, #1406, #1413, #1419, #1425, #1432, #1451, #1458, #1464, #1470, #1477, #1485, #1493, #1500, #1507, #1514, #1521, #1528, #1535, #1542, #1549, #1556, #1563, #1571, #1578, #1586, #1593, #1600, #1607, #1614, #1621, #1628, #1635, #1642));
#1644 = MANIFOLD_SOLID_BREP('', #1643);
#1645 = APPLICATION_CONTEXT('configuration controlled 3D design of mechanical parts and assemblies');
#1646 = PRODUCT_DEFINITION_CONTEXT('part definition', #1645, 'design');
#1647 = PRODUCT_CONTEXT('', #1645, 'mechanical');
#1648 = PRODUCT('UNIDENTIFIED_PRODUCT', '', $, (#1647));
#1649 = PRODUCT_DEFINITION_FORMATION('', $, #1648);
#1650 = PRODUCT_DEFINITION('design', $, #1649, #1646);
#1651 = PRODUCT_DEFINITION_SHAPE('', '', #1650);
#1652 = ADVANCED_BREP_SHAPE_REPRESENTATION('', (#1644), #4);
#1653 = SHAPE_DEFINITION_REPRESENTATION(#1651, #1652);
#1654 = COLOUR_RGB('', 0.23529412, 0.52549022, 0.71764708);
#1655 = FILL_AREA_STYLE_COLOUR('', #1654);
#1656 = FILL_AREA_STYLE('', (#1655));
#1657 = SURFACE_STYLE_FILL_AREA(#1656);
#1658 = SURFACE_SIDE_STYLE('', (#1657));
#1659 = SURFACE_STYLE_USAGE(.BOTH., #1658);
#1660 = PRESENTATION_STYLE_ASSIGNMENT((#1659));
#1661 = STYLED_ITEM('', (#1660), #1644);
#1662 = MECHANICAL_DESIGN_GEOMETRIC_PRESENTATION_REPRESENTATION('', (#1661), #4);
ENDSEC;
END-ISO-10303-21;
