ISO-10303-21;
HEADER;
FILE_DESCRIPTION(('zoo.dev export'), '2;1');
FILE_NAME('output.step', '2026-07-13T15:09:17.751125326+00:00', (''), (''), 'zoo.dev beta', 'zoo.dev', '');
FILE_SCHEMA(('AP242_MANAGED_MODEL_BASED_3D_ENGINEERING_MIM_LF'));
ENDSEC;
DATA;
#1 = (
  LENGTH_UNIT()
  NAMED_UNIT(*)
  SI_UNIT(.MILLI., .METRE.)
);
#2 = (
  NAMED_UNIT(*)
  PLANE_ANGLE_UNIT()
  SI_UNIT($, .RADIAN.)
);
#3 = UNCERTAINTY_MEASURE_WITH_UNIT(LENGTH_MEASURE(0.01), #1, 'DISTANCE_ACCURACY_VALUE', $);
#4 = (
  GEOMETRIC_REPRESENTATION_CONTEXT(3)
  GLOBAL_UNCERTAINTY_ASSIGNED_CONTEXT((#3))
  GLOBAL_UNIT_ASSIGNED_CONTEXT((#1, #2))
  REPRESENTATION_CONTEXT('3D', '3D context')
);
#5 = CARTESIAN_POINT('', (35., 0., 0.));
#6 = VERTEX_POINT('', #5);
#7 = CARTESIAN_POINT('', (35., 0., 1000.));
#8 = VERTEX_POINT('', #7);
#9 = CARTESIAN_POINT('', (100., 0., 90.));
#10 = VERTEX_POINT('', #9);
#11 = CARTESIAN_POINT('', (100., 0., 150.));
#12 = VERTEX_POINT('', #11);
#13 = CARTESIAN_POINT('', (-100., 0., 90.));
#14 = VERTEX_POINT('', #13);
#15 = CARTESIAN_POINT('', (-100., 0., 150.));
#16 = VERTEX_POINT('', #15);
#17 = CARTESIAN_POINT('', (100., 0., 850.));
#18 = VERTEX_POINT('', #17);
#19 = CARTESIAN_POINT('', (100., 0., 910.));
#20 = VERTEX_POINT('', #19);
#21 = CARTESIAN_POINT('', (-100., 0., 850.));
#22 = VERTEX_POINT('', #21);
#23 = CARTESIAN_POINT('', (-100., 0., 910.));
#24 = VERTEX_POINT('', #23);
#25 = CARTESIAN_POINT('', (470.0000049, -130.00004208, 0.));
#26 = VERTEX_POINT('', #25);
#27 = CARTESIAN_POINT('', (400.00000901, 230., 0.));
#28 = VERTEX_POINT('', #27);
#29 = CARTESIAN_POINT('', (400.00000901, 230., 1000.));
#30 = VERTEX_POINT('', #29);
#31 = CARTESIAN_POINT('', (470.0000049, -130.00004208, 1000.));
#32 = VERTEX_POINT('', #31);
#33 = CARTESIAN_POINT('', (329.99987476, -129.99991681, 0.));
#34 = VERTEX_POINT('', #33);
#35 = CARTESIAN_POINT('', (329.99987476, -129.99991681, 1000.));
#36 = VERTEX_POINT('', #35);
#37 = CARTESIAN_POINT('', (-122.41666351, 472.03196506, 0.));
#38 = VERTEX_POINT('', #37);
#39 = CARTESIAN_POINT('', (-399.18584737, 231.41016932, 0.));
#40 = VERTEX_POINT('', #39);
#41 = CARTESIAN_POINT('', (-399.18584737, 231.41016932, 1000.));
#42 = VERTEX_POINT('', #41);
#43 = CARTESIAN_POINT('', (-122.41666351, 472.03196506, 1000.));
#44 = VERTEX_POINT('', #43);
#45 = CARTESIAN_POINT('', (-52.41670694, 350.78823319, 0.));
#46 = VERTEX_POINT('', #45);
#47 = CARTESIAN_POINT('', (-52.41670694, 350.78823319, 1000.));
#48 = VERTEX_POINT('', #47);
#49 = CARTESIAN_POINT('', (-347.58334139, -342.03192298, 0.));
#50 = VERTEX_POINT('', #49);
#51 = CARTESIAN_POINT('', (-0.81416163, -461.41016932, 0.));
#52 = VERTEX_POINT('', #51);
#53 = CARTESIAN_POINT('', (-0.81416163, -461.41016932, 1000.));
#54 = VERTEX_POINT('', #53);
#55 = CARTESIAN_POINT('', (-347.58334139, -342.03192298, 1000.));
#56 = VERTEX_POINT('', #55);
#57 = CARTESIAN_POINT('', (-277.58316783, -220.78831639, 0.));
#58 = VERTEX_POINT('', #57);
#59 = CARTESIAN_POINT('', (-277.58316783, -220.78831639, 1000.));
#60 = VERTEX_POINT('', #59);
#61 = CARTESIAN_POINT('', (93.67496998, 35., 142.5));
#62 = VERTEX_POINT('', #61);
#63 = CARTESIAN_POINT('', (93.67496998, 35., 97.5));
#64 = VERTEX_POINT('', #63);
#65 = CARTESIAN_POINT('', (100., 0., 97.5));
#66 = VERTEX_POINT('', #65);
#67 = CARTESIAN_POINT('', (100., 0., 142.5));
#68 = VERTEX_POINT('', #67);
#69 = CARTESIAN_POINT('', (93.67496998, -35., 142.5));
#70 = VERTEX_POINT('', #69);
#71 = CARTESIAN_POINT('', (93.67496998, -35., 97.5));
#72 = VERTEX_POINT('', #71);
#73 = CARTESIAN_POINT('', (348.4721205, -35., 97.5));
#74 = VERTEX_POINT('', #73);
#75 = CARTESIAN_POINT('', (348.4721205, -35., 142.5));
#76 = VERTEX_POINT('', #75);
#77 = CARTESIAN_POINT('', (362.08326086, 35., 142.5));
#78 = VERTEX_POINT('', #77);
#79 = CARTESIAN_POINT('', (362.08326086, 35., 97.5));
#80 = VERTEX_POINT('', #79);
#81 = CARTESIAN_POINT('', (-16.52659586, 98.6249037, 142.5));
#82 = VERTEX_POINT('', #81);
#83 = CARTESIAN_POINT('', (-16.52659586, 98.6249037, 97.5));
#84 = VERTEX_POINT('', #83);
#85 = CARTESIAN_POINT('', (-77.14837412, 63.6249037, 142.5));
#86 = VERTEX_POINT('', #85);
#87 = CARTESIAN_POINT('', (-77.14837412, 63.6249037, 97.5));
#88 = VERTEX_POINT('', #87);
#89 = CARTESIAN_POINT('', (-143.92517112, 319.28570887, 97.5));
#90 = VERTEX_POINT('', #89);
#91 = CARTESIAN_POINT('', (-143.92517112, 319.28570887, 142.5));
#92 = VERTEX_POINT('', #91);
#93 = CARTESIAN_POINT('', (-211.35251956, 296.07330219, 142.5));
#94 = VERTEX_POINT('', #93);
#95 = CARTESIAN_POINT('', (-211.35251956, 296.07330219, 97.5));
#96 = VERTEX_POINT('', #95);
#97 = CARTESIAN_POINT('', (-77.14837412, -63.6249037, 142.5));
#98 = VERTEX_POINT('', #97);
#99 = CARTESIAN_POINT('', (-77.14837412, -63.6249037, 97.5));
#100 = VERTEX_POINT('', #99);
#101 = CARTESIAN_POINT('', (-16.52659586, -98.6249037, 142.5));
#102 = VERTEX_POINT('', #101);
#103 = CARTESIAN_POINT('', (-16.52659586, -98.6249037, 97.5));
#104 = VERTEX_POINT('', #103);
#105 = CARTESIAN_POINT('', (-204.54694938, -284.28570887, 97.5));
#106 = VERTEX_POINT('', #105);
#107 = CARTESIAN_POINT('', (-204.54694938, -284.28570887, 142.5));
#108 = VERTEX_POINT('', #107);
#109 = CARTESIAN_POINT('', (-150.7307413, -331.07330219, 142.5));
#110 = VERTEX_POINT('', #109);
#111 = CARTESIAN_POINT('', (-150.7307413, -331.07330219, 97.5));
#112 = VERTEX_POINT('', #111);
#113 = CARTESIAN_POINT('', (93.67496998, 35., 902.5));
#114 = VERTEX_POINT('', #113);
#115 = CARTESIAN_POINT('', (93.67496998, 35., 857.5));
#116 = VERTEX_POINT('', #115);
#117 = CARTESIAN_POINT('', (100., 0., 857.5));
#118 = VERTEX_POINT('', #117);
#119 = CARTESIAN_POINT('', (100., 0., 902.5));
#120 = VERTEX_POINT('', #119);
#121 = CARTESIAN_POINT('', (93.67496998, -35., 902.5));
#122 = VERTEX_POINT('', #121);
#123 = CARTESIAN_POINT('', (93.67496998, -35., 857.5));
#124 = VERTEX_POINT('', #123);
#125 = CARTESIAN_POINT('', (348.4721205, -35., 857.5));
#126 = VERTEX_POINT('', #125);
#127 = CARTESIAN_POINT('', (348.4721205, -35., 902.5));
#128 = VERTEX_POINT('', #127);
#129 = CARTESIAN_POINT('', (362.08326086, 35., 902.5));
#130 = VERTEX_POINT('', #129);
#131 = CARTESIAN_POINT('', (362.08326086, 35., 857.5));
#132 = VERTEX_POINT('', #131);
#133 = CARTESIAN_POINT('', (-16.52659586, 98.6249037, 902.5));
#134 = VERTEX_POINT('', #133);
#135 = CARTESIAN_POINT('', (-16.52659586, 98.6249037, 857.5));
#136 = VERTEX_POINT('', #135);
#137 = CARTESIAN_POINT('', (-77.14837412, 63.6249037, 902.5));
#138 = VERTEX_POINT('', #137);
#139 = CARTESIAN_POINT('', (-77.14837412, 63.6249037, 857.5));
#140 = VERTEX_POINT('', #139);
#141 = CARTESIAN_POINT('', (-143.92517112, 319.28570887, 857.5));
#142 = VERTEX_POINT('', #141);
#143 = CARTESIAN_POINT('', (-143.92517112, 319.28570887, 902.5));
#144 = VERTEX_POINT('', #143);
#145 = CARTESIAN_POINT('', (-211.35251956, 296.07330219, 902.5));
#146 = VERTEX_POINT('', #145);
#147 = CARTESIAN_POINT('', (-211.35251956, 296.07330219, 857.5));
#148 = VERTEX_POINT('', #147);
#149 = CARTESIAN_POINT('', (-77.14837412, -63.6249037, 902.5));
#150 = VERTEX_POINT('', #149);
#151 = CARTESIAN_POINT('', (-77.14837412, -63.6249037, 857.5));
#152 = VERTEX_POINT('', #151);
#153 = CARTESIAN_POINT('', (-16.52659586, -98.6249037, 902.5));
#154 = VERTEX_POINT('', #153);
#155 = CARTESIAN_POINT('', (-16.52659586, -98.6249037, 857.5));
#156 = VERTEX_POINT('', #155);
#157 = CARTESIAN_POINT('', (-204.54694938, -284.28570887, 857.5));
#158 = VERTEX_POINT('', #157);
#159 = CARTESIAN_POINT('', (-204.54694938, -284.28570887, 902.5));
#160 = VERTEX_POINT('', #159);
#161 = CARTESIAN_POINT('', (-150.7307413, -331.07330219, 902.5));
#162 = VERTEX_POINT('', #161);
#163 = CARTESIAN_POINT('', (-150.7307413, -331.07330219, 857.5));
#164 = VERTEX_POINT('', #163);
#165 = CARTESIAN_POINT('', (38., 0., 90.));
#166 = VERTEX_POINT('', #165);
#167 = CARTESIAN_POINT('', (-38., 0., 90.));
#168 = VERTEX_POINT('', #167);
#169 = CARTESIAN_POINT('', (38., -0., 150.));
#170 = VERTEX_POINT('', #169);
#171 = CARTESIAN_POINT('', (-38., 0., 150.));
#172 = VERTEX_POINT('', #171);
#173 = CARTESIAN_POINT('', (38., -0., 850.));
#174 = VERTEX_POINT('', #173);
#175 = CARTESIAN_POINT('', (-38., 0., 850.));
#176 = VERTEX_POINT('', #175);
#177 = CARTESIAN_POINT('', (38., -0., 910.));
#178 = VERTEX_POINT('', #177);
#179 = CARTESIAN_POINT('', (-38., 0., 910.));
#180 = VERTEX_POINT('', #179);
#181 = CARTESIAN_POINT('', (-0., -38., 90.));
#182 = VERTEX_POINT('', #181);
#183 = CARTESIAN_POINT('', (0., 38., 90.));
#184 = VERTEX_POINT('', #183);
#185 = CARTESIAN_POINT('', (0., -38., 150.));
#186 = VERTEX_POINT('', #185);
#187 = CARTESIAN_POINT('', (-0., 38., 150.));
#188 = VERTEX_POINT('', #187);
#189 = CARTESIAN_POINT('', (-0., -38., 850.));
#190 = VERTEX_POINT('', #189);
#191 = CARTESIAN_POINT('', (0., 38., 850.));
#192 = VERTEX_POINT('', #191);
#193 = CARTESIAN_POINT('', (0., -38., 910.));
#194 = VERTEX_POINT('', #193);
#195 = CARTESIAN_POINT('', (-0., 38., 910.));
#196 = VERTEX_POINT('', #195);
#197 = DIRECTION('', (1., -0., 0.));
#198 = DIRECTION('', (-0., -0., 1.));
#199 = CARTESIAN_POINT('', (0., 0., 0.));
#200 = AXIS2_PLACEMENT_3D('', #199, #198, #197);
#201 = CIRCLE('', #200, 35.);
#202 = DIRECTION('', (0., -0., 1.));
#203 = VECTOR('', #202, 1.);
#204 = CARTESIAN_POINT('', (35., 0., 0.));
#205 = LINE('', #204, #203);
#206 = DIRECTION('', (1., -0., 0.));
#207 = DIRECTION('', (-0., -0., 1.));
#208 = CARTESIAN_POINT('', (0., 0., 1000.));
#209 = AXIS2_PLACEMENT_3D('', #208, #207, #206);
#210 = CIRCLE('', #209, 35.);
#211 = DIRECTION('', (1., 0., 0.));
#212 = DIRECTION('', (0., -0., 1.));
#213 = CARTESIAN_POINT('', (0., -0., 90.));
#214 = AXIS2_PLACEMENT_3D('', #213, #212, #211);
#215 = CIRCLE('', #214, 100.);
#216 = DIRECTION('', (0., -0., 1.));
#217 = VECTOR('', #216, 1.);
#218 = CARTESIAN_POINT('', (100., 0., 90.));
#219 = LINE('', #218, #217);
#220 = DIRECTION('', (1., 0., 0.));
#221 = DIRECTION('', (0., -0., 1.));
#222 = CARTESIAN_POINT('', (0., -0., 150.));
#223 = AXIS2_PLACEMENT_3D('', #222, #221, #220);
#224 = CIRCLE('', #223, 100.);
#225 = DIRECTION('', (-1., 0., 0.));
#226 = DIRECTION('', (0., -0., 1.));
#227 = CARTESIAN_POINT('', (0., 0., 90.));
#228 = AXIS2_PLACEMENT_3D('', #227, #226, #225);
#229 = CIRCLE('', #228, 100.);
#230 = DIRECTION('', (-1., 0., 0.));
#231 = DIRECTION('', (0., -0., 1.));
#232 = CARTESIAN_POINT('', (0., 0., 150.));
#233 = AXIS2_PLACEMENT_3D('', #232, #231, #230);
#234 = CIRCLE('', #233, 100.);
#235 = DIRECTION('', (0., -0., 1.));
#236 = VECTOR('', #235, 1.);
#237 = CARTESIAN_POINT('', (-100., 0., 90.));
#238 = LINE('', #237, #236);
#239 = DIRECTION('', (1., 0., 0.));
#240 = DIRECTION('', (0., -0., 1.));
#241 = CARTESIAN_POINT('', (0., -0., 850.));
#242 = AXIS2_PLACEMENT_3D('', #241, #240, #239);
#243 = CIRCLE('', #242, 100.);
#244 = DIRECTION('', (0., -0., 1.));
#245 = VECTOR('', #244, 1.);
#246 = CARTESIAN_POINT('', (100., 0., 850.));
#247 = LINE('', #246, #245);
#248 = DIRECTION('', (1., 0., 0.));
#249 = DIRECTION('', (0., -0., 1.));
#250 = CARTESIAN_POINT('', (0., -0., 910.));
#251 = AXIS2_PLACEMENT_3D('', #250, #249, #248);
#252 = CIRCLE('', #251, 100.);
#253 = DIRECTION('', (-1., 0., 0.));
#254 = DIRECTION('', (0., -0., 1.));
#255 = CARTESIAN_POINT('', (0., 0., 850.));
#256 = AXIS2_PLACEMENT_3D('', #255, #254, #253);
#257 = CIRCLE('', #256, 100.);
#258 = DIRECTION('', (-1., 0., 0.));
#259 = DIRECTION('', (0., -0., 1.));
#260 = CARTESIAN_POINT('', (0., 0., 910.));
#261 = AXIS2_PLACEMENT_3D('', #260, #259, #258);
#262 = CIRCLE('', #261, 100.);
#263 = DIRECTION('', (0., -0., 1.));
#264 = VECTOR('', #263, 1.);
#265 = CARTESIAN_POINT('', (-100., 0., 850.));
#266 = LINE('', #265, #264);
#267 = DIRECTION('', (-0.19086963, 0.9816154, 0.));
#268 = VECTOR('', #267, 1.);
#269 = CARTESIAN_POINT('', (470.0000049, -130.00004208, 0.));
#270 = LINE('', #269, #268);
#271 = DIRECTION('', (0., -0., 1.));
#272 = VECTOR('', #271, 1.);
#273 = CARTESIAN_POINT('', (400.00000901, 230., 0.));
#274 = LINE('', #273, #272);
#275 = DIRECTION('', (-0.19086963, 0.9816154, 0.));
#276 = VECTOR('', #275, 1.);
#277 = CARTESIAN_POINT('', (470.0000049, -130.00004208, 1000.));
#278 = LINE('', #277, #276);
#279 = DIRECTION('', (0., -0., 1.));
#280 = VECTOR('', #279, 1.);
#281 = CARTESIAN_POINT('', (470.0000049, -130.00004208, 0.));
#282 = LINE('', #281, #280);
#283 = DIRECTION('', (-0.19087005, -0.98161531, 0.));
#284 = VECTOR('', #283, 1.);
#285 = CARTESIAN_POINT('', (400.00000901, 230., 0.));
#286 = LINE('', #285, #284);
#287 = DIRECTION('', (0., -0., 1.));
#288 = VECTOR('', #287, 1.);
#289 = CARTESIAN_POINT('', (329.99987476, -129.99991681, 0.));
#290 = LINE('', #289, #288);
#291 = DIRECTION('', (-0.19087005, -0.98161531, 0.));
#292 = VECTOR('', #291, 1.);
#293 = CARTESIAN_POINT('', (400.00000901, 230., 1000.));
#294 = LINE('', #293, #292);
#295 = DIRECTION('', (-0.55555734, -0.83147823, 0.));
#296 = DIRECTION('', (0., 0., 1.));
#297 = CARTESIAN_POINT('', (400.00003358, -25.23375955, 0.));
#298 = AXIS2_PLACEMENT_3D('', #297, #296, #295);
#299 = CIRCLE('', #298, 125.99988072);
#300 = DIRECTION('', (-0.55555734, -0.83147823, 0.));
#301 = DIRECTION('', (0., 0., 1.));
#302 = CARTESIAN_POINT('', (400.00003358, -25.23375955, 1000.));
#303 = AXIS2_PLACEMENT_3D('', #302, #301, #300);
#304 = CIRCLE('', #303, 125.99988072);
#305 = DIRECTION('', (-0.75466906, -0.65610564, 0.));
#306 = VECTOR('', #305, 1.);
#307 = CARTESIAN_POINT('', (-122.41666351, 472.03196506, 0.));
#308 = LINE('', #307, #306);
#309 = DIRECTION('', (0., -0., 1.));
#310 = VECTOR('', #309, 1.);
#311 = CARTESIAN_POINT('', (-399.18584737, 231.41016932, 0.));
#312 = LINE('', #311, #310);
#313 = DIRECTION('', (-0.75466906, -0.65610564, 0.));
#314 = VECTOR('', #313, 1.);
#315 = CARTESIAN_POINT('', (-122.41666351, 472.03196506, 1000.));
#316 = LINE('', #315, #314);
#317 = DIRECTION('', (0., -0., 1.));
#318 = VECTOR('', #317, 1.);
#319 = CARTESIAN_POINT('', (-122.41666351, 472.03196506, 0.));
#320 = LINE('', #319, #318);
#321 = DIRECTION('', (0.94553882, 0.32550934, 0.));
#322 = VECTOR('', #321, 1.);
#323 = CARTESIAN_POINT('', (-399.18584737, 231.41016932, 0.));
#324 = LINE('', #323, #322);
#325 = DIRECTION('', (0., -0., 1.));
#326 = VECTOR('', #325, 1.);
#327 = CARTESIAN_POINT('', (-52.41670694, 350.78823319, 0.));
#328 = LINE('', #327, #326);
#329 = DIRECTION('', (0.94553882, 0.32550934, 0.));
#330 = VECTOR('', #329, 1.);
#331 = CARTESIAN_POINT('', (-399.18584737, 231.41016932, 1000.));
#332 = LINE('', #331, #330);
#333 = DIRECTION('', (0.99785994, -0.06538766, 0.));
#334 = DIRECTION('', (-0., -0., 1.));
#335 = CARTESIAN_POINT('', (-178.14693998, 359.02707037, 0.));
#336 = AXIS2_PLACEMENT_3D('', #335, #334, #333);
#337 = CIRCLE('', #336, 125.99988072);
#338 = DIRECTION('', (0.99785994, -0.06538766, 0.));
#339 = DIRECTION('', (-0., -0., 1.));
#340 = CARTESIAN_POINT('', (-178.14693998, 359.02707037, 1000.));
#341 = AXIS2_PLACEMENT_3D('', #340, #339, #338);
#342 = CIRCLE('', #341, 125.99988072);
#343 = DIRECTION('', (0.94553868, -0.32550975, 0.));
#344 = VECTOR('', #343, 1.);
#345 = CARTESIAN_POINT('', (-347.58334139, -342.03192298, 0.));
#346 = LINE('', #345, #344);
#347 = DIRECTION('', (0., -0., 1.));
#348 = VECTOR('', #347, 1.);
#349 = CARTESIAN_POINT('', (-0.81416163, -461.41016932, 0.));
#350 = LINE('', #349, #348);
#351 = DIRECTION('', (0.94553868, -0.32550975, 0.));
#352 = VECTOR('', #351, 1.);
#353 = CARTESIAN_POINT('', (-347.58334139, -342.03192298, 1000.));
#354 = LINE('', #353, #352);
#355 = DIRECTION('', (0., -0., 1.));
#356 = VECTOR('', #355, 1.);
#357 = CARTESIAN_POINT('', (-347.58334139, -342.03192298, 0.));
#358 = LINE('', #357, #356);
#359 = DIRECTION('', (-0.75466877, 0.65610597, 0.));
#360 = VECTOR('', #359, 1.);
#361 = CARTESIAN_POINT('', (-0.81416163, -461.41016932, 0.));
#362 = LINE('', #361, #360);
#363 = DIRECTION('', (0., -0., 1.));
#364 = VECTOR('', #363, 1.);
#365 = CARTESIAN_POINT('', (-277.58316783, -220.78831639, 0.));
#366 = LINE('', #365, #364);
#367 = DIRECTION('', (-0.75466877, 0.65610597, 0.));
#368 = VECTOR('', #367, 1.);
#369 = CARTESIAN_POINT('', (-0.81416163, -461.41016932, 1000.));
#370 = LINE('', #369, #368);
#371 = DIRECTION('', (-0.4423026, 0.89686588, 0.));
#372 = DIRECTION('', (0., -0., 1.));
#373 = CARTESIAN_POINT('', (-221.85309359, -333.79331082, 0.));
#374 = AXIS2_PLACEMENT_3D('', #373, #372, #371);
#375 = CIRCLE('', #374, 125.99988072);
#376 = DIRECTION('', (-0.4423026, 0.89686588, 0.));
#377 = DIRECTION('', (0., -0., 1.));
#378 = CARTESIAN_POINT('', (-221.85309359, -333.79331082, 1000.));
#379 = AXIS2_PLACEMENT_3D('', #378, #377, #376);
#380 = CIRCLE('', #379, 125.99988072);
#381 = DIRECTION('', (-0., -0., -1.));
#382 = VECTOR('', #381, 1.);
#383 = CARTESIAN_POINT('', (93.67496998, 35., 142.5));
#384 = LINE('', #383, #382);
#385 = DIRECTION('', (1., -0., 0.));
#386 = DIRECTION('', (-0., -0., 1.));
#387 = CARTESIAN_POINT('', (0., 0., 97.5));
#388 = AXIS2_PLACEMENT_3D('', #387, #386, #385);
#389 = CIRCLE('', #388, 100.);
#390 = DIRECTION('', (1., -0., 0.));
#391 = DIRECTION('', (-0., -0., 1.));
#392 = CARTESIAN_POINT('', (0., 0., 142.5));
#393 = AXIS2_PLACEMENT_3D('', #392, #391, #390);
#394 = CIRCLE('', #393, 100.);
#395 = DIRECTION('', (0., 0., -1.));
#396 = VECTOR('', #395, 1.);
#397 = CARTESIAN_POINT('', (93.67496998, -35., 142.5));
#398 = LINE('', #397, #396);
#399 = DIRECTION('', (1., 0., 0.));
#400 = DIRECTION('', (0., -0., -1.));
#401 = CARTESIAN_POINT('', (0., -0., 97.5));
#402 = AXIS2_PLACEMENT_3D('', #401, #400, #399);
#403 = CIRCLE('', #402, 100.);
#404 = DIRECTION('', (1., 0., 0.));
#405 = DIRECTION('', (0., -0., -1.));
#406 = CARTESIAN_POINT('', (0., -0., 142.5));
#407 = AXIS2_PLACEMENT_3D('', #406, #405, #404);
#408 = CIRCLE('', #407, 100.);
#409 = DIRECTION('', (0., -0., 1.));
#410 = VECTOR('', #409, 1.);
#411 = CARTESIAN_POINT('', (348.4721205, -35., 97.5));
#412 = LINE('', #411, #410);
#413 = DIRECTION('', (0., -0., -1.));
#414 = VECTOR('', #413, 1.);
#415 = CARTESIAN_POINT('', (362.08326086, 35., 142.5));
#416 = LINE('', #415, #414);
#417 = DIRECTION('', (0.19087005, 0.98161531, 0.));
#418 = VECTOR('', #417, 1.);
#419 = CARTESIAN_POINT('', (348.4721205, -35., 97.5));
#420 = LINE('', #419, #418);
#421 = DIRECTION('', (0.19087005, 0.98161531, 0.));
#422 = VECTOR('', #421, 1.);
#423 = CARTESIAN_POINT('', (348.4721205, -35., 142.5));
#424 = LINE('', #423, #422);
#425 = DIRECTION('', (-1., -0., 0.));
#426 = VECTOR('', #425, 1.);
#427 = CARTESIAN_POINT('', (362.08326086, 35., 97.5));
#428 = LINE('', #427, #426);
#429 = DIRECTION('', (-1., -0., 0.));
#430 = VECTOR('', #429, 1.);
#431 = CARTESIAN_POINT('', (362.08326086, 35., 142.5));
#432 = LINE('', #431, #430);
#433 = DIRECTION('', (1., -0., 0.));
#434 = VECTOR('', #433, 1.);
#435 = CARTESIAN_POINT('', (93.67496998, -35., 97.5));
#436 = LINE('', #435, #434);
#437 = DIRECTION('', (1., -0., 0.));
#438 = VECTOR('', #437, 1.);
#439 = CARTESIAN_POINT('', (93.67496998, -35., 142.5));
#440 = LINE('', #439, #438);
#441 = DIRECTION('', (0., -0., 1.));
#442 = VECTOR('', #441, 1.);
#443 = CARTESIAN_POINT('', (100., 0., 142.5));
#444 = LINE('', #443, #442);
#445 = DIRECTION('', (-0., -0., -1.));
#446 = VECTOR('', #445, 1.);
#447 = CARTESIAN_POINT('', (-16.52659586, 98.6249037, 142.5));
#448 = LINE('', #447, #446);
#449 = DIRECTION('', (-0., 0., -1.));
#450 = VECTOR('', #449, 1.);
#451 = CARTESIAN_POINT('', (-77.14837412, 63.6249037, 142.5));
#452 = LINE('', #451, #450);
#453 = DIRECTION('', (-0.16526596, 0.98624904, 0.));
#454 = DIRECTION('', (0., -0., 1.));
#455 = CARTESIAN_POINT('', (-0., 0., 97.5));
#456 = AXIS2_PLACEMENT_3D('', #455, #454, #453);
#457 = CIRCLE('', #456, 100.);
#458 = DIRECTION('', (-0.16526596, 0.98624904, -0.));
#459 = DIRECTION('', (-0., 0., 1.));
#460 = CARTESIAN_POINT('', (-0., 0., 142.5));
#461 = AXIS2_PLACEMENT_3D('', #460, #459, #458);
#462 = CIRCLE('', #461, 100.);
#463 = DIRECTION('', (0., -0., 1.));
#464 = VECTOR('', #463, 1.);
#465 = CARTESIAN_POINT('', (-143.92517112, 319.28570887, 97.5));
#466 = LINE('', #465, #464);
#467 = DIRECTION('', (0., -0., -1.));
#468 = VECTOR('', #467, 1.);
#469 = CARTESIAN_POINT('', (-211.35251956, 296.07330219, 142.5));
#470 = LINE('', #469, #468);
#471 = DIRECTION('', (-0.94553882, -0.32550934, 0.));
#472 = VECTOR('', #471, 1.);
#473 = CARTESIAN_POINT('', (-143.92517112, 319.28570887, 97.5));
#474 = LINE('', #473, #472);
#475 = DIRECTION('', (-0.94553882, -0.32550934, 0.));
#476 = VECTOR('', #475, 1.);
#477 = CARTESIAN_POINT('', (-143.92517112, 319.28570887, 142.5));
#478 = LINE('', #477, #476);
#479 = DIRECTION('', (0.5, -0.8660254, 0.));
#480 = VECTOR('', #479, 1.);
#481 = CARTESIAN_POINT('', (-211.35251956, 296.07330219, 97.5));
#482 = LINE('', #481, #480);
#483 = DIRECTION('', (0.5, -0.8660254, 0.));
#484 = VECTOR('', #483, 1.);
#485 = CARTESIAN_POINT('', (-211.35251956, 296.07330219, 142.5));
#486 = LINE('', #485, #484);
#487 = DIRECTION('', (-0.5, 0.8660254, 0.));
#488 = VECTOR('', #487, 1.);
#489 = CARTESIAN_POINT('', (-16.52659586, 98.6249037, 97.5));
#490 = LINE('', #489, #488);
#491 = DIRECTION('', (-0.5, 0.8660254, 0.));
#492 = VECTOR('', #491, 1.);
#493 = CARTESIAN_POINT('', (-16.52659586, 98.6249037, 142.5));
#494 = LINE('', #493, #492);
#495 = DIRECTION('', (0., -0., -1.));
#496 = VECTOR('', #495, 1.);
#497 = CARTESIAN_POINT('', (-77.14837412, -63.6249037, 142.5));
#498 = LINE('', #497, #496);
#499 = DIRECTION('', (0., -0., -1.));
#500 = VECTOR('', #499, 1.);
#501 = CARTESIAN_POINT('', (-16.52659586, -98.6249037, 142.5));
#502 = LINE('', #501, #500);
#503 = DIRECTION('', (-0.16526596, -0.98624904, -0.));
#504 = DIRECTION('', (0., 0., -1.));
#505 = CARTESIAN_POINT('', (0., 0., 97.5));
#506 = AXIS2_PLACEMENT_3D('', #505, #504, #503);
#507 = CIRCLE('', #506, 100.);
#508 = DIRECTION('', (-0.16526596, -0.98624904, -0.));
#509 = DIRECTION('', (0., 0., -1.));
#510 = CARTESIAN_POINT('', (0., 0., 142.5));
#511 = AXIS2_PLACEMENT_3D('', #510, #509, #508);
#512 = CIRCLE('', #511, 100.);
#513 = DIRECTION('', (0., -0., 1.));
#514 = VECTOR('', #513, 1.);
#515 = CARTESIAN_POINT('', (-204.54694938, -284.28570887, 97.5));
#516 = LINE('', #515, #514);
#517 = DIRECTION('', (0., -0., -1.));
#518 = VECTOR('', #517, 1.);
#519 = CARTESIAN_POINT('', (-150.7307413, -331.07330219, 142.5));
#520 = LINE('', #519, #518);
#521 = DIRECTION('', (0.75466877, -0.65610597, 0.));
#522 = VECTOR('', #521, 1.);
#523 = CARTESIAN_POINT('', (-204.54694938, -284.28570887, 97.5));
#524 = LINE('', #523, #522);
#525 = DIRECTION('', (0.75466877, -0.65610597, 0.));
#526 = VECTOR('', #525, 1.);
#527 = CARTESIAN_POINT('', (-204.54694938, -284.28570887, 142.5));
#528 = LINE('', #527, #526);
#529 = DIRECTION('', (0.5, 0.8660254, 0.));
#530 = VECTOR('', #529, 1.);
#531 = CARTESIAN_POINT('', (-150.7307413, -331.07330219, 97.5));
#532 = LINE('', #531, #530);
#533 = DIRECTION('', (0.5, 0.8660254, 0.));
#534 = VECTOR('', #533, 1.);
#535 = CARTESIAN_POINT('', (-150.7307413, -331.07330219, 142.5));
#536 = LINE('', #535, #534);
#537 = DIRECTION('', (-0.5, -0.8660254, 0.));
#538 = VECTOR('', #537, 1.);
#539 = CARTESIAN_POINT('', (-77.14837412, -63.6249037, 97.5));
#540 = LINE('', #539, #538);
#541 = DIRECTION('', (-0.5, -0.8660254, 0.));
#542 = VECTOR('', #541, 1.);
#543 = CARTESIAN_POINT('', (-77.14837412, -63.6249037, 142.5));
#544 = LINE('', #543, #542);
#545 = DIRECTION('', (0., -0., -1.));
#546 = VECTOR('', #545, 1.);
#547 = CARTESIAN_POINT('', (93.67496998, 35., 902.5));
#548 = LINE('', #547, #546);
#549 = DIRECTION('', (1., -0., 0.));
#550 = DIRECTION('', (-0., -0., 1.));
#551 = CARTESIAN_POINT('', (0., 0., 857.5));
#552 = AXIS2_PLACEMENT_3D('', #551, #550, #549);
#553 = CIRCLE('', #552, 100.);
#554 = DIRECTION('', (1., -0., 0.));
#555 = DIRECTION('', (-0., -0., 1.));
#556 = CARTESIAN_POINT('', (0., 0., 902.5));
#557 = AXIS2_PLACEMENT_3D('', #556, #555, #554);
#558 = CIRCLE('', #557, 100.);
#559 = DIRECTION('', (0., -0., -1.));
#560 = VECTOR('', #559, 1.);
#561 = CARTESIAN_POINT('', (93.67496998, -35., 902.5));
#562 = LINE('', #561, #560);
#563 = DIRECTION('', (1., 0., -0.));
#564 = DIRECTION('', (-0., 0., -1.));
#565 = CARTESIAN_POINT('', (0., -0., 857.5));
#566 = AXIS2_PLACEMENT_3D('', #565, #564, #563);
#567 = CIRCLE('', #566, 100.);
#568 = DIRECTION('', (1., 0., -0.));
#569 = DIRECTION('', (-0., 0., -1.));
#570 = CARTESIAN_POINT('', (0., -0., 902.5));
#571 = AXIS2_PLACEMENT_3D('', #570, #569, #568);
#572 = CIRCLE('', #571, 100.);
#573 = DIRECTION('', (0., -0., 1.));
#574 = VECTOR('', #573, 1.);
#575 = CARTESIAN_POINT('', (348.4721205, -35., 857.5));
#576 = LINE('', #575, #574);
#577 = DIRECTION('', (0., -0., -1.));
#578 = VECTOR('', #577, 1.);
#579 = CARTESIAN_POINT('', (362.08326086, 35., 902.5));
#580 = LINE('', #579, #578);
#581 = DIRECTION('', (0.19087005, 0.98161531, 0.));
#582 = VECTOR('', #581, 1.);
#583 = CARTESIAN_POINT('', (348.4721205, -35., 857.5));
#584 = LINE('', #583, #582);
#585 = DIRECTION('', (0.19087005, 0.98161531, 0.));
#586 = VECTOR('', #585, 1.);
#587 = CARTESIAN_POINT('', (348.4721205, -35., 902.5));
#588 = LINE('', #587, #586);
#589 = DIRECTION('', (-1., -0., 0.));
#590 = VECTOR('', #589, 1.);
#591 = CARTESIAN_POINT('', (362.08326086, 35., 857.5));
#592 = LINE('', #591, #590);
#593 = DIRECTION('', (-1., -0., 0.));
#594 = VECTOR('', #593, 1.);
#595 = CARTESIAN_POINT('', (362.08326086, 35., 902.5));
#596 = LINE('', #595, #594);
#597 = DIRECTION('', (1., -0., 0.));
#598 = VECTOR('', #597, 1.);
#599 = CARTESIAN_POINT('', (93.67496998, -35., 857.5));
#600 = LINE('', #599, #598);
#601 = DIRECTION('', (1., -0., 0.));
#602 = VECTOR('', #601, 1.);
#603 = CARTESIAN_POINT('', (93.67496998, -35., 902.5));
#604 = LINE('', #603, #602);
#605 = DIRECTION('', (0., -0., 1.));
#606 = VECTOR('', #605, 1.);
#607 = CARTESIAN_POINT('', (100., 0., 902.5));
#608 = LINE('', #607, #606);
#609 = DIRECTION('', (-0., 0., -1.));
#610 = VECTOR('', #609, 1.);
#611 = CARTESIAN_POINT('', (-16.52659586, 98.6249037, 902.5));
#612 = LINE('', #611, #610);
#613 = DIRECTION('', (0., 0., -1.));
#614 = VECTOR('', #613, 1.);
#615 = CARTESIAN_POINT('', (-77.14837412, 63.6249037, 902.5));
#616 = LINE('', #615, #614);
#617 = DIRECTION('', (-0.16526596, 0.98624904, 0.));
#618 = DIRECTION('', (0., -0., 1.));
#619 = CARTESIAN_POINT('', (-0., 0., 857.5));
#620 = AXIS2_PLACEMENT_3D('', #619, #618, #617);
#621 = CIRCLE('', #620, 100.);
#622 = DIRECTION('', (-0.16526596, 0.98624904, -0.));
#623 = DIRECTION('', (-0., 0., 1.));
#624 = CARTESIAN_POINT('', (-0., 0., 902.5));
#625 = AXIS2_PLACEMENT_3D('', #624, #623, #622);
#626 = CIRCLE('', #625, 100.);
#627 = DIRECTION('', (0., -0., 1.));
#628 = VECTOR('', #627, 1.);
#629 = CARTESIAN_POINT('', (-143.92517112, 319.28570887, 857.5));
#630 = LINE('', #629, #628);
#631 = DIRECTION('', (0., -0., -1.));
#632 = VECTOR('', #631, 1.);
#633 = CARTESIAN_POINT('', (-211.35251956, 296.07330219, 902.5));
#634 = LINE('', #633, #632);
#635 = DIRECTION('', (-0.94553882, -0.32550934, 0.));
#636 = VECTOR('', #635, 1.);
#637 = CARTESIAN_POINT('', (-143.92517112, 319.28570887, 857.5));
#638 = LINE('', #637, #636);
#639 = DIRECTION('', (-0.94553882, -0.32550934, 0.));
#640 = VECTOR('', #639, 1.);
#641 = CARTESIAN_POINT('', (-143.92517112, 319.28570887, 902.5));
#642 = LINE('', #641, #640);
#643 = DIRECTION('', (0.5, -0.8660254, 0.));
#644 = VECTOR('', #643, 1.);
#645 = CARTESIAN_POINT('', (-211.35251956, 296.07330219, 857.5));
#646 = LINE('', #645, #644);
#647 = DIRECTION('', (0.5, -0.8660254, 0.));
#648 = VECTOR('', #647, 1.);
#649 = CARTESIAN_POINT('', (-211.35251956, 296.07330219, 902.5));
#650 = LINE('', #649, #648);
#651 = DIRECTION('', (-0.5, 0.8660254, 0.));
#652 = VECTOR('', #651, 1.);
#653 = CARTESIAN_POINT('', (-16.52659586, 98.6249037, 857.5));
#654 = LINE('', #653, #652);
#655 = DIRECTION('', (-0.5, 0.8660254, 0.));
#656 = VECTOR('', #655, 1.);
#657 = CARTESIAN_POINT('', (-16.52659586, 98.6249037, 902.5));
#658 = LINE('', #657, #656);
#659 = DIRECTION('', (-0., -0., -1.));
#660 = VECTOR('', #659, 1.);
#661 = CARTESIAN_POINT('', (-77.14837412, -63.6249037, 902.5));
#662 = LINE('', #661, #660);
#663 = DIRECTION('', (-0., -0., -1.));
#664 = VECTOR('', #663, 1.);
#665 = CARTESIAN_POINT('', (-16.52659586, -98.6249037, 902.5));
#666 = LINE('', #665, #664);
#667 = DIRECTION('', (-0.16526596, -0.98624904, -0.));
#668 = DIRECTION('', (0., 0., -1.));
#669 = CARTESIAN_POINT('', (0., 0., 857.5));
#670 = AXIS2_PLACEMENT_3D('', #669, #668, #667);
#671 = CIRCLE('', #670, 100.);
#672 = DIRECTION('', (-0.16526596, -0.98624904, -0.));
#673 = DIRECTION('', (0., 0., -1.));
#674 = CARTESIAN_POINT('', (0., 0., 902.5));
#675 = AXIS2_PLACEMENT_3D('', #674, #673, #672);
#676 = CIRCLE('', #675, 100.);
#677 = DIRECTION('', (0., -0., 1.));
#678 = VECTOR('', #677, 1.);
#679 = CARTESIAN_POINT('', (-204.54694938, -284.28570887, 857.5));
#680 = LINE('', #679, #678);
#681 = DIRECTION('', (0., -0., -1.));
#682 = VECTOR('', #681, 1.);
#683 = CARTESIAN_POINT('', (-150.7307413, -331.07330219, 902.5));
#684 = LINE('', #683, #682);
#685 = DIRECTION('', (0.75466877, -0.65610597, 0.));
#686 = VECTOR('', #685, 1.);
#687 = CARTESIAN_POINT('', (-204.54694938, -284.28570887, 857.5));
#688 = LINE('', #687, #686);
#689 = DIRECTION('', (0.75466877, -0.65610597, 0.));
#690 = VECTOR('', #689, 1.);
#691 = CARTESIAN_POINT('', (-204.54694938, -284.28570887, 902.5));
#692 = LINE('', #691, #690);
#693 = DIRECTION('', (0.5, 0.8660254, 0.));
#694 = VECTOR('', #693, 1.);
#695 = CARTESIAN_POINT('', (-150.7307413, -331.07330219, 857.5));
#696 = LINE('', #695, #694);
#697 = DIRECTION('', (0.5, 0.8660254, 0.));
#698 = VECTOR('', #697, 1.);
#699 = CARTESIAN_POINT('', (-150.7307413, -331.07330219, 902.5));
#700 = LINE('', #699, #698);
#701 = DIRECTION('', (-0.5, -0.8660254, 0.));
#702 = VECTOR('', #701, 1.);
#703 = CARTESIAN_POINT('', (-77.14837412, -63.6249037, 857.5));
#704 = LINE('', #703, #702);
#705 = DIRECTION('', (-0.5, -0.8660254, 0.));
#706 = VECTOR('', #705, 1.);
#707 = CARTESIAN_POINT('', (-77.14837412, -63.6249037, 902.5));
#708 = LINE('', #707, #706);
#709 = DIRECTION('', (1., -0., 0.));
#710 = DIRECTION('', (-0., -0., 1.));
#711 = CARTESIAN_POINT('', (0.00000001, 0., 90.));
#712 = AXIS2_PLACEMENT_3D('', #711, #710, #709);
#713 = CIRCLE('', #712, 37.99999999);
#714 = DIRECTION('', (1., 0., 0.));
#715 = DIRECTION('', (0., -0., -1.));
#716 = CARTESIAN_POINT('', (0.00000001, -0., 90.));
#717 = AXIS2_PLACEMENT_3D('', #716, #715, #714);
#718 = CIRCLE('', #717, 37.99999999);
#719 = DIRECTION('', (1., 0., 0.));
#720 = DIRECTION('', (-0., -0., 1.));
#721 = CARTESIAN_POINT('', (-0., -0., 150.));
#722 = AXIS2_PLACEMENT_3D('', #721, #720, #719);
#723 = CIRCLE('', #722, 38.);
#724 = DIRECTION('', (1., 0., 0.));
#725 = DIRECTION('', (0., -0., -1.));
#726 = CARTESIAN_POINT('', (0., -0., 150.));
#727 = AXIS2_PLACEMENT_3D('', #726, #725, #724);
#728 = CIRCLE('', #727, 38.);
#729 = DIRECTION('', (1., -0., -0.));
#730 = DIRECTION('', (0., 0., 1.));
#731 = CARTESIAN_POINT('', (0., 0., 850.));
#732 = AXIS2_PLACEMENT_3D('', #731, #730, #729);
#733 = CIRCLE('', #732, 38.);
#734 = DIRECTION('', (1., 0., 0.));
#735 = DIRECTION('', (0., -0., -1.));
#736 = CARTESIAN_POINT('', (0., -0., 850.));
#737 = AXIS2_PLACEMENT_3D('', #736, #735, #734);
#738 = CIRCLE('', #737, 38.);
#739 = DIRECTION('', (1., 0., -0.));
#740 = DIRECTION('', (0., 0., 1.));
#741 = CARTESIAN_POINT('', (-0., -0., 910.));
#742 = AXIS2_PLACEMENT_3D('', #741, #740, #739);
#743 = CIRCLE('', #742, 38.);
#744 = DIRECTION('', (1., 0., 0.));
#745 = DIRECTION('', (0., -0., -1.));
#746 = CARTESIAN_POINT('', (0., -0., 910.));
#747 = AXIS2_PLACEMENT_3D('', #746, #745, #744);
#748 = CIRCLE('', #747, 38.);
#749 = DIRECTION('', (0., -1., 0.));
#750 = DIRECTION('', (-0., -0., -1.));
#751 = CARTESIAN_POINT('', (-0.00000001, -0., 90.));
#752 = AXIS2_PLACEMENT_3D('', #751, #750, #749);
#753 = CIRCLE('', #752, 37.99999999);
#754 = DIRECTION('', (0., 1., 0.));
#755 = DIRECTION('', (0., -0., 1.));
#756 = CARTESIAN_POINT('', (-0.00000001, 0., 90.));
#757 = AXIS2_PLACEMENT_3D('', #756, #755, #754);
#758 = CIRCLE('', #757, 37.99999999);
#759 = DIRECTION('', (0., -1., 0.));
#760 = DIRECTION('', (-0., -0., -1.));
#761 = CARTESIAN_POINT('', (0., 0., 150.));
#762 = AXIS2_PLACEMENT_3D('', #761, #760, #759);
#763 = CIRCLE('', #762, 38.);
#764 = DIRECTION('', (-0., 1., 0.));
#765 = DIRECTION('', (0., -0., 1.));
#766 = CARTESIAN_POINT('', (-0., 0., 150.));
#767 = AXIS2_PLACEMENT_3D('', #766, #765, #764);
#768 = CIRCLE('', #767, 38.);
#769 = DIRECTION('', (0., -1., 0.));
#770 = DIRECTION('', (-0., -0., -1.));
#771 = CARTESIAN_POINT('', (-0., -0., 850.));
#772 = AXIS2_PLACEMENT_3D('', #771, #770, #769);
#773 = CIRCLE('', #772, 38.);
#774 = DIRECTION('', (0., 1., 0.));
#775 = DIRECTION('', (-0., -0., 1.));
#776 = CARTESIAN_POINT('', (-0., 0., 850.));
#777 = AXIS2_PLACEMENT_3D('', #776, #775, #774);
#778 = CIRCLE('', #777, 38.);
#779 = DIRECTION('', (0., -1., -0.));
#780 = DIRECTION('', (-0., 0., -1.));
#781 = CARTESIAN_POINT('', (-0., -0., 910.));
#782 = AXIS2_PLACEMENT_3D('', #781, #780, #779);
#783 = CIRCLE('', #782, 38.);
#784 = DIRECTION('', (-0., 1., 0.));
#785 = DIRECTION('', (0., -0., 1.));
#786 = CARTESIAN_POINT('', (-0., 0., 910.));
#787 = AXIS2_PLACEMENT_3D('', #786, #785, #784);
#788 = CIRCLE('', #787, 38.);
#789 = DIRECTION('', (0., -0., 1.));
#790 = VECTOR('', #789, 1.);
#791 = CARTESIAN_POINT('', (38., 0., 90.));
#792 = LINE('', #791, #790);
#793 = DIRECTION('', (0., -0., 1.));
#794 = VECTOR('', #793, 1.);
#795 = CARTESIAN_POINT('', (-38., 0., 90.));
#796 = LINE('', #795, #794);
#797 = DIRECTION('', (0., -0., 1.));
#798 = VECTOR('', #797, 1.);
#799 = CARTESIAN_POINT('', (38., 0., 850.));
#800 = LINE('', #799, #798);
#801 = DIRECTION('', (0., -0., 1.));
#802 = VECTOR('', #801, 1.);
#803 = CARTESIAN_POINT('', (-38., 0., 850.));
#804 = LINE('', #803, #802);
#805 = EDGE_CURVE('', #6, #6, #201, .T.);
#806 = EDGE_CURVE('', #6, #8, #205, .T.);
#807 = EDGE_CURVE('', #8, #8, #210, .T.);
#808 = EDGE_CURVE('', #10, #14, #215, .T.);
#809 = EDGE_CURVE('', #10, #66, #219, .T.);
#810 = EDGE_CURVE('', #12, #16, #224, .T.);
#811 = EDGE_CURVE('', #14, #10, #229, .T.);
#812 = EDGE_CURVE('', #16, #12, #234, .T.);
#813 = EDGE_CURVE('', #14, #16, #238, .T.);
#814 = EDGE_CURVE('', #18, #22, #243, .T.);
#815 = EDGE_CURVE('', #18, #118, #247, .T.);
#816 = EDGE_CURVE('', #20, #24, #252, .T.);
#817 = EDGE_CURVE('', #22, #18, #257, .T.);
#818 = EDGE_CURVE('', #24, #20, #262, .T.);
#819 = EDGE_CURVE('', #22, #24, #266, .T.);
#820 = EDGE_CURVE('', #26, #28, #270, .T.);
#821 = EDGE_CURVE('', #28, #30, #274, .T.);
#822 = EDGE_CURVE('', #32, #30, #278, .T.);
#823 = EDGE_CURVE('', #26, #32, #282, .T.);
#824 = EDGE_CURVE('', #28, #34, #286, .T.);
#825 = EDGE_CURVE('', #34, #36, #290, .T.);
#826 = EDGE_CURVE('', #30, #36, #294, .T.);
#827 = EDGE_CURVE('', #34, #26, #299, .T.);
#828 = EDGE_CURVE('', #36, #32, #304, .T.);
#829 = EDGE_CURVE('', #38, #40, #308, .T.);
#830 = EDGE_CURVE('', #40, #42, #312, .T.);
#831 = EDGE_CURVE('', #44, #42, #316, .T.);
#832 = EDGE_CURVE('', #38, #44, #320, .T.);
#833 = EDGE_CURVE('', #40, #46, #324, .T.);
#834 = EDGE_CURVE('', #46, #48, #328, .T.);
#835 = EDGE_CURVE('', #42, #48, #332, .T.);
#836 = EDGE_CURVE('', #46, #38, #337, .T.);
#837 = EDGE_CURVE('', #48, #44, #342, .T.);
#838 = EDGE_CURVE('', #50, #52, #346, .T.);
#839 = EDGE_CURVE('', #52, #54, #350, .T.);
#840 = EDGE_CURVE('', #56, #54, #354, .T.);
#841 = EDGE_CURVE('', #50, #56, #358, .T.);
#842 = EDGE_CURVE('', #52, #58, #362, .T.);
#843 = EDGE_CURVE('', #58, #60, #366, .T.);
#844 = EDGE_CURVE('', #54, #60, #370, .T.);
#845 = EDGE_CURVE('', #58, #50, #375, .T.);
#846 = EDGE_CURVE('', #60, #56, #380, .T.);
#847 = EDGE_CURVE('', #62, #64, #384, .T.);
#848 = EDGE_CURVE('', #66, #64, #389, .T.);
#849 = EDGE_CURVE('', #68, #62, #394, .T.);
#850 = EDGE_CURVE('', #70, #72, #398, .T.);
#851 = EDGE_CURVE('', #66, #72, #403, .T.);
#852 = EDGE_CURVE('', #68, #70, #408, .T.);
#853 = EDGE_CURVE('', #74, #76, #412, .T.);
#854 = EDGE_CURVE('', #78, #80, #416, .T.);
#855 = EDGE_CURVE('', #74, #80, #420, .T.);
#856 = EDGE_CURVE('', #76, #78, #424, .T.);
#857 = EDGE_CURVE('', #80, #64, #428, .T.);
#858 = EDGE_CURVE('', #78, #62, #432, .T.);
#859 = EDGE_CURVE('', #72, #74, #436, .T.);
#860 = EDGE_CURVE('', #70, #76, #440, .T.);
#861 = EDGE_CURVE('', #68, #12, #444, .T.);
#862 = EDGE_CURVE('', #82, #84, #448, .T.);
#863 = EDGE_CURVE('', #86, #88, #452, .T.);
#864 = EDGE_CURVE('', #84, #88, #457, .T.);
#865 = EDGE_CURVE('', #82, #86, #462, .T.);
#866 = EDGE_CURVE('', #90, #92, #466, .T.);
#867 = EDGE_CURVE('', #94, #96, #470, .T.);
#868 = EDGE_CURVE('', #90, #96, #474, .T.);
#869 = EDGE_CURVE('', #92, #94, #478, .T.);
#870 = EDGE_CURVE('', #96, #88, #482, .T.);
#871 = EDGE_CURVE('', #94, #86, #486, .T.);
#872 = EDGE_CURVE('', #84, #90, #490, .T.);
#873 = EDGE_CURVE('', #82, #92, #494, .T.);
#874 = EDGE_CURVE('', #98, #100, #498, .T.);
#875 = EDGE_CURVE('', #102, #104, #502, .T.);
#876 = EDGE_CURVE('', #104, #100, #507, .T.);
#877 = EDGE_CURVE('', #102, #98, #512, .T.);
#878 = EDGE_CURVE('', #106, #108, #516, .T.);
#879 = EDGE_CURVE('', #110, #112, #520, .T.);
#880 = EDGE_CURVE('', #106, #112, #524, .T.);
#881 = EDGE_CURVE('', #108, #110, #528, .T.);
#882 = EDGE_CURVE('', #112, #104, #532, .T.);
#883 = EDGE_CURVE('', #110, #102, #536, .T.);
#884 = EDGE_CURVE('', #100, #106, #540, .T.);
#885 = EDGE_CURVE('', #98, #108, #544, .T.);
#886 = EDGE_CURVE('', #114, #116, #548, .T.);
#887 = EDGE_CURVE('', #118, #116, #553, .T.);
#888 = EDGE_CURVE('', #120, #114, #558, .T.);
#889 = EDGE_CURVE('', #122, #124, #562, .T.);
#890 = EDGE_CURVE('', #118, #124, #567, .T.);
#891 = EDGE_CURVE('', #120, #122, #572, .T.);
#892 = EDGE_CURVE('', #126, #128, #576, .T.);
#893 = EDGE_CURVE('', #130, #132, #580, .T.);
#894 = EDGE_CURVE('', #126, #132, #584, .T.);
#895 = EDGE_CURVE('', #128, #130, #588, .T.);
#896 = EDGE_CURVE('', #132, #116, #592, .T.);
#897 = EDGE_CURVE('', #130, #114, #596, .T.);
#898 = EDGE_CURVE('', #124, #126, #600, .T.);
#899 = EDGE_CURVE('', #122, #128, #604, .T.);
#900 = EDGE_CURVE('', #120, #20, #608, .T.);
#901 = EDGE_CURVE('', #134, #136, #612, .T.);
#902 = EDGE_CURVE('', #138, #140, #616, .T.);
#903 = EDGE_CURVE('', #136, #140, #621, .T.);
#904 = EDGE_CURVE('', #134, #138, #626, .T.);
#905 = EDGE_CURVE('', #142, #144, #630, .T.);
#906 = EDGE_CURVE('', #146, #148, #634, .T.);
#907 = EDGE_CURVE('', #142, #148, #638, .T.);
#908 = EDGE_CURVE('', #144, #146, #642, .T.);
#909 = EDGE_CURVE('', #148, #140, #646, .T.);
#910 = EDGE_CURVE('', #146, #138, #650, .T.);
#911 = EDGE_CURVE('', #136, #142, #654, .T.);
#912 = EDGE_CURVE('', #134, #144, #658, .T.);
#913 = EDGE_CURVE('', #150, #152, #662, .T.);
#914 = EDGE_CURVE('', #154, #156, #666, .T.);
#915 = EDGE_CURVE('', #156, #152, #671, .T.);
#916 = EDGE_CURVE('', #154, #150, #676, .T.);
#917 = EDGE_CURVE('', #158, #160, #680, .T.);
#918 = EDGE_CURVE('', #162, #164, #684, .T.);
#919 = EDGE_CURVE('', #158, #164, #688, .T.);
#920 = EDGE_CURVE('', #160, #162, #692, .T.);
#921 = EDGE_CURVE('', #164, #156, #696, .T.);
#922 = EDGE_CURVE('', #162, #154, #700, .T.);
#923 = EDGE_CURVE('', #152, #158, #704, .T.);
#924 = EDGE_CURVE('', #150, #160, #708, .T.);
#925 = EDGE_CURVE('', #166, #184, #713, .T.);
#926 = EDGE_CURVE('', #166, #182, #718, .T.);
#927 = EDGE_CURVE('', #170, #188, #723, .T.);
#928 = EDGE_CURVE('', #170, #186, #728, .T.);
#929 = EDGE_CURVE('', #174, #192, #733, .T.);
#930 = EDGE_CURVE('', #174, #190, #738, .T.);
#931 = EDGE_CURVE('', #178, #196, #743, .T.);
#932 = EDGE_CURVE('', #178, #194, #748, .T.);
#933 = EDGE_CURVE('', #182, #168, #753, .T.);
#934 = EDGE_CURVE('', #184, #168, #758, .T.);
#935 = EDGE_CURVE('', #186, #172, #763, .T.);
#936 = EDGE_CURVE('', #188, #172, #768, .T.);
#937 = EDGE_CURVE('', #190, #176, #773, .T.);
#938 = EDGE_CURVE('', #192, #176, #778, .T.);
#939 = EDGE_CURVE('', #194, #180, #783, .T.);
#940 = EDGE_CURVE('', #196, #180, #788, .T.);
#941 = EDGE_CURVE('', #166, #170, #792, .T.);
#942 = EDGE_CURVE('', #168, #172, #796, .T.);
#943 = EDGE_CURVE('', #174, #178, #800, .T.);
#944 = EDGE_CURVE('', #176, #180, #804, .T.);
#945 = CARTESIAN_POINT('', (0., 0., 500.));
#946 = DIRECTION('', (-0., -0., 1.));
#947 = DIRECTION('', (1., -0., 0.));
#948 = AXIS2_PLACEMENT_3D('', #945, #946, #947);
#949 = CYLINDRICAL_SURFACE('', #948, 35.);
#950 = CARTESIAN_POINT('', (0., 0., 0.));
#951 = DIRECTION('', (0., -0., 1.));
#952 = AXIS2_PLACEMENT_3D('', #950, #951, $);
#953 = PLANE('', #952);
#954 = CARTESIAN_POINT('', (0., 0., 1000.));
#955 = DIRECTION('', (0., -0., 1.));
#956 = AXIS2_PLACEMENT_3D('', #954, #955, $);
#957 = PLANE('', #956);
#958 = CARTESIAN_POINT('', (0., -0., 120.));
#959 = DIRECTION('', (0., -0., 1.));
#960 = DIRECTION('', (1., 0., 0.));
#961 = AXIS2_PLACEMENT_3D('', #958, #959, #960);
#962 = CYLINDRICAL_SURFACE('', #961, 100.);
#963 = CARTESIAN_POINT('', (0., 0., 90.));
#964 = DIRECTION('', (0., -0., 1.));
#965 = AXIS2_PLACEMENT_3D('', #963, #964, $);
#966 = PLANE('', #965);
#967 = CARTESIAN_POINT('', (0., 0., 150.));
#968 = DIRECTION('', (0., -0., 1.));
#969 = AXIS2_PLACEMENT_3D('', #967, #968, $);
#970 = PLANE('', #969);
#971 = CARTESIAN_POINT('', (0., -0., 880.));
#972 = DIRECTION('', (0., -0., 1.));
#973 = DIRECTION('', (1., 0., 0.));
#974 = AXIS2_PLACEMENT_3D('', #971, #972, #973);
#975 = CYLINDRICAL_SURFACE('', #974, 100.);
#976 = CARTESIAN_POINT('', (0., 0., 850.));
#977 = DIRECTION('', (0., -0., 1.));
#978 = AXIS2_PLACEMENT_3D('', #976, #977, $);
#979 = PLANE('', #978);
#980 = CARTESIAN_POINT('', (0., 0., 910.));
#981 = DIRECTION('', (0., -0., 1.));
#982 = AXIS2_PLACEMENT_3D('', #980, #981, $);
#983 = PLANE('', #982);
#984 = CARTESIAN_POINT('', (435.00000695, 49.99997896, 500.));
#985 = DIRECTION('', (0.9816154, 0.19086963, -0.));
#986 = AXIS2_PLACEMENT_3D('', #984, #985, $);
#987 = PLANE('', #986);
#988 = CARTESIAN_POINT('', (364.99994189, 50.0000416, 500.));
#989 = DIRECTION('', (-0.98161531, 0.19087005, 0.));
#990 = AXIS2_PLACEMENT_3D('', #988, #989, $);
#991 = PLANE('', #990);
#992 = CARTESIAN_POINT('', (400.00003358, -25.23375955, 500.));
#993 = DIRECTION('', (0., 0., 1.));
#994 = DIRECTION('', (-0.55555734, -0.83147823, 0.));
#995 = AXIS2_PLACEMENT_3D('', #992, #993, #994);
#996 = CYLINDRICAL_SURFACE('', #995, 125.99988072);
#997 = CARTESIAN_POINT('', (0., 0., 0.));
#998 = DIRECTION('', (0., -0., 1.));
#999 = AXIS2_PLACEMENT_3D('', #997, #998, $);
#1000 = PLANE('', #999);
#1001 = CARTESIAN_POINT('', (0., 0., 1000.));
#1002 = DIRECTION('', (0., -0., 1.));
#1003 = AXIS2_PLACEMENT_3D('', #1001, #1002, $);
#1004 = PLANE('', #1003);
#1005 = CARTESIAN_POINT('', (-260.80125544, 351.72106719, 500.));
#1006 = DIRECTION('', (-0.65610564, 0.75466906, 0.));
#1007 = AXIS2_PLACEMENT_3D('', #1005, #1006, $);
#1008 = PLANE('', #1007);
#1009 = CARTESIAN_POINT('', (-225.80127716, 291.09920125, 500.));
#1010 = DIRECTION('', (0.32550934, -0.94553882, 0.));
#1011 = AXIS2_PLACEMENT_3D('', #1009, #1010, $);
#1012 = PLANE('', #1011);
#1013 = CARTESIAN_POINT('', (-178.14693998, 359.02707037, 500.));
#1014 = DIRECTION('', (-0., -0., 1.));
#1015 = DIRECTION('', (0.99785994, -0.06538766, 0.));
#1016 = AXIS2_PLACEMENT_3D('', #1013, #1014, #1015);
#1017 = CYLINDRICAL_SURFACE('', #1016, 125.99988072);
#1018 = CARTESIAN_POINT('', (0., 0., 0.));
#1019 = DIRECTION('', (0., -0., 1.));
#1020 = AXIS2_PLACEMENT_3D('', #1018, #1019, $);
#1021 = PLANE('', #1020);
#1022 = CARTESIAN_POINT('', (0., 0., 1000.));
#1023 = DIRECTION('', (0., -0., 1.));
#1024 = AXIS2_PLACEMENT_3D('', #1022, #1023, $);
#1025 = PLANE('', #1024);
#1026 = CARTESIAN_POINT('', (-174.19875151, -401.72104615, 500.));
#1027 = DIRECTION('', (-0.32550975, -0.94553868, 0.));
#1028 = AXIS2_PLACEMENT_3D('', #1026, #1027, $);
#1029 = PLANE('', #1028);
#1030 = CARTESIAN_POINT('', (-139.19866473, -341.09924285, 500.));
#1031 = DIRECTION('', (0.65610597, 0.75466877, -0.));
#1032 = AXIS2_PLACEMENT_3D('', #1030, #1031, $);
#1033 = PLANE('', #1032);
#1034 = CARTESIAN_POINT('', (-221.85309359, -333.79331082, 500.));
#1035 = DIRECTION('', (0., -0., 1.));
#1036 = DIRECTION('', (-0.4423026, 0.89686588, 0.));
#1037 = AXIS2_PLACEMENT_3D('', #1034, #1035, #1036);
#1038 = CYLINDRICAL_SURFACE('', #1037, 125.99988072);
#1039 = CARTESIAN_POINT('', (0., 0., 0.));
#1040 = DIRECTION('', (0., 0., 1.));
#1041 = AXIS2_PLACEMENT_3D('', #1039, #1040, $);
#1042 = PLANE('', #1041);
#1043 = CARTESIAN_POINT('', (0., 0., 1000.));
#1044 = DIRECTION('', (0., 0., 1.));
#1045 = AXIS2_PLACEMENT_3D('', #1043, #1044, $);
#1046 = PLANE('', #1045);
#1047 = CARTESIAN_POINT('', (225., -35., 120.));
#1048 = DIRECTION('', (0., -1., 0.));
#1049 = AXIS2_PLACEMENT_3D('', #1047, #1048, $);
#1050 = PLANE('', #1049);
#1051 = CARTESIAN_POINT('', (225., 35., 120.));
#1052 = DIRECTION('', (0., 1., -0.));
#1053 = AXIS2_PLACEMENT_3D('', #1051, #1052, $);
#1054 = PLANE('', #1053);
#1055 = CARTESIAN_POINT('', (0., 0., 97.5));
#1056 = DIRECTION('', (0., -0., 1.));
#1057 = AXIS2_PLACEMENT_3D('', #1055, #1056, $);
#1058 = PLANE('', #1057);
#1059 = CARTESIAN_POINT('', (0., 0., 142.5));
#1060 = DIRECTION('', (0., -0., 1.));
#1061 = AXIS2_PLACEMENT_3D('', #1059, #1060, $);
#1062 = PLANE('', #1061);
#1063 = CARTESIAN_POINT('', (-82.18911087, 212.35571585, 120.));
#1064 = DIRECTION('', (0.8660254, 0.5, -0.));
#1065 = AXIS2_PLACEMENT_3D('', #1063, #1064, $);
#1066 = PLANE('', #1065);
#1067 = CARTESIAN_POINT('', (-142.81088913, 177.35571585, 120.));
#1068 = DIRECTION('', (-0.8660254, -0.5, 0.));
#1069 = AXIS2_PLACEMENT_3D('', #1067, #1068, $);
#1070 = PLANE('', #1069);
#1071 = CARTESIAN_POINT('', (0., 0., 97.5));
#1072 = DIRECTION('', (0., -0., 1.));
#1073 = AXIS2_PLACEMENT_3D('', #1071, #1072, $);
#1074 = PLANE('', #1073);
#1075 = CARTESIAN_POINT('', (0., 0., 142.5));
#1076 = DIRECTION('', (0., -0., 1.));
#1077 = AXIS2_PLACEMENT_3D('', #1075, #1076, $);
#1078 = PLANE('', #1077);
#1079 = CARTESIAN_POINT('', (-142.81088913, -177.35571585, 120.));
#1080 = DIRECTION('', (-0.8660254, 0.5, 0.));
#1081 = AXIS2_PLACEMENT_3D('', #1079, #1080, $);
#1082 = PLANE('', #1081);
#1083 = CARTESIAN_POINT('', (-82.18911087, -212.35571585, 120.));
#1084 = DIRECTION('', (0.8660254, -0.5, 0.));
#1085 = AXIS2_PLACEMENT_3D('', #1083, #1084, $);
#1086 = PLANE('', #1085);
#1087 = CARTESIAN_POINT('', (0., 0., 97.5));
#1088 = DIRECTION('', (0., 0., 1.));
#1089 = AXIS2_PLACEMENT_3D('', #1087, #1088, $);
#1090 = PLANE('', #1089);
#1091 = CARTESIAN_POINT('', (0., 0., 142.5));
#1092 = DIRECTION('', (0., 0., 1.));
#1093 = AXIS2_PLACEMENT_3D('', #1091, #1092, $);
#1094 = PLANE('', #1093);
#1095 = CARTESIAN_POINT('', (225., -35., 880.));
#1096 = DIRECTION('', (0., -1., 0.));
#1097 = AXIS2_PLACEMENT_3D('', #1095, #1096, $);
#1098 = PLANE('', #1097);
#1099 = CARTESIAN_POINT('', (225., 35., 880.));
#1100 = DIRECTION('', (0., 1., 0.));
#1101 = AXIS2_PLACEMENT_3D('', #1099, #1100, $);
#1102 = PLANE('', #1101);
#1103 = CARTESIAN_POINT('', (0., 0., 857.5));
#1104 = DIRECTION('', (0., -0., 1.));
#1105 = AXIS2_PLACEMENT_3D('', #1103, #1104, $);
#1106 = PLANE('', #1105);
#1107 = CARTESIAN_POINT('', (0., 0., 902.5));
#1108 = DIRECTION('', (0., -0., 1.));
#1109 = AXIS2_PLACEMENT_3D('', #1107, #1108, $);
#1110 = PLANE('', #1109);
#1111 = CARTESIAN_POINT('', (-82.18911087, 212.35571585, 880.));
#1112 = DIRECTION('', (0.8660254, 0.5, 0.));
#1113 = AXIS2_PLACEMENT_3D('', #1111, #1112, $);
#1114 = PLANE('', #1113);
#1115 = CARTESIAN_POINT('', (-142.81088913, 177.35571585, 880.));
#1116 = DIRECTION('', (-0.8660254, -0.5, 0.));
#1117 = AXIS2_PLACEMENT_3D('', #1115, #1116, $);
#1118 = PLANE('', #1117);
#1119 = CARTESIAN_POINT('', (0., 0., 857.5));
#1120 = DIRECTION('', (0., -0., 1.));
#1121 = AXIS2_PLACEMENT_3D('', #1119, #1120, $);
#1122 = PLANE('', #1121);
#1123 = CARTESIAN_POINT('', (0., 0., 902.5));
#1124 = DIRECTION('', (0., -0., 1.));
#1125 = AXIS2_PLACEMENT_3D('', #1123, #1124, $);
#1126 = PLANE('', #1125);
#1127 = CARTESIAN_POINT('', (-142.81088913, -177.35571585, 880.));
#1128 = DIRECTION('', (-0.8660254, 0.5, 0.));
#1129 = AXIS2_PLACEMENT_3D('', #1127, #1128, $);
#1130 = PLANE('', #1129);
#1131 = CARTESIAN_POINT('', (-82.18911087, -212.35571585, 880.));
#1132 = DIRECTION('', (0.8660254, -0.5, 0.));
#1133 = AXIS2_PLACEMENT_3D('', #1131, #1132, $);
#1134 = PLANE('', #1133);
#1135 = CARTESIAN_POINT('', (0., 0., 857.5));
#1136 = DIRECTION('', (0., 0., 1.));
#1137 = AXIS2_PLACEMENT_3D('', #1135, #1136, $);
#1138 = PLANE('', #1137);
#1139 = CARTESIAN_POINT('', (0., 0., 902.5));
#1140 = DIRECTION('', (0., 0., 1.));
#1141 = AXIS2_PLACEMENT_3D('', #1139, #1140, $);
#1142 = PLANE('', #1141);
#1143 = CARTESIAN_POINT('', (0., 0., 500.));
#1144 = DIRECTION('', (-0., -0., 1.));
#1145 = DIRECTION('', (1., -0., 0.));
#1146 = AXIS2_PLACEMENT_3D('', #1143, #1144, #1145);
#1147 = CYLINDRICAL_SURFACE('', #1146, 38.);
#1148 = ORIENTED_EDGE('', *, *, #805, .T.);
#1149 = ORIENTED_EDGE('', *, *, #807, .F.);
#1150 = EDGE_LOOP('', (#1148));
#1151 = FACE_BOUND('', #1150, .T.);
#1152 = EDGE_LOOP('', (#1149));
#1153 = FACE_BOUND('', #1152, .T.);
#1154 = ADVANCED_FACE('', (#1151, #1153), #949, .T.);
#1155 = ORIENTED_EDGE('', *, *, #805, .F.);
#1156 = EDGE_LOOP('', (#1155));
#1157 = FACE_BOUND('', #1156, .T.);
#1158 = ADVANCED_FACE('', (#1157), #953, .F.);
#1159 = ORIENTED_EDGE('', *, *, #807, .T.);
#1160 = EDGE_LOOP('', (#1159));
#1161 = FACE_BOUND('', #1160, .T.);
#1162 = ADVANCED_FACE('', (#1161), #957, .T.);
#1163 = ORIENTED_EDGE('', *, *, #813, .T.);
#1164 = ORIENTED_EDGE('', *, *, #810, .F.);
#1165 = ORIENTED_EDGE('', *, *, #861, .F.);
#1166 = ORIENTED_EDGE('', *, *, #849, .T.);
#1167 = ORIENTED_EDGE('', *, *, #847, .T.);
#1168 = ORIENTED_EDGE('', *, *, #848, .F.);
#1169 = ORIENTED_EDGE('', *, *, #809, .F.);
#1170 = ORIENTED_EDGE('', *, *, #808, .T.);
#1171 = ORIENTED_EDGE('', *, *, #862, .F.);
#1172 = ORIENTED_EDGE('', *, *, #865, .T.);
#1173 = ORIENTED_EDGE('', *, *, #863, .T.);
#1174 = ORIENTED_EDGE('', *, *, #864, .F.);
#1175 = EDGE_LOOP('', (#1163, #1164, #1165, #1166, #1167, #1168, #1169, #1170));
#1176 = FACE_BOUND('', #1175, .T.);
#1177 = EDGE_LOOP('', (#1171, #1172, #1173, #1174));
#1178 = FACE_BOUND('', #1177, .T.);
#1179 = ADVANCED_FACE('', (#1176, #1178), #962, .T.);
#1180 = ORIENTED_EDGE('', *, *, #811, .F.);
#1181 = ORIENTED_EDGE('', *, *, #808, .F.);
#1182 = ORIENTED_EDGE('', *, *, #934, .T.);
#1183 = ORIENTED_EDGE('', *, *, #933, .F.);
#1184 = ORIENTED_EDGE('', *, *, #926, .F.);
#1185 = ORIENTED_EDGE('', *, *, #925, .T.);
#1186 = EDGE_LOOP('', (#1180, #1181));
#1187 = FACE_BOUND('', #1186, .T.);
#1188 = EDGE_LOOP('', (#1182, #1183, #1184, #1185));
#1189 = FACE_BOUND('', #1188, .T.);
#1190 = ADVANCED_FACE('', (#1187, #1189), #966, .F.);
#1191 = ORIENTED_EDGE('', *, *, #810, .T.);
#1192 = ORIENTED_EDGE('', *, *, #812, .T.);
#1193 = ORIENTED_EDGE('', *, *, #927, .F.);
#1194 = ORIENTED_EDGE('', *, *, #928, .T.);
#1195 = ORIENTED_EDGE('', *, *, #935, .T.);
#1196 = ORIENTED_EDGE('', *, *, #936, .F.);
#1197 = EDGE_LOOP('', (#1191, #1192));
#1198 = FACE_BOUND('', #1197, .T.);
#1199 = EDGE_LOOP('', (#1193, #1194, #1195, #1196));
#1200 = FACE_BOUND('', #1199, .T.);
#1201 = ADVANCED_FACE('', (#1198, #1200), #970, .T.);
#1202 = ORIENTED_EDGE('', *, *, #813, .F.);
#1203 = ORIENTED_EDGE('', *, *, #811, .T.);
#1204 = ORIENTED_EDGE('', *, *, #809, .T.);
#1205 = ORIENTED_EDGE('', *, *, #851, .T.);
#1206 = ORIENTED_EDGE('', *, *, #850, .F.);
#1207 = ORIENTED_EDGE('', *, *, #852, .F.);
#1208 = ORIENTED_EDGE('', *, *, #861, .T.);
#1209 = ORIENTED_EDGE('', *, *, #812, .F.);
#1210 = ORIENTED_EDGE('', *, *, #874, .F.);
#1211 = ORIENTED_EDGE('', *, *, #877, .F.);
#1212 = ORIENTED_EDGE('', *, *, #875, .T.);
#1213 = ORIENTED_EDGE('', *, *, #876, .T.);
#1214 = EDGE_LOOP('', (#1202, #1203, #1204, #1205, #1206, #1207, #1208, #1209));
#1215 = FACE_BOUND('', #1214, .T.);
#1216 = EDGE_LOOP('', (#1210, #1211, #1212, #1213));
#1217 = FACE_BOUND('', #1216, .T.);
#1218 = ADVANCED_FACE('', (#1215, #1217), #962, .T.);
#1219 = ORIENTED_EDGE('', *, *, #819, .T.);
#1220 = ORIENTED_EDGE('', *, *, #816, .F.);
#1221 = ORIENTED_EDGE('', *, *, #900, .F.);
#1222 = ORIENTED_EDGE('', *, *, #888, .T.);
#1223 = ORIENTED_EDGE('', *, *, #886, .T.);
#1224 = ORIENTED_EDGE('', *, *, #887, .F.);
#1225 = ORIENTED_EDGE('', *, *, #815, .F.);
#1226 = ORIENTED_EDGE('', *, *, #814, .T.);
#1227 = ORIENTED_EDGE('', *, *, #901, .F.);
#1228 = ORIENTED_EDGE('', *, *, #904, .T.);
#1229 = ORIENTED_EDGE('', *, *, #902, .T.);
#1230 = ORIENTED_EDGE('', *, *, #903, .F.);
#1231 = EDGE_LOOP('', (#1219, #1220, #1221, #1222, #1223, #1224, #1225, #1226));
#1232 = FACE_BOUND('', #1231, .T.);
#1233 = EDGE_LOOP('', (#1227, #1228, #1229, #1230));
#1234 = FACE_BOUND('', #1233, .T.);
#1235 = ADVANCED_FACE('', (#1232, #1234), #975, .T.);
#1236 = ORIENTED_EDGE('', *, *, #817, .F.);
#1237 = ORIENTED_EDGE('', *, *, #814, .F.);
#1238 = ORIENTED_EDGE('', *, *, #938, .T.);
#1239 = ORIENTED_EDGE('', *, *, #937, .F.);
#1240 = ORIENTED_EDGE('', *, *, #930, .F.);
#1241 = ORIENTED_EDGE('', *, *, #929, .T.);
#1242 = EDGE_LOOP('', (#1236, #1237));
#1243 = FACE_BOUND('', #1242, .T.);
#1244 = EDGE_LOOP('', (#1238, #1239, #1240, #1241));
#1245 = FACE_BOUND('', #1244, .T.);
#1246 = ADVANCED_FACE('', (#1243, #1245), #979, .F.);
#1247 = ORIENTED_EDGE('', *, *, #816, .T.);
#1248 = ORIENTED_EDGE('', *, *, #818, .T.);
#1249 = ORIENTED_EDGE('', *, *, #931, .F.);
#1250 = ORIENTED_EDGE('', *, *, #932, .T.);
#1251 = ORIENTED_EDGE('', *, *, #939, .T.);
#1252 = ORIENTED_EDGE('', *, *, #940, .F.);
#1253 = EDGE_LOOP('', (#1247, #1248));
#1254 = FACE_BOUND('', #1253, .T.);
#1255 = EDGE_LOOP('', (#1249, #1250, #1251, #1252));
#1256 = FACE_BOUND('', #1255, .T.);
#1257 = ADVANCED_FACE('', (#1254, #1256), #983, .T.);
#1258 = ORIENTED_EDGE('', *, *, #819, .F.);
#1259 = ORIENTED_EDGE('', *, *, #817, .T.);
#1260 = ORIENTED_EDGE('', *, *, #815, .T.);
#1261 = ORIENTED_EDGE('', *, *, #890, .T.);
#1262 = ORIENTED_EDGE('', *, *, #889, .F.);
#1263 = ORIENTED_EDGE('', *, *, #891, .F.);
#1264 = ORIENTED_EDGE('', *, *, #900, .T.);
#1265 = ORIENTED_EDGE('', *, *, #818, .F.);
#1266 = ORIENTED_EDGE('', *, *, #913, .F.);
#1267 = ORIENTED_EDGE('', *, *, #916, .F.);
#1268 = ORIENTED_EDGE('', *, *, #914, .T.);
#1269 = ORIENTED_EDGE('', *, *, #915, .T.);
#1270 = EDGE_LOOP('', (#1258, #1259, #1260, #1261, #1262, #1263, #1264, #1265));
#1271 = FACE_BOUND('', #1270, .T.);
#1272 = EDGE_LOOP('', (#1266, #1267, #1268, #1269));
#1273 = FACE_BOUND('', #1272, .T.);
#1274 = ADVANCED_FACE('', (#1271, #1273), #975, .T.);
#1275 = ORIENTED_EDGE('', *, *, #820, .T.);
#1276 = ORIENTED_EDGE('', *, *, #821, .T.);
#1277 = ORIENTED_EDGE('', *, *, #822, .F.);
#1278 = ORIENTED_EDGE('', *, *, #823, .F.);
#1279 = EDGE_LOOP('', (#1275, #1276, #1277, #1278));
#1280 = FACE_BOUND('', #1279, .T.);
#1281 = ADVANCED_FACE('', (#1280), #987, .T.);
#1282 = ORIENTED_EDGE('', *, *, #824, .T.);
#1283 = ORIENTED_EDGE('', *, *, #825, .T.);
#1284 = ORIENTED_EDGE('', *, *, #826, .F.);
#1285 = ORIENTED_EDGE('', *, *, #821, .F.);
#1286 = ORIENTED_EDGE('', *, *, #853, .F.);
#1287 = ORIENTED_EDGE('', *, *, #855, .T.);
#1288 = ORIENTED_EDGE('', *, *, #854, .F.);
#1289 = ORIENTED_EDGE('', *, *, #856, .F.);
#1290 = ORIENTED_EDGE('', *, *, #892, .F.);
#1291 = ORIENTED_EDGE('', *, *, #894, .T.);
#1292 = ORIENTED_EDGE('', *, *, #893, .F.);
#1293 = ORIENTED_EDGE('', *, *, #895, .F.);
#1294 = EDGE_LOOP('', (#1282, #1283, #1284, #1285));
#1295 = FACE_BOUND('', #1294, .T.);
#1296 = EDGE_LOOP('', (#1286, #1287, #1288, #1289));
#1297 = FACE_BOUND('', #1296, .T.);
#1298 = EDGE_LOOP('', (#1290, #1291, #1292, #1293));
#1299 = FACE_BOUND('', #1298, .T.);
#1300 = ADVANCED_FACE('', (#1295, #1297, #1299), #991, .T.);
#1301 = ORIENTED_EDGE('', *, *, #827, .T.);
#1302 = ORIENTED_EDGE('', *, *, #823, .T.);
#1303 = ORIENTED_EDGE('', *, *, #828, .F.);
#1304 = ORIENTED_EDGE('', *, *, #825, .F.);
#1305 = EDGE_LOOP('', (#1301, #1302, #1303, #1304));
#1306 = FACE_BOUND('', #1305, .T.);
#1307 = ADVANCED_FACE('', (#1306), #996, .T.);
#1308 = ORIENTED_EDGE('', *, *, #827, .F.);
#1309 = ORIENTED_EDGE('', *, *, #824, .F.);
#1310 = ORIENTED_EDGE('', *, *, #820, .F.);
#1311 = EDGE_LOOP('', (#1308, #1309, #1310));
#1312 = FACE_BOUND('', #1311, .T.);
#1313 = ADVANCED_FACE('', (#1312), #1000, .F.);
#1314 = ORIENTED_EDGE('', *, *, #822, .T.);
#1315 = ORIENTED_EDGE('', *, *, #826, .T.);
#1316 = ORIENTED_EDGE('', *, *, #828, .T.);
#1317 = EDGE_LOOP('', (#1314, #1315, #1316));
#1318 = FACE_BOUND('', #1317, .T.);
#1319 = ADVANCED_FACE('', (#1318), #1004, .T.);
#1320 = ORIENTED_EDGE('', *, *, #829, .T.);
#1321 = ORIENTED_EDGE('', *, *, #830, .T.);
#1322 = ORIENTED_EDGE('', *, *, #831, .F.);
#1323 = ORIENTED_EDGE('', *, *, #832, .F.);
#1324 = EDGE_LOOP('', (#1320, #1321, #1322, #1323));
#1325 = FACE_BOUND('', #1324, .T.);
#1326 = ADVANCED_FACE('', (#1325), #1008, .T.);
#1327 = ORIENTED_EDGE('', *, *, #833, .T.);
#1328 = ORIENTED_EDGE('', *, *, #834, .T.);
#1329 = ORIENTED_EDGE('', *, *, #835, .F.);
#1330 = ORIENTED_EDGE('', *, *, #830, .F.);
#1331 = ORIENTED_EDGE('', *, *, #866, .F.);
#1332 = ORIENTED_EDGE('', *, *, #868, .T.);
#1333 = ORIENTED_EDGE('', *, *, #867, .F.);
#1334 = ORIENTED_EDGE('', *, *, #869, .F.);
#1335 = ORIENTED_EDGE('', *, *, #905, .F.);
#1336 = ORIENTED_EDGE('', *, *, #907, .T.);
#1337 = ORIENTED_EDGE('', *, *, #906, .F.);
#1338 = ORIENTED_EDGE('', *, *, #908, .F.);
#1339 = EDGE_LOOP('', (#1327, #1328, #1329, #1330));
#1340 = FACE_BOUND('', #1339, .T.);
#1341 = EDGE_LOOP('', (#1331, #1332, #1333, #1334));
#1342 = FACE_BOUND('', #1341, .T.);
#1343 = EDGE_LOOP('', (#1335, #1336, #1337, #1338));
#1344 = FACE_BOUND('', #1343, .T.);
#1345 = ADVANCED_FACE('', (#1340, #1342, #1344), #1012, .T.);
#1346 = ORIENTED_EDGE('', *, *, #836, .T.);
#1347 = ORIENTED_EDGE('', *, *, #832, .T.);
#1348 = ORIENTED_EDGE('', *, *, #837, .F.);
#1349 = ORIENTED_EDGE('', *, *, #834, .F.);
#1350 = EDGE_LOOP('', (#1346, #1347, #1348, #1349));
#1351 = FACE_BOUND('', #1350, .T.);
#1352 = ADVANCED_FACE('', (#1351), #1017, .T.);
#1353 = ORIENTED_EDGE('', *, *, #836, .F.);
#1354 = ORIENTED_EDGE('', *, *, #833, .F.);
#1355 = ORIENTED_EDGE('', *, *, #829, .F.);
#1356 = EDGE_LOOP('', (#1353, #1354, #1355));
#1357 = FACE_BOUND('', #1356, .T.);
#1358 = ADVANCED_FACE('', (#1357), #1021, .F.);
#1359 = ORIENTED_EDGE('', *, *, #831, .T.);
#1360 = ORIENTED_EDGE('', *, *, #835, .T.);
#1361 = ORIENTED_EDGE('', *, *, #837, .T.);
#1362 = EDGE_LOOP('', (#1359, #1360, #1361));
#1363 = FACE_BOUND('', #1362, .T.);
#1364 = ADVANCED_FACE('', (#1363), #1025, .T.);
#1365 = ORIENTED_EDGE('', *, *, #838, .T.);
#1366 = ORIENTED_EDGE('', *, *, #839, .T.);
#1367 = ORIENTED_EDGE('', *, *, #840, .F.);
#1368 = ORIENTED_EDGE('', *, *, #841, .F.);
#1369 = EDGE_LOOP('', (#1365, #1366, #1367, #1368));
#1370 = FACE_BOUND('', #1369, .T.);
#1371 = ADVANCED_FACE('', (#1370), #1029, .T.);
#1372 = ORIENTED_EDGE('', *, *, #842, .T.);
#1373 = ORIENTED_EDGE('', *, *, #843, .T.);
#1374 = ORIENTED_EDGE('', *, *, #844, .F.);
#1375 = ORIENTED_EDGE('', *, *, #839, .F.);
#1376 = ORIENTED_EDGE('', *, *, #878, .F.);
#1377 = ORIENTED_EDGE('', *, *, #880, .T.);
#1378 = ORIENTED_EDGE('', *, *, #879, .F.);
#1379 = ORIENTED_EDGE('', *, *, #881, .F.);
#1380 = ORIENTED_EDGE('', *, *, #917, .F.);
#1381 = ORIENTED_EDGE('', *, *, #919, .T.);
#1382 = ORIENTED_EDGE('', *, *, #918, .F.);
#1383 = ORIENTED_EDGE('', *, *, #920, .F.);
#1384 = EDGE_LOOP('', (#1372, #1373, #1374, #1375));
#1385 = FACE_BOUND('', #1384, .T.);
#1386 = EDGE_LOOP('', (#1376, #1377, #1378, #1379));
#1387 = FACE_BOUND('', #1386, .T.);
#1388 = EDGE_LOOP('', (#1380, #1381, #1382, #1383));
#1389 = FACE_BOUND('', #1388, .T.);
#1390 = ADVANCED_FACE('', (#1385, #1387, #1389), #1033, .T.);
#1391 = ORIENTED_EDGE('', *, *, #845, .T.);
#1392 = ORIENTED_EDGE('', *, *, #841, .T.);
#1393 = ORIENTED_EDGE('', *, *, #846, .F.);
#1394 = ORIENTED_EDGE('', *, *, #843, .F.);
#1395 = EDGE_LOOP('', (#1391, #1392, #1393, #1394));
#1396 = FACE_BOUND('', #1395, .T.);
#1397 = ADVANCED_FACE('', (#1396), #1038, .T.);
#1398 = ORIENTED_EDGE('', *, *, #845, .F.);
#1399 = ORIENTED_EDGE('', *, *, #842, .F.);
#1400 = ORIENTED_EDGE('', *, *, #838, .F.);
#1401 = EDGE_LOOP('', (#1398, #1399, #1400));
#1402 = FACE_BOUND('', #1401, .T.);
#1403 = ADVANCED_FACE('', (#1402), #1042, .F.);
#1404 = ORIENTED_EDGE('', *, *, #840, .T.);
#1405 = ORIENTED_EDGE('', *, *, #844, .T.);
#1406 = ORIENTED_EDGE('', *, *, #846, .T.);
#1407 = EDGE_LOOP('', (#1404, #1405, #1406));
#1408 = FACE_BOUND('', #1407, .T.);
#1409 = ADVANCED_FACE('', (#1408), #1046, .T.);
#1410 = ORIENTED_EDGE('', *, *, #859, .T.);
#1411 = ORIENTED_EDGE('', *, *, #853, .T.);
#1412 = ORIENTED_EDGE('', *, *, #860, .F.);
#1413 = ORIENTED_EDGE('', *, *, #850, .T.);
#1414 = EDGE_LOOP('', (#1410, #1411, #1412, #1413));
#1415 = FACE_BOUND('', #1414, .T.);
#1416 = ADVANCED_FACE('', (#1415), #1050, .T.);
#1417 = ORIENTED_EDGE('', *, *, #860, .T.);
#1418 = ORIENTED_EDGE('', *, *, #856, .T.);
#1419 = ORIENTED_EDGE('', *, *, #858, .T.);
#1420 = ORIENTED_EDGE('', *, *, #849, .F.);
#1421 = ORIENTED_EDGE('', *, *, #852, .T.);
#1422 = EDGE_LOOP('', (#1417, #1418, #1419, #1420, #1421));
#1423 = FACE_BOUND('', #1422, .T.);
#1424 = ADVANCED_FACE('', (#1423), #1062, .T.);
#1425 = ORIENTED_EDGE('', *, *, #851, .F.);
#1426 = ORIENTED_EDGE('', *, *, #848, .T.);
#1427 = ORIENTED_EDGE('', *, *, #857, .F.);
#1428 = ORIENTED_EDGE('', *, *, #855, .F.);
#1429 = ORIENTED_EDGE('', *, *, #859, .F.);
#1430 = EDGE_LOOP('', (#1425, #1426, #1427, #1428, #1429));
#1431 = FACE_BOUND('', #1430, .T.);
#1432 = ADVANCED_FACE('', (#1431), #1058, .F.);
#1433 = ORIENTED_EDGE('', *, *, #857, .T.);
#1434 = ORIENTED_EDGE('', *, *, #847, .F.);
#1435 = ORIENTED_EDGE('', *, *, #858, .F.);
#1436 = ORIENTED_EDGE('', *, *, #854, .T.);
#1437 = EDGE_LOOP('', (#1433, #1434, #1435, #1436));
#1438 = FACE_BOUND('', #1437, .T.);
#1439 = ADVANCED_FACE('', (#1438), #1054, .T.);
#1440 = ORIENTED_EDGE('', *, *, #873, .T.);
#1441 = ORIENTED_EDGE('', *, *, #869, .T.);
#1442 = ORIENTED_EDGE('', *, *, #871, .T.);
#1443 = ORIENTED_EDGE('', *, *, #865, .F.);
#1444 = EDGE_LOOP('', (#1440, #1441, #1442, #1443));
#1445 = FACE_BOUND('', #1444, .T.);
#1446 = ADVANCED_FACE('', (#1445), #1078, .T.);
#1447 = ORIENTED_EDGE('', *, *, #864, .T.);
#1448 = ORIENTED_EDGE('', *, *, #870, .F.);
#1449 = ORIENTED_EDGE('', *, *, #868, .F.);
#1450 = ORIENTED_EDGE('', *, *, #872, .F.);
#1451 = EDGE_LOOP('', (#1447, #1448, #1449, #1450));
#1452 = FACE_BOUND('', #1451, .T.);
#1453 = ADVANCED_FACE('', (#1452), #1074, .F.);
#1454 = ORIENTED_EDGE('', *, *, #870, .T.);
#1455 = ORIENTED_EDGE('', *, *, #863, .F.);
#1456 = ORIENTED_EDGE('', *, *, #871, .F.);
#1457 = ORIENTED_EDGE('', *, *, #867, .T.);
#1458 = EDGE_LOOP('', (#1454, #1455, #1456, #1457));
#1459 = FACE_BOUND('', #1458, .T.);
#1460 = ADVANCED_FACE('', (#1459), #1070, .T.);
#1461 = ORIENTED_EDGE('', *, *, #872, .T.);
#1462 = ORIENTED_EDGE('', *, *, #866, .T.);
#1463 = ORIENTED_EDGE('', *, *, #873, .F.);
#1464 = ORIENTED_EDGE('', *, *, #862, .T.);
#1465 = EDGE_LOOP('', (#1461, #1462, #1463, #1464));
#1466 = FACE_BOUND('', #1465, .T.);
#1467 = ADVANCED_FACE('', (#1466), #1066, .T.);
#1468 = ORIENTED_EDGE('', *, *, #885, .T.);
#1469 = ORIENTED_EDGE('', *, *, #881, .T.);
#1470 = ORIENTED_EDGE('', *, *, #883, .T.);
#1471 = ORIENTED_EDGE('', *, *, #877, .T.);
#1472 = EDGE_LOOP('', (#1468, #1469, #1470, #1471));
#1473 = FACE_BOUND('', #1472, .T.);
#1474 = ADVANCED_FACE('', (#1473), #1094, .T.);
#1475 = ORIENTED_EDGE('', *, *, #876, .F.);
#1476 = ORIENTED_EDGE('', *, *, #882, .F.);
#1477 = ORIENTED_EDGE('', *, *, #880, .F.);
#1478 = ORIENTED_EDGE('', *, *, #884, .F.);
#1479 = EDGE_LOOP('', (#1475, #1476, #1477, #1478));
#1480 = FACE_BOUND('', #1479, .T.);
#1481 = ADVANCED_FACE('', (#1480), #1090, .F.);
#1482 = ORIENTED_EDGE('', *, *, #882, .T.);
#1483 = ORIENTED_EDGE('', *, *, #875, .F.);
#1484 = ORIENTED_EDGE('', *, *, #883, .F.);
#1485 = ORIENTED_EDGE('', *, *, #879, .T.);
#1486 = EDGE_LOOP('', (#1482, #1483, #1484, #1485));
#1487 = FACE_BOUND('', #1486, .T.);
#1488 = ADVANCED_FACE('', (#1487), #1086, .T.);
#1489 = ORIENTED_EDGE('', *, *, #884, .T.);
#1490 = ORIENTED_EDGE('', *, *, #878, .T.);
#1491 = ORIENTED_EDGE('', *, *, #885, .F.);
#1492 = ORIENTED_EDGE('', *, *, #874, .T.);
#1493 = EDGE_LOOP('', (#1489, #1490, #1491, #1492));
#1494 = FACE_BOUND('', #1493, .T.);
#1495 = ADVANCED_FACE('', (#1494), #1082, .T.);
#1496 = ORIENTED_EDGE('', *, *, #898, .T.);
#1497 = ORIENTED_EDGE('', *, *, #892, .T.);
#1498 = ORIENTED_EDGE('', *, *, #899, .F.);
#1499 = ORIENTED_EDGE('', *, *, #889, .T.);
#1500 = EDGE_LOOP('', (#1496, #1497, #1498, #1499));
#1501 = FACE_BOUND('', #1500, .T.);
#1502 = ADVANCED_FACE('', (#1501), #1098, .T.);
#1503 = ORIENTED_EDGE('', *, *, #899, .T.);
#1504 = ORIENTED_EDGE('', *, *, #895, .T.);
#1505 = ORIENTED_EDGE('', *, *, #897, .T.);
#1506 = ORIENTED_EDGE('', *, *, #888, .F.);
#1507 = ORIENTED_EDGE('', *, *, #891, .T.);
#1508 = EDGE_LOOP('', (#1503, #1504, #1505, #1506, #1507));
#1509 = FACE_BOUND('', #1508, .T.);
#1510 = ADVANCED_FACE('', (#1509), #1110, .T.);
#1511 = ORIENTED_EDGE('', *, *, #890, .F.);
#1512 = ORIENTED_EDGE('', *, *, #887, .T.);
#1513 = ORIENTED_EDGE('', *, *, #896, .F.);
#1514 = ORIENTED_EDGE('', *, *, #894, .F.);
#1515 = ORIENTED_EDGE('', *, *, #898, .F.);
#1516 = EDGE_LOOP('', (#1511, #1512, #1513, #1514, #1515));
#1517 = FACE_BOUND('', #1516, .T.);
#1518 = ADVANCED_FACE('', (#1517), #1106, .F.);
#1519 = ORIENTED_EDGE('', *, *, #896, .T.);
#1520 = ORIENTED_EDGE('', *, *, #886, .F.);
#1521 = ORIENTED_EDGE('', *, *, #897, .F.);
#1522 = ORIENTED_EDGE('', *, *, #893, .T.);
#1523 = EDGE_LOOP('', (#1519, #1520, #1521, #1522));
#1524 = FACE_BOUND('', #1523, .T.);
#1525 = ADVANCED_FACE('', (#1524), #1102, .T.);
#1526 = ORIENTED_EDGE('', *, *, #912, .T.);
#1527 = ORIENTED_EDGE('', *, *, #908, .T.);
#1528 = ORIENTED_EDGE('', *, *, #910, .T.);
#1529 = ORIENTED_EDGE('', *, *, #904, .F.);
#1530 = EDGE_LOOP('', (#1526, #1527, #1528, #1529));
#1531 = FACE_BOUND('', #1530, .T.);
#1532 = ADVANCED_FACE('', (#1531), #1126, .T.);
#1533 = ORIENTED_EDGE('', *, *, #909, .T.);
#1534 = ORIENTED_EDGE('', *, *, #902, .F.);
#1535 = ORIENTED_EDGE('', *, *, #910, .F.);
#1536 = ORIENTED_EDGE('', *, *, #906, .T.);
#1537 = EDGE_LOOP('', (#1533, #1534, #1535, #1536));
#1538 = FACE_BOUND('', #1537, .T.);
#1539 = ADVANCED_FACE('', (#1538), #1118, .T.);
#1540 = ORIENTED_EDGE('', *, *, #911, .T.);
#1541 = ORIENTED_EDGE('', *, *, #905, .T.);
#1542 = ORIENTED_EDGE('', *, *, #912, .F.);
#1543 = ORIENTED_EDGE('', *, *, #901, .T.);
#1544 = EDGE_LOOP('', (#1540, #1541, #1542, #1543));
#1545 = FACE_BOUND('', #1544, .T.);
#1546 = ADVANCED_FACE('', (#1545), #1114, .T.);
#1547 = ORIENTED_EDGE('', *, *, #903, .T.);
#1548 = ORIENTED_EDGE('', *, *, #909, .F.);
#1549 = ORIENTED_EDGE('', *, *, #907, .F.);
#1550 = ORIENTED_EDGE('', *, *, #911, .F.);
#1551 = EDGE_LOOP('', (#1547, #1548, #1549, #1550));
#1552 = FACE_BOUND('', #1551, .T.);
#1553 = ADVANCED_FACE('', (#1552), #1122, .F.);
#1554 = ORIENTED_EDGE('', *, *, #924, .T.);
#1555 = ORIENTED_EDGE('', *, *, #920, .T.);
#1556 = ORIENTED_EDGE('', *, *, #922, .T.);
#1557 = ORIENTED_EDGE('', *, *, #916, .T.);
#1558 = EDGE_LOOP('', (#1554, #1555, #1556, #1557));
#1559 = FACE_BOUND('', #1558, .T.);
#1560 = ADVANCED_FACE('', (#1559), #1142, .T.);
#1561 = ORIENTED_EDGE('', *, *, #915, .F.);
#1562 = ORIENTED_EDGE('', *, *, #921, .F.);
#1563 = ORIENTED_EDGE('', *, *, #919, .F.);
#1564 = ORIENTED_EDGE('', *, *, #923, .F.);
#1565 = EDGE_LOOP('', (#1561, #1562, #1563, #1564));
#1566 = FACE_BOUND('', #1565, .T.);
#1567 = ADVANCED_FACE('', (#1566), #1138, .F.);
#1568 = ORIENTED_EDGE('', *, *, #921, .T.);
#1569 = ORIENTED_EDGE('', *, *, #914, .F.);
#1570 = ORIENTED_EDGE('', *, *, #922, .F.);
#1571 = ORIENTED_EDGE('', *, *, #918, .T.);
#1572 = EDGE_LOOP('', (#1568, #1569, #1570, #1571));
#1573 = FACE_BOUND('', #1572, .T.);
#1574 = ADVANCED_FACE('', (#1573), #1134, .T.);
#1575 = ORIENTED_EDGE('', *, *, #923, .T.);
#1576 = ORIENTED_EDGE('', *, *, #917, .T.);
#1577 = ORIENTED_EDGE('', *, *, #924, .F.);
#1578 = ORIENTED_EDGE('', *, *, #913, .T.);
#1579 = EDGE_LOOP('', (#1575, #1576, #1577, #1578));
#1580 = FACE_BOUND('', #1579, .T.);
#1581 = ADVANCED_FACE('', (#1580), #1130, .T.);
#1582 = ORIENTED_EDGE('', *, *, #934, .F.);
#1583 = ORIENTED_EDGE('', *, *, #925, .F.);
#1584 = ORIENTED_EDGE('', *, *, #941, .T.);
#1585 = ORIENTED_EDGE('', *, *, #927, .T.);
#1586 = ORIENTED_EDGE('', *, *, #936, .T.);
#1587 = ORIENTED_EDGE('', *, *, #942, .F.);
#1588 = EDGE_LOOP('', (#1582, #1583, #1584, #1585, #1586, #1587));
#1589 = FACE_BOUND('', #1588, .T.);
#1590 = ADVANCED_FACE('', (#1589), #1147, .F.);
#1591 = ORIENTED_EDGE('', *, *, #939, .F.);
#1592 = ORIENTED_EDGE('', *, *, #932, .F.);
#1593 = ORIENTED_EDGE('', *, *, #943, .F.);
#1594 = ORIENTED_EDGE('', *, *, #930, .T.);
#1595 = ORIENTED_EDGE('', *, *, #937, .T.);
#1596 = ORIENTED_EDGE('', *, *, #944, .T.);
#1597 = EDGE_LOOP('', (#1591, #1592, #1593, #1594, #1595, #1596));
#1598 = FACE_BOUND('', #1597, .T.);
#1599 = ADVANCED_FACE('', (#1598), #1147, .F.);
#1600 = ORIENTED_EDGE('', *, *, #935, .F.);
#1601 = ORIENTED_EDGE('', *, *, #928, .F.);
#1602 = ORIENTED_EDGE('', *, *, #941, .F.);
#1603 = ORIENTED_EDGE('', *, *, #926, .T.);
#1604 = ORIENTED_EDGE('', *, *, #933, .T.);
#1605 = ORIENTED_EDGE('', *, *, #942, .T.);
#1606 = EDGE_LOOP('', (#1600, #1601, #1602, #1603, #1604, #1605));
#1607 = FACE_BOUND('', #1606, .T.);
#1608 = ADVANCED_FACE('', (#1607), #1147, .F.);
#1609 = ORIENTED_EDGE('', *, *, #938, .F.);
#1610 = ORIENTED_EDGE('', *, *, #929, .F.);
#1611 = ORIENTED_EDGE('', *, *, #943, .T.);
#1612 = ORIENTED_EDGE('', *, *, #931, .T.);
#1613 = ORIENTED_EDGE('', *, *, #940, .T.);
#1614 = ORIENTED_EDGE('', *, *, #944, .F.);
#1615 = EDGE_LOOP('', (#1609, #1610, #1611, #1612, #1613, #1614));
#1616 = FACE_BOUND('', #1615, .T.);
#1617 = ADVANCED_FACE('', (#1616), #1147, .F.);
#1618 = CLOSED_SHELL('', (#1154, #1158, #1162));
#1619 = CLOSED_SHELL('', (#1179, #1190, #1201, #1218, #1235, #1246, #1257, #1274, #1281, #1300, #1307, #1313, #1319, #1326, #1345, #1352, #1358, #1364, #1371, #1390, #1397, #1403, #1409, #1416, #1424, #1432, #1439, #1446, #1453, #1460, #1467, #1474, #1481, #1488, #1495, #1502, #1510, #1518, #1525, #1532, #1539, #1546, #1553, #1560, #1567, #1574, #1581, #1590, #1599, #1608, #1617));
#1620 = MANIFOLD_SOLID_BREP('', #1618);
#1621 = MANIFOLD_SOLID_BREP('', #1619);
#1622 = APPLICATION_CONTEXT('configuration controlled 3D design of mechanical parts and assemblies');
#1623 = PRODUCT_DEFINITION_CONTEXT('part definition', #1622, 'design');
#1624 = PRODUCT_CONTEXT('', #1622, 'mechanical');
#1625 = PRODUCT('UNIDENTIFIED_PRODUCT', '', $, (#1624));
#1626 = PRODUCT_DEFINITION_FORMATION('', $, #1625);
#1627 = PRODUCT_DEFINITION('design', $, #1626, #1623);
#1628 = PRODUCT_DEFINITION_SHAPE('', '', #1627);
#1629 = ADVANCED_BREP_SHAPE_REPRESENTATION('', (#1621), #4);
#1630 = SHAPE_DEFINITION_REPRESENTATION(#1628, #1629);
#1631 = COLOUR_RGB('', 0.23529412, 0.52549022, 0.71764708);
#1632 = FILL_AREA_STYLE_COLOUR('', #1631);
#1633 = FILL_AREA_STYLE('', (#1632));
#1634 = SURFACE_STYLE_FILL_AREA(#1633);
#1635 = SURFACE_SIDE_STYLE('', (#1634));
#1636 = SURFACE_STYLE_USAGE(.BOTH., #1635);
#1637 = PRESENTATION_STYLE_ASSIGNMENT((#1636));
#1638 = STYLED_ITEM('', (#1637), #1621);
#1639 = MECHANICAL_DESIGN_GEOMETRIC_PRESENTATION_REPRESENTATION('', (#1638), #4);
#1640 = PRODUCT_CONTEXT('', #1622, 'mechanical');
#1641 = PRODUCT('UNIDENTIFIED_PRODUCT', '', $, (#1640));
#1642 = PRODUCT_DEFINITION_FORMATION('', $, #1641);
#1643 = PRODUCT_DEFINITION('design', $, #1642, #1623);
#1644 = PRODUCT_DEFINITION_SHAPE('', '', #1643);
#1645 = ADVANCED_BREP_SHAPE_REPRESENTATION('', (#1620), #4);
#1646 = SHAPE_DEFINITION_REPRESENTATION(#1644, #1645);
#1647 = COLOUR_RGB('', 0.78431374, 0.80392158, 0.82352942);
#1648 = FILL_AREA_STYLE_COLOUR('', #1647);
#1649 = FILL_AREA_STYLE('', (#1648));
#1650 = SURFACE_STYLE_FILL_AREA(#1649);
#1651 = SURFACE_SIDE_STYLE('', (#1650));
#1652 = SURFACE_STYLE_USAGE(.BOTH., #1651);
#1653 = PRESENTATION_STYLE_ASSIGNMENT((#1652));
#1654 = STYLED_ITEM('', (#1653), #1620);
#1655 = MECHANICAL_DESIGN_GEOMETRIC_PRESENTATION_REPRESENTATION('', (#1654), #4);
ENDSEC;
END-ISO-10303-21;
